<svg xmlns="http://www.w3.org/2000/svg" xmlns:xlink="http://www.w3.org/1999/xlink" width="40" zoomAndPan="magnify" viewBox="0 0 30 30.000001" height="40" preserveAspectRatio="xMidYMid meet" version="1.0"><defs><g/><clipPath id="bb3b07b9fc"><path d="M 0.484375 0 L 29.515625 0 L 29.515625 29.03125 L 0.484375 29.03125 Z M 0.484375 0 " clip-rule="nonzero"/></clipPath><linearGradient x1="0" gradientTransform="matrix(0.725806, 0, 0, 0.725806, 0.48387, 0.00000193548)" y1="0" x2="39.999998" gradientUnits="userSpaceOnUse" y2="0" id="c2211c7d2b"><stop stop-opacity="1" stop-color="rgb(65.098572%, 65.098572%, 65.098572%)" offset="0"/><stop stop-opacity="1" stop-color="rgb(65.234375%, 65.234375%, 65.234375%)" offset="0.0078125"/><stop stop-opacity="1" stop-color="rgb(65.507507%, 65.507507%, 65.507507%)" offset="0.015625"/><stop stop-opacity="1" stop-color="rgb(65.78064%, 65.78064%, 65.78064%)" offset="0.0234375"/><stop stop-opacity="1" stop-color="rgb(66.052246%, 66.052246%, 66.052246%)" offset="0.03125"/><stop stop-opacity="1" stop-color="rgb(66.325378%, 66.325378%, 66.325378%)" offset="0.0390625"/><stop stop-opacity="1" stop-color="rgb(66.598511%, 66.598511%, 66.598511%)" offset="0.046875"/><stop stop-opacity="1" stop-color="rgb(66.871643%, 66.871643%, 66.871643%)" offset="0.0546875"/><stop stop-opacity="1" stop-color="rgb(67.14325%, 67.14325%, 67.14325%)" offset="0.0625"/><stop stop-opacity="1" stop-color="rgb(67.416382%, 67.416382%, 67.416382%)" offset="0.0703125"/><stop stop-opacity="1" stop-color="rgb(67.689514%, 67.689514%, 67.689514%)" offset="0.078125"/><stop stop-opacity="1" stop-color="rgb(67.961121%, 67.961121%, 67.961121%)" offset="0.0859375"/><stop stop-opacity="1" stop-color="rgb(68.234253%, 68.234253%, 68.234253%)" offset="0.09375"/><stop stop-opacity="1" stop-color="rgb(68.507385%, 68.507385%, 68.507385%)" offset="0.101562"/><stop stop-opacity="1" stop-color="rgb(68.778992%, 68.778992%, 68.778992%)" offset="0.109375"/><stop stop-opacity="1" stop-color="rgb(69.052124%, 69.052124%, 69.052124%)" offset="0.117188"/><stop stop-opacity="1" stop-color="rgb(69.325256%, 69.325256%, 69.325256%)" offset="0.125"/><stop stop-opacity="1" stop-color="rgb(69.596863%, 69.596863%, 69.596863%)" offset="0.132812"/><stop stop-opacity="1" stop-color="rgb(69.869995%, 69.869995%, 69.869995%)" offset="0.140625"/><stop stop-opacity="1" stop-color="rgb(70.143127%, 70.143127%, 70.143127%)" offset="0.148438"/><stop stop-opacity="1" stop-color="rgb(70.41626%, 70.41626%, 70.41626%)" offset="0.15625"/><stop stop-opacity="1" stop-color="rgb(70.687866%, 70.687866%, 70.687866%)" offset="0.164062"/><stop stop-opacity="1" stop-color="rgb(70.960999%, 70.960999%, 70.960999%)" offset="0.171875"/><stop stop-opacity="1" stop-color="rgb(71.234131%, 71.234131%, 71.234131%)" offset="0.179688"/><stop stop-opacity="1" stop-color="rgb(71.505737%, 71.505737%, 71.505737%)" offset="0.1875"/><stop stop-opacity="1" stop-color="rgb(71.77887%, 71.77887%, 71.77887%)" offset="0.195312"/><stop stop-opacity="1" stop-color="rgb(72.052002%, 72.052002%, 72.052002%)" offset="0.203125"/><stop stop-opacity="1" stop-color="rgb(72.323608%, 72.323608%, 72.323608%)" offset="0.210938"/><stop stop-opacity="1" stop-color="rgb(72.596741%, 72.596741%, 72.596741%)" offset="0.21875"/><stop stop-opacity="1" stop-color="rgb(72.869873%, 72.869873%, 72.869873%)" offset="0.226562"/><stop stop-opacity="1" stop-color="rgb(73.141479%, 73.141479%, 73.141479%)" offset="0.234375"/><stop stop-opacity="1" stop-color="rgb(73.414612%, 73.414612%, 73.414612%)" offset="0.242188"/><stop stop-opacity="1" stop-color="rgb(73.687744%, 73.687744%, 73.687744%)" offset="0.25"/><stop stop-opacity="1" stop-color="rgb(73.959351%, 73.959351%, 73.959351%)" offset="0.257812"/><stop stop-opacity="1" stop-color="rgb(74.232483%, 74.232483%, 74.232483%)" offset="0.265625"/><stop stop-opacity="1" stop-color="rgb(74.505615%, 74.505615%, 74.505615%)" offset="0.273438"/><stop stop-opacity="1" stop-color="rgb(74.778748%, 74.778748%, 74.778748%)" offset="0.28125"/><stop stop-opacity="1" stop-color="rgb(75.050354%, 75.050354%, 75.050354%)" offset="0.289062"/><stop stop-opacity="1" stop-color="rgb(75.323486%, 75.323486%, 75.323486%)" offset="0.296875"/><stop stop-opacity="1" stop-color="rgb(75.596619%, 75.596619%, 75.596619%)" offset="0.304688"/><stop stop-opacity="1" stop-color="rgb(75.868225%, 75.868225%, 75.868225%)" offset="0.3125"/><stop stop-opacity="1" stop-color="rgb(76.141357%, 76.141357%, 76.141357%)" offset="0.320312"/><stop stop-opacity="1" stop-color="rgb(76.41449%, 76.41449%, 76.41449%)" offset="0.328125"/><stop stop-opacity="1" stop-color="rgb(76.686096%, 76.686096%, 76.686096%)" offset="0.335938"/><stop stop-opacity="1" stop-color="rgb(76.959229%, 76.959229%, 76.959229%)" offset="0.34375"/><stop stop-opacity="1" stop-color="rgb(77.232361%, 77.232361%, 77.232361%)" offset="0.351562"/><stop stop-opacity="1" stop-color="rgb(77.503967%, 77.503967%, 77.503967%)" offset="0.359375"/><stop stop-opacity="1" stop-color="rgb(77.7771%, 77.7771%, 77.7771%)" offset="0.367188"/><stop stop-opacity="1" stop-color="rgb(78.050232%, 78.050232%, 78.050232%)" offset="0.375"/><stop stop-opacity="1" stop-color="rgb(78.321838%, 78.321838%, 78.321838%)" offset="0.382812"/><stop stop-opacity="1" stop-color="rgb(78.594971%, 78.594971%, 78.594971%)" offset="0.390625"/><stop stop-opacity="1" stop-color="rgb(78.868103%, 78.868103%, 78.868103%)" offset="0.398438"/><stop stop-opacity="1" stop-color="rgb(79.141235%, 79.141235%, 79.141235%)" offset="0.40625"/><stop stop-opacity="1" stop-color="rgb(79.412842%, 79.412842%, 79.412842%)" offset="0.414062"/><stop stop-opacity="1" stop-color="rgb(79.685974%, 79.685974%, 79.685974%)" offset="0.421875"/><stop stop-opacity="1" stop-color="rgb(79.959106%, 79.959106%, 79.959106%)" offset="0.429688"/><stop stop-opacity="1" stop-color="rgb(80.230713%, 80.230713%, 80.230713%)" offset="0.4375"/><stop stop-opacity="1" stop-color="rgb(80.503845%, 80.503845%, 80.503845%)" offset="0.445312"/><stop stop-opacity="1" stop-color="rgb(80.776978%, 80.776978%, 80.776978%)" offset="0.453125"/><stop stop-opacity="1" stop-color="rgb(81.048584%, 81.048584%, 81.048584%)" offset="0.460938"/><stop stop-opacity="1" stop-color="rgb(81.321716%, 81.321716%, 81.321716%)" offset="0.46875"/><stop stop-opacity="1" stop-color="rgb(81.594849%, 81.594849%, 81.594849%)" offset="0.476562"/><stop stop-opacity="1" stop-color="rgb(81.866455%, 81.866455%, 81.866455%)" offset="0.484375"/><stop stop-opacity="1" stop-color="rgb(82.139587%, 82.139587%, 82.139587%)" offset="0.492188"/><stop stop-opacity="1" stop-color="rgb(82.41272%, 82.41272%, 82.41272%)" offset="0.5"/><stop stop-opacity="1" stop-color="rgb(82.684326%, 82.684326%, 82.684326%)" offset="0.507812"/><stop stop-opacity="1" stop-color="rgb(82.957458%, 82.957458%, 82.957458%)" offset="0.515625"/><stop stop-opacity="1" stop-color="rgb(83.230591%, 83.230591%, 83.230591%)" offset="0.523438"/><stop stop-opacity="1" stop-color="rgb(83.503723%, 83.503723%, 83.503723%)" offset="0.53125"/><stop stop-opacity="1" stop-color="rgb(83.77533%, 83.77533%, 83.77533%)" offset="0.539062"/><stop stop-opacity="1" stop-color="rgb(84.048462%, 84.048462%, 84.048462%)" offset="0.546875"/><stop stop-opacity="1" stop-color="rgb(84.321594%, 84.321594%, 84.321594%)" offset="0.554688"/><stop stop-opacity="1" stop-color="rgb(84.593201%, 84.593201%, 84.593201%)" offset="0.5625"/><stop stop-opacity="1" stop-color="rgb(84.866333%, 84.866333%, 84.866333%)" offset="0.570312"/><stop stop-opacity="1" stop-color="rgb(85.139465%, 85.139465%, 85.139465%)" offset="0.578125"/><stop stop-opacity="1" stop-color="rgb(85.411072%, 85.411072%, 85.411072%)" offset="0.585938"/><stop stop-opacity="1" stop-color="rgb(85.684204%, 85.684204%, 85.684204%)" offset="0.59375"/><stop stop-opacity="1" stop-color="rgb(85.957336%, 85.957336%, 85.957336%)" offset="0.601562"/><stop stop-opacity="1" stop-color="rgb(86.228943%, 86.228943%, 86.228943%)" offset="0.609375"/><stop stop-opacity="1" stop-color="rgb(86.502075%, 86.502075%, 86.502075%)" offset="0.617188"/><stop stop-opacity="1" stop-color="rgb(86.775208%, 86.775208%, 86.775208%)" offset="0.625"/><stop stop-opacity="1" stop-color="rgb(87.046814%, 87.046814%, 87.046814%)" offset="0.632812"/><stop stop-opacity="1" stop-color="rgb(87.319946%, 87.319946%, 87.319946%)" offset="0.640625"/><stop stop-opacity="1" stop-color="rgb(87.593079%, 87.593079%, 87.593079%)" offset="0.648438"/><stop stop-opacity="1" stop-color="rgb(87.866211%, 87.866211%, 87.866211%)" offset="0.65625"/><stop stop-opacity="1" stop-color="rgb(88.137817%, 88.137817%, 88.137817%)" offset="0.664062"/><stop stop-opacity="1" stop-color="rgb(88.41095%, 88.41095%, 88.41095%)" offset="0.671875"/><stop stop-opacity="1" stop-color="rgb(88.684082%, 88.684082%, 88.684082%)" offset="0.679688"/><stop stop-opacity="1" stop-color="rgb(88.955688%, 88.955688%, 88.955688%)" offset="0.6875"/><stop stop-opacity="1" stop-color="rgb(89.228821%, 89.228821%, 89.228821%)" offset="0.695312"/><stop stop-opacity="1" stop-color="rgb(89.501953%, 89.501953%, 89.501953%)" offset="0.703125"/><stop stop-opacity="1" stop-color="rgb(89.77356%, 89.77356%, 89.77356%)" offset="0.710938"/><stop stop-opacity="1" stop-color="rgb(90.046692%, 90.046692%, 90.046692%)" offset="0.71875"/><stop stop-opacity="1" stop-color="rgb(90.319824%, 90.319824%, 90.319824%)" offset="0.726562"/><stop stop-opacity="1" stop-color="rgb(90.591431%, 90.591431%, 90.591431%)" offset="0.734375"/><stop stop-opacity="1" stop-color="rgb(90.864563%, 90.864563%, 90.864563%)" offset="0.742188"/><stop stop-opacity="1" stop-color="rgb(91.137695%, 91.137695%, 91.137695%)" offset="0.75"/><stop stop-opacity="1" stop-color="rgb(91.409302%, 91.409302%, 91.409302%)" offset="0.757812"/><stop stop-opacity="1" stop-color="rgb(91.682434%, 91.682434%, 91.682434%)" offset="0.765625"/><stop stop-opacity="1" stop-color="rgb(91.955566%, 91.955566%, 91.955566%)" offset="0.773438"/><stop stop-opacity="1" stop-color="rgb(92.228699%, 92.228699%, 92.228699%)" offset="0.78125"/><stop stop-opacity="1" stop-color="rgb(92.500305%, 92.500305%, 92.500305%)" offset="0.789062"/><stop stop-opacity="1" stop-color="rgb(92.773438%, 92.773438%, 92.773438%)" offset="0.796875"/><stop stop-opacity="1" stop-color="rgb(93.04657%, 93.04657%, 93.04657%)" offset="0.804688"/><stop stop-opacity="1" stop-color="rgb(93.318176%, 93.318176%, 93.318176%)" offset="0.8125"/><stop stop-opacity="1" stop-color="rgb(93.591309%, 93.591309%, 93.591309%)" offset="0.820312"/><stop stop-opacity="1" stop-color="rgb(93.864441%, 93.864441%, 93.864441%)" offset="0.828125"/><stop stop-opacity="1" stop-color="rgb(94.136047%, 94.136047%, 94.136047%)" offset="0.835938"/><stop stop-opacity="1" stop-color="rgb(94.40918%, 94.40918%, 94.40918%)" offset="0.84375"/><stop stop-opacity="1" stop-color="rgb(94.682312%, 94.682312%, 94.682312%)" offset="0.851562"/><stop stop-opacity="1" stop-color="rgb(94.953918%, 94.953918%, 94.953918%)" offset="0.859375"/><stop stop-opacity="1" stop-color="rgb(95.227051%, 95.227051%, 95.227051%)" offset="0.867188"/><stop stop-opacity="1" stop-color="rgb(95.500183%, 95.500183%, 95.500183%)" offset="0.875"/><stop stop-opacity="1" stop-color="rgb(95.77179%, 95.77179%, 95.77179%)" offset="0.882812"/><stop stop-opacity="1" stop-color="rgb(96.044922%, 96.044922%, 96.044922%)" offset="0.890625"/><stop stop-opacity="1" stop-color="rgb(96.318054%, 96.318054%, 96.318054%)" offset="0.898438"/><stop stop-opacity="1" stop-color="rgb(96.591187%, 96.591187%, 96.591187%)" offset="0.90625"/><stop stop-opacity="1" stop-color="rgb(96.862793%, 96.862793%, 96.862793%)" offset="0.914062"/><stop stop-opacity="1" stop-color="rgb(97.135925%, 97.135925%, 97.135925%)" offset="0.921875"/><stop stop-opacity="1" stop-color="rgb(97.409058%, 97.409058%, 97.409058%)" offset="0.929688"/><stop stop-opacity="1" stop-color="rgb(97.680664%, 97.680664%, 97.680664%)" offset="0.9375"/><stop stop-opacity="1" stop-color="rgb(97.953796%, 97.953796%, 97.953796%)" offset="0.945312"/><stop stop-opacity="1" stop-color="rgb(98.226929%, 98.226929%, 98.226929%)" offset="0.953125"/><stop stop-opacity="1" stop-color="rgb(98.498535%, 98.498535%, 98.498535%)" offset="0.960938"/><stop stop-opacity="1" stop-color="rgb(98.771667%, 98.771667%, 98.771667%)" offset="0.96875"/><stop stop-opacity="1" stop-color="rgb(99.0448%, 99.0448%, 99.0448%)" offset="0.976562"/><stop stop-opacity="1" stop-color="rgb(99.316406%, 99.316406%, 99.316406%)" offset="0.984375"/><stop stop-opacity="1" stop-color="rgb(99.589539%, 99.589539%, 99.589539%)" offset="0.992188"/><stop stop-opacity="1" stop-color="rgb(99.862671%, 99.862671%, 99.862671%)" offset="1"/></linearGradient><clipPath id="0796060043"><path d="M 1 0 L 27 0 L 27 29.03125 L 1 29.03125 Z M 1 0 " clip-rule="nonzero"/></clipPath><clipPath id="c5bab7c13f"><path d="M 2 0 L 28 0 L 28 29.03125 L 2 29.03125 Z M 2 0 " clip-rule="nonzero"/></clipPath></defs><g clip-path="url(#bb3b07b9fc)"><path fill="#ffffff" d="M 0.484375 0 L 29.515625 0 L 29.515625 29.03125 L 0.484375 29.03125 Z M 0.484375 0 " fill-opacity="1" fill-rule="nonzero"/><path fill="url(#c2211c7d2b)" d="M 0.484375 0 L 0.484375 29.03125 L 29.515625 29.03125 L 29.515625 0 Z M 0.484375 0 " fill-rule="nonzero"/></g><g clip-path="url(#0796060043)"><g fill="#dc3c4d" fill-opacity="0.302"><g transform="translate(4.317934, 30.62283)"><g><path d="M 2.75 -23.015625 C 2.988281 -21.734375 3.625 -19.164062 4.65625 -15.3125 C 5.695312 -11.46875 6.503906 -8.832031 7.078125 -7.40625 L 9.703125 -8.03125 C 13.484375 -8.882812 15.617188 -10.300781 16.109375 -12.28125 C 16.347656 -13.25 16.304688 -14.476562 15.984375 -15.96875 C 15.671875 -17.457031 15.179688 -18.601562 14.515625 -19.40625 C 13.890625 -20.21875 12.835938 -21.03125 11.359375 -21.84375 C 9.890625 -22.664062 8.566406 -23.160156 7.390625 -23.328125 C 4.472656 -23.804688 2.914062 -23.785156 2.71875 -23.265625 Z M -1.65625 -21.765625 C -2.039062 -23.253906 -2.238281 -24.242188 -2.25 -24.734375 C -2.269531 -25.234375 -2.128906 -25.867188 -1.828125 -26.640625 C -1.523438 -27.421875 -1.195312 -27.914062 -0.84375 -28.125 C -0.488281 -28.34375 0.0664062 -28.453125 0.828125 -28.453125 C 1.597656 -28.460938 3.066406 -28.34375 5.234375 -28.09375 C 7.410156 -27.800781 9.273438 -27.40625 10.828125 -26.90625 C 12.378906 -26.414062 13.882812 -25.640625 15.34375 -24.578125 C 16.8125 -23.523438 17.898438 -22.425781 18.609375 -21.28125 C 19.316406 -20.144531 19.847656 -18.6875 20.203125 -16.90625 C 20.566406 -15.132812 20.734375 -13.945312 20.703125 -13.34375 C 20.679688 -12.738281 20.550781 -11.914062 20.3125 -10.875 C 19.800781 -9.050781 18.8125 -7.566406 17.34375 -6.421875 C 15.882812 -5.253906 14.03125 -4.429688 11.78125 -3.953125 C 9.539062 -3.472656 8.0625 -2.9375 7.34375 -2.34375 C 6.632812 -1.75 5.992188 -1.484375 5.421875 -1.546875 C 4.859375 -1.617188 4.257812 -2.078125 3.625 -2.921875 C 3 -3.773438 2.644531 -4.71875 2.5625 -5.75 C 2.476562 -6.78125 1.835938 -9.34375 0.640625 -13.4375 C -0.578125 -17.507812 -1.34375 -20.285156 -1.65625 -21.765625 Z M -1.65625 -21.765625 "/></g></g></g></g><g clip-path="url(#c5bab7c13f)"><g fill="#dc3c4d" fill-opacity="0.502"><g transform="translate(5.300153, 29.738126)"><g><path d="M 2.75 -23.015625 C 2.988281 -21.734375 3.625 -19.164062 4.65625 -15.3125 C 5.695312 -11.46875 6.503906 -8.832031 7.078125 -7.40625 L 9.703125 -8.03125 C 13.484375 -8.882812 15.617188 -10.300781 16.109375 -12.28125 C 16.347656 -13.25 16.304688 -14.476562 15.984375 -15.96875 C 15.671875 -17.457031 15.179688 -18.601562 14.515625 -19.40625 C 13.890625 -20.21875 12.835938 -21.03125 11.359375 -21.84375 C 9.890625 -22.664062 8.566406 -23.160156 7.390625 -23.328125 C 4.472656 -23.804688 2.914062 -23.785156 2.71875 -23.265625 Z M -1.65625 -21.765625 C -2.039062 -23.253906 -2.238281 -24.242188 -2.25 -24.734375 C -2.269531 -25.234375 -2.128906 -25.867188 -1.828125 -26.640625 C -1.523438 -27.421875 -1.195312 -27.914062 -0.84375 -28.125 C -0.488281 -28.34375 0.0664062 -28.453125 0.828125 -28.453125 C 1.597656 -28.460938 3.066406 -28.34375 5.234375 -28.09375 C 7.410156 -27.800781 9.273438 -27.40625 10.828125 -26.90625 C 12.378906 -26.414062 13.882812 -25.640625 15.34375 -24.578125 C 16.8125 -23.523438 17.898438 -22.425781 18.609375 -21.28125 C 19.316406 -20.144531 19.847656 -18.6875 20.203125 -16.90625 C 20.566406 -15.132812 20.734375 -13.945312 20.703125 -13.34375 C 20.679688 -12.738281 20.550781 -11.914062 20.3125 -10.875 C 19.800781 -9.050781 18.8125 -7.566406 17.34375 -6.421875 C 15.882812 -5.253906 14.03125 -4.429688 11.78125 -3.953125 C 9.539062 -3.472656 8.0625 -2.9375 7.34375 -2.34375 C 6.632812 -1.75 5.992188 -1.484375 5.421875 -1.546875 C 4.859375 -1.617188 4.257812 -2.078125 3.625 -2.921875 C 3 -3.773438 2.644531 -4.71875 2.5625 -5.75 C 2.476562 -6.78125 1.835938 -9.34375 0.640625 -13.4375 C -0.578125 -17.507812 -1.34375 -20.285156 -1.65625 -21.765625 Z M -1.65625 -21.765625 "/></g></g></g></g><g fill="#fa3343" fill-opacity="1"><g transform="translate(6.28237, 28.853423)"><g><path d="M 2.75 -23.015625 C 2.988281 -21.734375 3.625 -19.164062 4.65625 -15.3125 C 5.695312 -11.46875 6.503906 -8.832031 7.078125 -7.40625 L 9.703125 -8.03125 C 13.484375 -8.882812 15.617188 -10.300781 16.109375 -12.28125 C 16.347656 -13.25 16.304688 -14.476562 15.984375 -15.96875 C 15.671875 -17.457031 15.179688 -18.601562 14.515625 -19.40625 C 13.890625 -20.21875 12.835938 -21.03125 11.359375 -21.84375 C 9.890625 -22.664062 8.566406 -23.160156 7.390625 -23.328125 C 4.472656 -23.804688 2.914062 -23.785156 2.71875 -23.265625 Z M -1.65625 -21.765625 C -2.039062 -23.253906 -2.238281 -24.242188 -2.25 -24.734375 C -2.269531 -25.234375 -2.128906 -25.867188 -1.828125 -26.640625 C -1.523438 -27.421875 -1.195312 -27.914062 -0.84375 -28.125 C -0.488281 -28.34375 0.0664062 -28.453125 0.828125 -28.453125 C 1.597656 -28.460938 3.066406 -28.34375 5.234375 -28.09375 C 7.410156 -27.800781 9.273438 -27.40625 10.828125 -26.90625 C 12.378906 -26.414062 13.882812 -25.640625 15.34375 -24.578125 C 16.8125 -23.523438 17.898438 -22.425781 18.609375 -21.28125 C 19.316406 -20.144531 19.847656 -18.6875 20.203125 -16.90625 C 20.566406 -15.132812 20.734375 -13.945312 20.703125 -13.34375 C 20.679688 -12.738281 20.550781 -11.914062 20.3125 -10.875 C 19.800781 -9.050781 18.8125 -7.566406 17.34375 -6.421875 C 15.882812 -5.253906 14.03125 -4.429688 11.78125 -3.953125 C 9.539062 -3.472656 8.0625 -2.9375 7.34375 -2.34375 C 6.632812 -1.75 5.992188 -1.484375 5.421875 -1.546875 C 4.859375 -1.617188 4.257812 -2.078125 3.625 -2.921875 C 3 -3.773438 2.644531 -4.71875 2.5625 -5.75 C 2.476562 -6.78125 1.835938 -9.34375 0.640625 -13.4375 C -0.578125 -17.507812 -1.34375 -20.285156 -1.65625 -21.765625 Z M -1.65625 -21.765625 "/></g></g></g><g fill="#dc3c4d" fill-opacity="0.302"><g transform="translate(12.271054, 21.152336)"><g><path d="M 0.816406 -2.367188 C 0.839844 -2.238281 0.878906 -2.097656 0.902344 -1.972656 C 0.914062 -1.90625 0.921875 -1.84375 0.917969 -1.777344 C 0.945312 -1.636719 0.984375 -1.496094 1.007812 -1.351562 C 1.035156 -1.210938 1.027344 -1.0625 1.046875 -0.933594 C 1.136719 -0.425781 1.75 -0.0898438 2.148438 -0.160156 C 2.972656 -0.300781 2.617188 -1.5 2.546875 -2.304688 C 2.5 -2.851562 2.230469 -4.3125 2.453125 -4.351562 C 3.214844 -4.480469 3.730469 -4.34375 4.0625 -2.992188 C 4.296875 -2.019531 5.46875 -1.011719 6.40625 -1.175781 C 7.199219 -1.3125 8.265625 -2.527344 8.132812 -3.289062 C 8.054688 -3.734375 7.566406 -4.203125 7.152344 -4.132812 C 6.769531 -4.066406 6.488281 -3.429688 6.179688 -2.949219 C 6.136719 -2.910156 6.089844 -2.886719 6.027344 -2.875 C 5.789062 -2.835938 5.667969 -2.976562 5.628906 -3.199219 C 5.40625 -4.011719 4.996094 -4.578125 4.464844 -5.304688 C 4.382812 -5.386719 4.320312 -5.476562 4.304688 -5.554688 C 4.285156 -5.664062 4.316406 -5.769531 4.410156 -5.898438 C 5.109375 -6.855469 5.355469 -8.1875 5.171875 -9.238281 C 4.898438 -10.824219 3.585938 -12.265625 1.664062 -11.933594 C 0.726562 -11.769531 -0.648438 -11.027344 -0.882812 -10.496094 C -1.167969 -9.855469 -1.828125 -8.664062 -1.746094 -8.203125 C -1.691406 -7.886719 -0.988281 -7.417969 -0.6875 -7.46875 C -0.371094 -7.523438 -0.210938 -8.304688 0.0585938 -8.351562 C 0.238281 -8.269531 0.261719 -7.75 0.308594 -7.480469 C 0.605469 -5.765625 0.578125 -4.027344 0.816406 -2.367188 Z M 1.84375 -7.875 C 1.796875 -8.421875 1.738281 -9.132812 1.703125 -9.894531 C 1.691406 -10.15625 1.769531 -10.285156 2.007812 -10.324219 C 2.914062 -10.480469 3.402344 -10.207031 3.511719 -9.570312 C 3.714844 -8.394531 3.382812 -7.292969 2.632812 -6.425781 C 2.53125 -6.359375 2.515625 -6.257812 2.402344 -6.238281 C 2.039062 -6.175781 1.988281 -7.214844 1.84375 -7.875 Z M 1.84375 -7.875 "/></g></g></g><g fill="#dc3c4d" fill-opacity="0.502"><g transform="translate(12.64904, 20.789575)"><g><path d="M 0.816406 -2.367188 C 0.839844 -2.238281 0.878906 -2.097656 0.902344 -1.972656 C 0.914062 -1.90625 0.921875 -1.84375 0.917969 -1.777344 C 0.945312 -1.636719 0.984375 -1.496094 1.007812 -1.351562 C 1.035156 -1.210938 1.027344 -1.0625 1.046875 -0.933594 C 1.136719 -0.425781 1.75 -0.0898438 2.148438 -0.160156 C 2.972656 -0.300781 2.617188 -1.5 2.546875 -2.304688 C 2.5 -2.851562 2.230469 -4.3125 2.453125 -4.351562 C 3.214844 -4.480469 3.730469 -4.34375 4.0625 -2.992188 C 4.296875 -2.019531 5.46875 -1.011719 6.40625 -1.175781 C 7.199219 -1.3125 8.265625 -2.527344 8.132812 -3.289062 C 8.054688 -3.734375 7.566406 -4.203125 7.152344 -4.132812 C 6.769531 -4.066406 6.488281 -3.429688 6.179688 -2.949219 C 6.136719 -2.910156 6.089844 -2.886719 6.027344 -2.875 C 5.789062 -2.835938 5.667969 -2.976562 5.628906 -3.199219 C 5.40625 -4.011719 4.996094 -4.578125 4.464844 -5.304688 C 4.382812 -5.386719 4.320312 -5.476562 4.304688 -5.554688 C 4.285156 -5.664062 4.316406 -5.769531 4.410156 -5.898438 C 5.109375 -6.855469 5.355469 -8.1875 5.171875 -9.238281 C 4.898438 -10.824219 3.585938 -12.265625 1.664062 -11.933594 C 0.726562 -11.769531 -0.648438 -11.027344 -0.882812 -10.496094 C -1.167969 -9.855469 -1.828125 -8.664062 -1.746094 -8.203125 C -1.691406 -7.886719 -0.988281 -7.417969 -0.6875 -7.46875 C -0.371094 -7.523438 -0.210938 -8.304688 0.0585938 -8.351562 C 0.238281 -8.269531 0.261719 -7.75 0.308594 -7.480469 C 0.605469 -5.765625 0.578125 -4.027344 0.816406 -2.367188 Z M 1.84375 -7.875 C 1.796875 -8.421875 1.738281 -9.132812 1.703125 -9.894531 C 1.691406 -10.15625 1.769531 -10.285156 2.007812 -10.324219 C 2.914062 -10.480469 3.402344 -10.207031 3.511719 -9.570312 C 3.714844 -8.394531 3.382812 -7.292969 2.632812 -6.425781 C 2.53125 -6.359375 2.515625 -6.257812 2.402344 -6.238281 C 2.039062 -6.175781 1.988281 -7.214844 1.84375 -7.875 Z M 1.84375 -7.875 "/></g></g></g><g fill="#000000" fill-opacity="1"><g transform="translate(13.027027, 20.426813)"><g><path d="M 0.816406 -2.367188 C 0.839844 -2.238281 0.878906 -2.097656 0.902344 -1.972656 C 0.914062 -1.90625 0.921875 -1.84375 0.917969 -1.777344 C 0.945312 -1.636719 0.984375 -1.496094 1.007812 -1.351562 C 1.035156 -1.210938 1.027344 -1.0625 1.046875 -0.933594 C 1.136719 -0.425781 1.75 -0.0898438 2.148438 -0.160156 C 2.972656 -0.300781 2.617188 -1.5 2.546875 -2.304688 C 2.5 -2.851562 2.230469 -4.3125 2.453125 -4.351562 C 3.214844 -4.480469 3.730469 -4.34375 4.0625 -2.992188 C 4.296875 -2.019531 5.46875 -1.011719 6.40625 -1.175781 C 7.199219 -1.3125 8.265625 -2.527344 8.132812 -3.289062 C 8.054688 -3.734375 7.566406 -4.203125 7.152344 -4.132812 C 6.769531 -4.066406 6.488281 -3.429688 6.179688 -2.949219 C 6.136719 -2.910156 6.089844 -2.886719 6.027344 -2.875 C 5.789062 -2.835938 5.667969 -2.976562 5.628906 -3.199219 C 5.40625 -4.011719 4.996094 -4.578125 4.464844 -5.304688 C 4.382812 -5.386719 4.320312 -5.476562 4.304688 -5.554688 C 4.285156 -5.664062 4.316406 -5.769531 4.410156 -5.898438 C 5.109375 -6.855469 5.355469 -8.1875 5.171875 -9.238281 C 4.898438 -10.824219 3.585938 -12.265625 1.664062 -11.933594 C 0.726562 -11.769531 -0.648438 -11.027344 -0.882812 -10.496094 C -1.167969 -9.855469 -1.828125 -8.664062 -1.746094 -8.203125 C -1.691406 -7.886719 -0.988281 -7.417969 -0.6875 -7.46875 C -0.371094 -7.523438 -0.210938 -8.304688 0.0585938 -8.351562 C 0.238281 -8.269531 0.261719 -7.75 0.308594 -7.480469 C 0.605469 -5.765625 0.578125 -4.027344 0.816406 -2.367188 Z M 1.84375 -7.875 C 1.796875 -8.421875 1.738281 -9.132812 1.703125 -9.894531 C 1.691406 -10.15625 1.769531 -10.285156 2.007812 -10.324219 C 2.914062 -10.480469 3.402344 -10.207031 3.511719 -9.570312 C 3.714844 -8.394531 3.382812 -7.292969 2.632812 -6.425781 C 2.53125 -6.359375 2.515625 -6.257812 2.402344 -6.238281 C 2.039062 -6.175781 1.988281 -7.214844 1.84375 -7.875 Z M 1.84375 -7.875 "/></g></g></g></svg>