<svg width="926" height="474" viewBox="0 0 926 474" fill="none" xmlns="http://www.w3.org/2000/svg">
<path d="M69.9277 73.1426H71.9785L72.7109 72.8496L73.4434 73.1426H74.9082C80.7676 73.1426 87.6523 74.5098 95.5625 77.2441C103.375 81.0527 108.014 83.7871 109.479 85.4473L116.51 90.2812C117.389 91.1602 117.926 91.7461 118.121 92.0391V92.332H117.975C114.947 90.1836 113.092 89.1094 112.408 89.1094H112.262L111.822 89.4023V89.5488C111.822 90.8184 113.287 92.3809 116.217 94.2363L122.223 101.561C123.395 104.002 125.055 107.957 127.203 113.426C128.18 115.574 129.01 116.648 129.693 116.648L130.279 116.062V115.77C130.279 115.281 130.035 114.793 129.547 114.305L130.279 113.426H130.719C133.258 122.508 134.527 128.953 134.527 132.762L135.113 142.137L134.967 143.016H134.234H133.941C132.574 144.871 131.5 147.557 130.719 151.072C126.031 157.615 123.688 161.473 123.688 162.645H123.834C125.299 162.645 126.91 160.789 128.668 157.078L129.4 156.932L129.547 157.078C127.691 161.277 126.178 163.377 125.006 163.377C119.439 168.357 113.58 172.654 107.428 176.268C104.596 178.709 100.934 180.467 96.4414 181.541C90.9727 182.029 87.457 182.713 85.8945 183.592L84.7227 183.885C82.5742 183.396 76.666 182.762 66.998 181.98C65.1426 181.395 62.457 181.102 58.9414 181.102C57.7695 181.102 56.9395 181.297 56.4512 181.688C56.0605 181.688 55.1816 181.004 53.8145 179.637H53.2285C52.9355 179.637 52.5938 180.418 52.2031 181.98H51.9102V182.127C51.1289 181.932 50.7383 181.004 50.7383 179.344L51.1777 168.797H51.0312V168.504C51.2266 168.016 51.5684 167.771 52.0566 167.771L57.7695 168.357H58.3555C58.9414 168.357 59.625 168.26 60.4062 168.064L66.8516 169.676L67.4375 169.09V168.357L66.998 166.307C67.291 164.842 67.4375 162.01 67.4375 157.811C67.4375 152.342 66.9492 149.607 65.9727 149.607L65.8262 148.875C66.3145 130.32 67.1445 114.012 68.3164 99.9492C68.9023 96.8242 69.1953 94.627 69.1953 93.3574V92.0391C69.1953 90.1836 68.3652 89.2559 66.7051 89.2559H61.7246C61.627 89.2559 61.5781 89.5488 61.5781 90.1348L60.8457 90.2812L50.5918 89.8418L46.9297 90.2812L46.4902 89.6953V82.8105C46.4902 78.6113 46.9785 76.5117 47.9551 76.5117C49.3223 75.4375 51.4707 74.9004 54.4004 74.9004C58.9902 73.7285 64.166 73.1426 69.9277 73.1426ZM73.1504 74.3145L66.2656 74.9004L66.7051 75.3398H69.9277C72.2715 75.3398 73.4434 75.0957 73.4434 74.6074L73.1504 74.3145ZM58.9414 75.7793C59.1367 76.2676 60.9922 76.707 64.5078 77.0977H65.6797L65.9727 76.5117C64.6055 75.4375 63.6777 74.9004 63.1895 74.9004C60.3574 75.0957 58.9414 75.3887 58.9414 75.7793ZM81.5 77.3906L81.207 77.6836C82.9648 78.5625 83.9902 79.002 84.2832 79.002H84.7227L85.1621 78.709C84.2832 77.8301 83.3066 77.3906 82.2324 77.3906H81.5ZM51.1777 78.8555L50.7383 79.4414V79.7344C50.9336 80.5156 51.0801 80.9062 51.1777 80.9062H51.6172C52.2031 80.3203 52.7891 80.0273 53.375 80.0273L55.2793 80.1738V79.7344L52.6426 78.8555H51.1777ZM88.0918 79.1484H87.5059V79.5879H88.0918V79.1484ZM94.3906 79.4414H93.5117V79.5879C94.1953 80.0762 98.0039 81.7852 104.938 84.7148L106.549 86.0332H106.988C106.988 84.666 103.424 82.5176 96.2949 79.5879L94.3906 79.4414ZM69.6348 81.7852V81.9316C69.6348 82.9082 72.125 83.3965 77.1055 83.3965C78.082 82.4199 78.8145 81.9316 79.3027 81.9316C81.2559 81.9316 82.2324 81.7852 82.2324 81.4922V81.0527L81.207 80.9062H80.7676L75.9336 81.4922C74.957 81.0039 74.1758 80.7598 73.5898 80.7598H73.1504C70.8066 80.8574 69.6348 81.1992 69.6348 81.7852ZM92.4863 82.2246H92.0469V82.3711C92.4375 82.7617 94.6348 83.7871 98.6387 85.4473H99.0781L99.6641 84.7148C99.6641 84.0312 97.2715 83.2012 92.4863 82.2246ZM54.2539 82.8105L53.8145 83.25L54.2539 83.6895H54.6934L54.9863 83.25L54.6934 82.8105H54.2539ZM102.301 85.1543H101.275C101.275 85.8379 100.738 86.1797 99.6641 86.1797V86.7656C99.7617 86.9609 101.422 87.8398 104.645 89.4023L104.352 89.8418C104.547 90.4277 105.133 90.916 106.109 91.3066H106.988L108.307 90.7207L109.771 91.0137V90.7207C109.771 90.623 108.697 90.2324 106.549 89.5488V89.4023C106.549 89.207 106.695 89.1094 106.988 89.1094L107.281 88.8164V88.6699C105.328 86.7168 103.668 85.5449 102.301 85.1543ZM52.4961 86.0332L52.0566 86.4727L54.1074 86.9121H54.2539V86.7656C53.9609 86.2773 53.5215 86.0332 52.9355 86.0332H52.4961ZM55.7188 87.0586L56.1582 87.6445H57.0371C57.5254 87.6445 57.8672 87.4004 58.0625 86.9121V86.6191H57.1836C56.4023 86.6191 55.9141 86.7656 55.7188 87.0586ZM79.0098 91.8926L79.5957 100.242C79.5957 106.199 79.2539 109.178 78.5703 109.178C78.1797 107.42 77.8867 106.541 77.6914 106.541C77.3008 106.639 77.1055 107.029 77.1055 107.713V111.375C77.1055 112.742 77.3496 113.426 77.8379 113.426L78.8633 113.133L79.0098 113.426C78.7168 114.793 78.5703 117.43 78.5703 121.336L79.1562 142.43C79.1562 154.734 78.082 163.816 75.9336 169.676V170.555C75.9336 171.336 79.9863 172.166 88.0918 173.045C93.2676 173.045 99.4199 171.092 106.549 167.186C112.408 162.01 115.631 158.348 116.217 156.199C117.486 154.148 118.854 148.68 120.318 139.793V138.475C120.318 129.002 119.732 123.191 118.561 121.043L112.408 106.395C108.795 100.828 105.426 97.4102 102.301 96.1406C89.9961 91.2578 83.502 88.8164 82.8184 88.8164C80.2793 89.9883 79.0098 91.0137 79.0098 91.8926ZM71.0996 89.6953C71.0996 90.2812 71.4902 90.5742 72.2715 90.5742H72.5645L73.2969 89.6953V89.2559H71.3926C71.1973 89.2559 71.0996 89.4023 71.0996 89.6953ZM96.7344 89.8418V90.1348C97.9062 91.4043 98.9805 92.0391 99.957 92.0391V91.3066C98.3945 90.3301 97.3203 89.8418 96.7344 89.8418ZM109.625 92.7715V93.0645C109.82 93.4551 110.455 93.9922 111.529 94.6758H111.969V94.5293C111.969 93.748 111.188 93.1621 109.625 92.7715ZM119.732 94.9688H119.879C120.953 95.1641 122.662 97.6543 125.006 102.439C126.373 103.807 127.057 104.783 127.057 105.369V105.809H126.764C125.787 105.809 124.566 104.295 123.102 101.268C123.102 100.389 121.979 98.2891 119.732 94.9688ZM110.65 96.4336V97.166C111.139 97.9473 112.506 99.168 114.752 100.828H115.191L115.484 100.389V99.9492C113.727 97.1172 112.75 95.7012 112.555 95.7012H111.969C111.383 95.7012 110.943 95.9453 110.65 96.4336ZM70.3672 100.975L70.6602 102.586V104.051L71.0996 104.637H71.3926C71.7832 104.637 71.9785 103.514 71.9785 101.268C71.9785 99.0215 71.7832 97.3125 71.3926 96.1406H71.0996C70.8066 96.1406 70.5625 97.752 70.3672 100.975ZM126.764 106.834V106.541H127.057C128.814 108.787 129.693 110.691 129.693 112.254V112.693H129.4C128.619 112.693 127.74 110.74 126.764 106.834ZM119.146 107.273H118.414V109.031C119.391 113.523 121.051 117.088 123.395 119.725H123.688C122.125 113.768 120.611 109.617 119.146 107.273ZM69.9277 108.299H69.6348L69.1953 110.057V110.496H69.6348L69.9277 109.031V108.299ZM78.5703 110.496L79.0098 110.35H79.3027V110.789L79.0098 111.229H78.5703V110.496ZM68.4629 131.883V133.641C68.4629 136.277 68.6094 138.328 68.9023 139.793H69.4883L70.6602 126.17C70.6602 122.557 70.3184 118.064 69.6348 112.693C68.8535 112.693 68.4629 119.09 68.4629 131.883ZM128.521 119.139L128.082 119.432V119.725L128.229 120.018C127.838 120.799 127.643 121.482 127.643 122.068L128.961 126.463H129.547C130.133 125.193 130.426 124.217 130.426 123.533V122.508C129.938 120.262 129.352 119.139 128.668 119.139H128.521ZM123.688 129.832H123.102L122.809 130.711V133.494C122.809 137.01 122.32 140.379 121.344 143.602V144.041L121.637 144.188H122.223C123.004 144.188 123.736 142.82 124.42 140.086C124.811 139.695 125.006 139.061 125.006 138.182V135.398C125.006 131.688 124.566 129.832 123.688 129.832ZM134.527 146.092V145.506H134.674L134.967 146.678C134.967 147.557 133.746 150.438 131.305 155.32L130.719 155.76H130.426C130.914 154.002 132.281 150.779 134.527 146.092ZM122.516 152.83V152.977H122.809C123.492 152.977 124.469 152.342 125.738 151.072V150.926C125.738 150.047 125.494 149.51 125.006 149.314H124.859C123.297 150.877 122.516 152.049 122.516 152.83ZM76.959 152.977H76.373L76.2266 154.881V155.174L76.373 156.053H76.5195L76.959 155.613V152.977ZM116.07 163.377V164.109H116.656C121.637 160.008 124.371 156.736 124.859 154.295V154.002C121.148 155.76 118.219 158.885 116.07 163.377ZM70.5137 165.135L70.6602 166.16H70.9531C71.7344 166.16 72.1738 165.818 72.2715 165.135C71.8809 160.35 71.4902 157.957 71.0996 157.957C70.709 157.957 70.5137 160.35 70.5137 165.135ZM110.504 165.721L110.65 166.16H111.236C111.627 166.062 112.018 165.721 112.408 165.135V164.549C112.408 164.451 112.213 164.402 111.822 164.402C111.334 164.402 110.895 164.842 110.504 165.721ZM109.479 165.867L108.893 166.307L109.186 166.746H109.625L110.064 166.307V165.867H109.479ZM96.1484 175.975V176.268H96.4414C100.641 176.268 107.232 173.387 116.217 167.625L116.51 167.332V167.186C110.26 169.139 105.865 170.994 103.326 172.752C99.3223 174.021 96.9297 175.096 96.1484 175.975ZM54.1074 169.676L53.5215 170.262L53.8145 171.287C53.2285 172.947 52.9355 174.217 52.9355 175.096V175.535L53.5215 176.268H53.8145L54.4004 175.535V173.631C54.4004 172.557 54.791 172.02 55.5723 172.02H57.1836L57.623 171.727V171.141C57.623 170.164 56.6953 169.676 54.8398 169.676H54.1074ZM61.7246 171.727L61.2852 172.02V172.312L61.7246 172.752H62.6035L63.043 172.459C62.8477 171.971 62.4082 171.727 61.7246 171.727ZM63.4824 175.096V175.389C63.4824 175.975 66.0215 177 71.0996 178.465L75.3477 178.904C76.7148 178.709 77.3984 178.465 77.3984 178.172V177.732C69.3906 175.975 64.752 175.096 63.4824 175.096ZM56.1582 175.096L55.7188 175.535L56.1582 175.975L56.5977 175.389V175.096H56.1582ZM81.207 176.707L80.7676 177C80.7676 177.488 82.5742 177.781 86.1875 177.879H88.0918L88.3848 177.732V177.439C88.3848 176.951 87.3105 176.707 85.1621 176.707H81.207ZM97.0273 177.439H98.9316L99.5176 176.854V176.707H98.9316C97.6621 176.805 97.0273 177.049 97.0273 177.439ZM79.7422 178.172H79.1562V178.465H79.7422V178.172ZM86.1875 180.516L81.207 181.102V181.541C82.9648 182.127 84.2832 182.42 85.1621 182.42H85.8945C87.2617 182.42 87.9941 181.98 88.0918 181.102C87.7012 180.711 87.0664 180.516 86.1875 180.516ZM157.232 97.6055L175.396 97.166C176.959 97.166 180.23 97.8496 185.211 99.2168C190.875 104.588 194.244 108.787 195.318 111.814C197.467 114.061 199.176 118.504 200.445 125.145C202.008 126.707 202.789 130.174 202.789 135.545L202.936 139.207L202.35 153.709C202.35 156.639 204.156 160.252 207.77 164.549C211.09 167.771 213.238 169.383 214.215 169.383V169.676C214.215 170.848 212.506 172.703 209.088 175.242C206.549 177.781 204.938 179.051 204.254 179.051H204.107C202.545 178.855 198.59 175.975 192.242 170.408C180.719 174.9 174.908 177.195 174.811 177.293C171.002 178.465 166.754 179.051 162.066 179.051H161.334C156.061 178.172 151.568 176.121 147.857 172.898C147.174 172.312 145.758 169.871 143.609 165.574C141.852 163.426 140.973 160.789 140.973 157.664V153.416C140.973 150.682 141.705 148.143 143.17 145.799C144.439 141.795 146.637 137.986 149.762 134.373C151.324 132.518 152.887 131.346 154.449 130.857C159.527 128.123 164.557 126.756 169.537 126.756L176.129 126.609H177.008C180.719 126.609 183.355 127.146 184.918 128.221H185.797C186.285 128.221 186.529 128.025 186.529 127.635C185.455 123.045 183.697 118.65 181.256 114.451C179.107 110.838 175.104 109.031 169.244 109.031L163.238 108.152C158.062 109.227 155.475 110.301 155.475 111.375C153.424 114.012 152.203 117.283 151.812 121.189C151.617 121.678 149.859 121.922 146.539 121.922L145.66 122.215C145.27 122.215 144.781 123.045 144.195 124.705C141.461 124.314 140.094 123.729 140.094 122.947C140.289 122.361 140.631 118.846 141.119 112.4C142.682 107.908 146.393 103.758 152.252 99.9492C154.986 98.3867 156.646 97.6055 157.232 97.6055ZM173.639 100.096L173.346 100.535L173.785 101.121H174.664L174.811 100.828L174.371 100.096H173.639ZM184.771 101.268H184.479V101.561C185.26 102.342 185.943 102.732 186.529 102.732H186.676V102.439C185.895 101.658 185.26 101.268 184.771 101.268ZM161.334 102V102.439C161.432 102.732 161.92 102.879 162.799 102.879C163.678 102.879 164.898 102.586 166.461 102V101.414H165.875C163.727 101.414 162.213 101.609 161.334 102ZM148.15 106.688V106.98H148.297C149.176 106.98 150.494 106.053 152.252 104.197V103.758H152.105C151.129 103.758 149.811 104.734 148.15 106.688ZM168.512 105.662L167.779 106.248L168.219 106.98H170.123L170.562 106.541L169.684 105.662H168.512ZM146.979 117.527L146.539 117.82V120.018H146.686C147.076 119.92 147.271 119.578 147.271 118.992V117.82L146.979 117.527ZM200.152 129.246H200.006V129.539C200.201 130.32 200.396 130.711 200.592 130.711L200.738 129.979C200.543 129.49 200.348 129.246 200.152 129.246ZM196.783 134.373L196.344 134.666V135.105C196.734 136.57 197.125 137.303 197.516 137.303H197.809C197.809 136.033 197.516 135.057 196.93 134.373H196.783ZM153.863 135.252L152.252 135.984V136.717H152.545C153.229 136.717 153.717 136.326 154.01 135.545V135.252H153.863ZM152.252 149.168C152.936 155.027 153.766 157.957 154.742 157.957L156.207 159.861V160.008L154.889 159.861V160.301C156.744 162.84 160.553 165.184 166.314 167.332C166.998 167.723 167.975 168.016 169.244 168.211C171.002 168.211 177.74 165.33 189.459 159.568C190.24 159.08 190.631 158.543 190.631 157.957V157.225C189.752 153.221 189.02 148.533 188.434 143.162L188.141 143.016C188.141 141.941 187.066 141.062 184.918 140.379C177.691 138.328 172.76 137.303 170.123 137.303C162.701 138.963 157.623 141.453 154.889 144.773C153.131 146.531 152.252 147.996 152.252 149.168ZM196.344 139.646L195.904 139.354V139.793H196.344V139.646ZM196.93 142.43H196.051V143.016L196.49 143.455L196.93 143.016V142.43ZM192.242 146.092L191.803 146.531L192.242 147.117L192.828 146.971V146.531L192.389 146.092H192.242ZM197.516 146.531H197.076V146.678C197.271 150.389 197.662 152.244 198.248 152.244L198.541 151.951V151.658C198.541 149.607 198.199 147.898 197.516 146.531ZM191.803 151.219L191.656 151.365V152.244L192.096 152.83H192.242L192.828 152.244V151.365L192.389 151.219H191.803ZM204.254 164.988H203.814V165.867C204.205 167.137 204.645 167.771 205.133 167.771H205.572V167.332C205.182 165.77 204.742 164.988 204.254 164.988ZM150.348 165.428L150.055 165.721V165.867L150.348 166.16H151.08V165.867L150.641 165.428H150.348ZM199.713 167.332L199.273 167.771C199.566 168.455 199.957 168.895 200.445 169.09H200.592L201.178 168.504V168.211L200.445 167.332H199.713ZM178.473 169.383V169.676H179.059C180.426 169.676 182.232 169.09 184.479 167.918V167.771H183.893C180.572 168.162 178.766 168.699 178.473 169.383ZM202.936 169.822L202.643 170.408V170.701L203.229 171.287H203.814L204.254 170.994V170.701L203.521 169.822H202.936ZM166.754 170.994L166.314 171.434C166.51 171.922 166.9 172.166 167.486 172.166C168.561 171.971 169.098 171.727 169.098 171.434V171.287L168.658 170.994H166.754ZM150.787 173.045L150.348 173.631C150.738 174.51 153.18 175.633 157.672 177C159.137 177.684 161.09 178.025 163.531 178.025V177.879C163.531 177.586 161.676 177.049 157.965 176.268C155.816 175.682 153.57 174.607 151.227 173.045H150.787ZM272.369 108.738C276.178 108.738 279.4 111.424 282.037 116.795C282.525 116.795 283.209 117.43 284.088 118.699L285.992 129.539C285.309 130.711 282.721 131.297 278.229 131.297H276.764C273.15 130.711 271.344 129.49 271.344 127.635C271.344 126.268 270.221 124.363 267.975 121.922C267.682 121.434 265.582 121.189 261.676 121.189C257.965 121.189 253.473 122.166 248.199 124.119C244.488 128.025 242.047 131.053 240.875 133.201C241.559 149.9 241.803 160.35 241.607 164.549C241.607 165.428 242.193 165.867 243.365 165.867H246.881C248.443 165.965 249.225 166.258 249.225 166.746V166.893L249.811 168.797L249.518 177L248.639 178.172L241.754 178.904H241.168L238.238 179.783C227.008 179.393 221.393 178.953 221.393 178.465C219.439 178.465 218.463 177.586 218.463 175.828C218.268 174.07 218.17 172.264 218.17 170.408C218.17 168.553 220.074 167.332 223.883 166.746C223.883 165.965 225.201 165.574 227.838 165.574L228.277 165.428V165.135L227.398 124.998C227.398 122.557 226.764 121.336 225.494 121.336H224.615C223.443 121.336 221.49 121.873 218.756 122.947L218.463 122.654V122.361C218.463 122.166 218.854 121.922 219.635 121.629V121.336C218.658 121.336 218.17 118.602 218.17 113.133C217.975 113.133 217.828 112.254 217.73 110.496C221.637 107.469 225.738 105.955 230.035 105.955H233.697C235.162 105.955 237.652 106.443 241.168 107.42V107.859C240.289 109.227 239.85 110.203 239.85 110.789V111.814C247.76 108.299 258.6 107.273 272.369 108.738ZM233.99 130.857V131.59C234.479 132.566 234.723 133.592 234.723 134.666C234.625 135.057 234.479 137.059 234.283 140.672L234.576 146.531H234.723C235.016 146.531 235.406 141.99 235.895 132.908C236.09 132.908 236.188 131.932 236.188 129.979C236.09 129.1 235.846 128.66 235.455 128.66H235.162C234.381 129.148 233.99 129.881 233.99 130.857ZM225.201 175.096L223.297 175.242V175.535C223.297 176.023 224.713 176.268 227.545 176.268H231.939L232.965 176.121C232.965 175.633 230.377 175.291 225.201 175.096ZM250.543 115.037V115.33C251.422 115.33 252.594 113.914 254.059 111.082V110.35H253.912C251.373 111.131 250.25 112.693 250.543 115.037ZM269.439 119.725H270.172C270.66 119.627 271.588 118.455 272.955 116.209V116.062C272.955 115.867 272.76 115.77 272.369 115.77C270.709 116.551 269.879 117.576 269.879 118.846C269.781 118.846 269.635 119.139 269.439 119.725ZM235.748 123.094H235.162L234.43 126.17C234.43 126.658 234.723 127.146 235.309 127.635H235.455C235.748 127.635 235.992 126.951 236.188 125.584L235.748 123.094ZM256.109 111.814L256.842 114.744H258.014V111.668L257.574 111.229H257.135C256.451 111.326 256.109 111.521 256.109 111.814ZM224.176 172.752L223.883 173.045L224.029 173.338H232.086V172.898L227.105 172.752H224.176ZM221.539 111.668C222.32 112.449 223.15 112.84 224.029 112.84L224.176 112.547V111.521L223.59 110.789C222.223 110.984 221.539 111.277 221.539 111.668ZM236.334 173.777L236.773 174.217H238.971L239.557 173.631C239.557 173.436 239.312 173.24 238.824 173.045C237.164 173.24 236.334 173.484 236.334 173.777ZM278.521 115.623H278.082V115.916C278.863 116.697 279.547 117.088 280.133 117.088H280.572V116.795C279.791 116.014 279.107 115.623 278.521 115.623ZM228.277 108.738H227.838V109.324L228.717 110.35H230.035V110.057L228.277 108.738ZM223.883 117.381V117.674H224.322C225.396 117.674 225.982 117.479 226.08 117.088L225.787 116.648H225.494C224.615 116.648 224.078 116.893 223.883 117.381ZM261.383 110.496L259.625 110.643V110.789L259.918 111.229H261.383C262.066 111.229 262.457 111.033 262.555 110.643L262.262 110.496H261.383ZM238.238 157.664L237.652 158.104V159.275H238.238L238.824 158.836V157.957L238.531 157.664H238.238ZM220.66 173.631L220.074 173.045L219.781 173.631V174.217L220.074 174.656H220.66V173.631ZM241.168 118.26L240.582 118.406V118.846L241.168 119.285H241.607L242.047 118.846V118.406L241.168 118.26ZM264.312 110.35V110.643H265.338L265.924 110.203L265.484 109.764C264.703 109.959 264.312 110.154 264.312 110.35ZM273.98 110.35L273.688 110.643V110.789L273.98 111.229H274.566L274.859 110.789V110.643L274.566 110.35H273.98ZM238.385 108.885L237.652 109.178V109.764H238.385L238.824 109.178L238.385 108.885ZM237.945 111.521L237.359 111.961V112.254L237.652 112.547L238.385 111.961V111.521H237.945ZM273.541 123.68V123.973H273.834L274.42 123.533V123.094H274.273C273.785 123.387 273.541 123.582 273.541 123.68ZM268.561 110.789L267.975 111.229V111.375H268.707L269 111.082V110.789H268.561ZM238.238 160.887H237.945V161.473H238.238V160.887ZM311.627 109.471L315.729 109.178C316.998 115.33 316.949 118.504 315.582 118.699C314.312 118.699 316.07 124.314 320.855 135.545C323.004 140.916 324.713 144.822 325.982 147.264C328.814 154.197 330.67 157.664 331.549 157.664C331.842 157.664 332.33 158.25 333.014 159.422L333.16 159.715H334.771C335.846 159.715 337.652 155.467 340.191 146.971C349.664 129.197 352.35 120.262 348.248 120.164C348.053 120.164 347.809 120.213 347.516 120.311C348.102 116.404 348.248 113.084 347.955 110.35L348.688 109.764C361.383 110.057 367.73 110.545 367.73 111.229C368.219 111.229 368.463 113.719 368.463 118.699C367.779 121.629 366.9 123.094 365.826 123.094C364.752 122.996 364.166 122.996 364.068 123.094C363.971 123.191 364.215 123.338 364.801 123.533H363.775C359.967 129.979 358.062 134.178 358.062 136.131C356.891 140.916 355.377 144.236 353.521 146.092C350.494 154.881 348.15 160.936 346.49 164.256C345.807 165.037 345.123 167.576 344.439 171.873L338.141 182.127C335.113 188.963 330.963 195.506 325.689 201.756L318.512 206.59C315.582 207.371 313.287 207.762 311.627 207.762C304.4 207.762 300.787 207.029 300.787 205.564C300.006 205.076 299.371 203.709 298.883 201.463C297.418 199.998 295.611 194.871 293.463 186.082V185.789C293.463 184.812 294.439 184.324 296.393 184.324C298.053 184.324 300.982 183.445 305.182 181.688C306.451 181.688 308.209 186.18 310.455 195.164C311.139 197.215 311.676 198.24 312.066 198.24H313.238C314.02 197.947 314.801 196.775 315.582 194.725C316.168 194.725 318.121 192.186 321.441 187.107C322.906 183.982 324.469 181.102 326.129 178.465L326.568 176.707V173.777C326.471 172.312 325.445 170.115 323.492 167.186C321.539 163.865 319.977 160.74 318.805 157.811C314.215 145.506 308.99 134.08 303.131 123.533C302.74 123.143 302.301 122.947 301.812 122.947L292.877 123.387L292.438 122.947L292.145 118.113L291.852 111.814L294.488 110.643L308.99 109.178L311.627 109.471ZM352.936 113.426L351.178 112.986L354.547 114.451L356.598 114.012H356.891L359.381 114.305V114.012C359.381 113.621 358.404 113.328 356.451 113.133H354.254C353.375 113.133 352.936 113.23 352.936 113.426ZM363.189 112.986L362.896 113.279V113.426C363.092 113.816 363.385 114.061 363.775 114.158L366.412 113.865V113.426C366.314 113.133 365.973 112.986 365.387 112.986H363.189ZM293.902 118.699L293.609 118.846V120.018L294.342 120.604H296.246C298.297 120.506 299.322 120.213 299.322 119.725C299.322 119.334 297.516 118.992 293.902 118.699ZM307.379 120.311L306.939 120.604C306.939 121.775 307.623 123.289 308.99 125.145H309.137V123.533C309.137 121.873 308.697 120.799 307.818 120.311H307.379ZM361.139 118.113V118.406L361.725 118.992C365.143 118.211 366.852 117.576 366.852 117.088L366.412 116.648H365.826C362.994 116.941 361.432 117.43 361.139 118.113ZM359.088 117.381L358.648 117.674V118.406C358.941 118.992 359.527 119.285 360.406 119.285L360.553 119.139V118.406L359.527 117.381H359.088ZM358.502 122.361H357.77V123.094H358.502V122.361ZM357.916 126.609H357.477C353.668 134.031 351.568 137.889 351.178 138.182V139.207C351.178 139.598 351.617 140.281 352.496 141.258L351.471 144.188H351.764C353.131 142.137 355.084 137.059 357.623 128.953L357.916 126.609ZM336.529 167.918V168.65H337.262C338.824 168.65 340.826 163.963 343.268 154.588C343.268 154.393 343.756 153.855 344.732 152.977C344.732 152.195 345.025 151.658 345.611 151.365V151.219L345.172 150.047C345.66 149.07 345.66 149.021 345.172 149.9C344.977 150.291 344.586 151.023 344 152.098C342.535 154.734 341.217 157.127 340.045 159.275C339.654 160.643 338.482 163.523 336.529 167.918ZM320.709 145.799H320.562V146.092C322.613 151.756 323.834 154.588 324.225 154.588H324.371V154.295C322.516 148.631 321.295 145.799 320.709 145.799ZM346.344 158.836H346.49C348.053 158.836 349.322 155.125 350.299 147.703H350.152C349.762 147.703 349.273 148.924 348.688 151.365C347.32 154.686 346.539 157.176 346.344 158.836ZM319.977 151.658L319.537 152.098V152.537L319.977 152.83L320.562 152.537V152.391L319.977 151.658ZM324.371 155.32L323.932 155.76V156.053L324.811 156.785C325.104 156.785 325.25 156.639 325.25 156.346C325.055 155.955 324.811 155.613 324.518 155.32H324.371ZM335.064 178.172V178.465H335.797C336.48 178.465 337.848 176.023 339.898 171.141V170.994C338.531 170.994 336.92 173.387 335.064 178.172ZM329.498 173.631V173.777H329.645C330.426 173.777 330.816 173.436 330.816 172.752V171.873H330.23C329.742 172.068 329.498 172.654 329.498 173.631ZM333.746 183.445L332.574 185.203L332.721 185.643C333.6 184.959 334.039 184.227 334.039 183.445H333.746ZM300.348 186.375L299.908 186.814C300.689 187.889 301.129 188.865 301.227 189.744L302.398 190.916L302.984 190.77V190.037C302.984 188.572 302.35 187.352 301.08 186.375H300.348ZM319.537 195.75V195.896C320.514 195.896 321.49 194.676 322.467 192.234H322.174C321.002 192.82 320.123 193.992 319.537 195.75ZM303.277 193.553H302.984V193.992C302.984 195.066 303.375 195.848 304.156 196.336L304.596 196.043V195.75C304.596 194.969 304.156 194.236 303.277 193.553ZM323.053 198.826L321.734 200.584L322.027 200.877H322.174C324.811 199.51 326.373 198.143 326.861 196.775C326.471 196.385 326.08 196.189 325.689 196.189H325.104C324.225 196.189 323.541 197.068 323.053 198.826ZM307.232 199.119H306.354V199.559L306.939 200.291H308.258L308.697 199.998C308.697 199.51 308.209 199.217 307.232 199.119ZM314.264 201.902L316.9 203.807H317.486C317.877 203.709 318.072 203.318 318.072 202.635V201.902C317.975 201.609 317.584 201.463 316.9 201.463H315.582C314.703 201.463 314.264 201.609 314.264 201.902ZM309.137 203.221L308.99 203.66C309.283 204.344 309.918 204.686 310.895 204.686H312.945L313.238 204.246V204.1C313.238 203.611 312.652 203.318 311.48 203.221H309.137ZM389.117 97.6055L407.281 97.166C408.844 97.166 412.115 97.8496 417.096 99.2168C422.76 104.588 426.129 108.787 427.203 111.814C429.352 114.061 431.061 118.504 432.33 125.145C433.893 126.707 434.674 130.174 434.674 135.545L434.82 139.207L434.234 153.709C434.234 156.639 436.041 160.252 439.654 164.549C442.975 167.771 445.123 169.383 446.1 169.383V169.676C446.1 170.848 444.391 172.703 440.973 175.242C438.434 177.781 436.822 179.051 436.139 179.051H435.992C434.43 178.855 430.475 175.975 424.127 170.408C412.604 174.9 406.793 177.195 406.695 177.293C402.887 178.465 398.639 179.051 393.951 179.051H393.219C387.945 178.172 383.453 176.121 379.742 172.898C379.059 172.312 377.643 169.871 375.494 165.574C373.736 163.426 372.857 160.789 372.857 157.664V153.416C372.857 150.682 373.59 148.143 375.055 145.799C376.324 141.795 378.521 137.986 381.646 134.373C383.209 132.518 384.771 131.346 386.334 130.857C391.412 128.123 396.441 126.756 401.422 126.756L408.014 126.609H408.893C412.604 126.609 415.24 127.146 416.803 128.221H417.682C418.17 128.221 418.414 128.025 418.414 127.635C417.34 123.045 415.582 118.65 413.141 114.451C410.992 110.838 406.988 109.031 401.129 109.031L395.123 108.152C389.947 109.227 387.359 110.301 387.359 111.375C385.309 114.012 384.088 117.283 383.697 121.189C383.502 121.678 381.744 121.922 378.424 121.922L377.545 122.215C377.154 122.215 376.666 123.045 376.08 124.705C373.346 124.314 371.979 123.729 371.979 122.947C372.174 122.361 372.516 118.846 373.004 112.4C374.566 107.908 378.277 103.758 384.137 99.9492C386.871 98.3867 388.531 97.6055 389.117 97.6055ZM405.523 100.096L405.23 100.535L405.67 101.121H406.549L406.695 100.828L406.256 100.096H405.523ZM416.656 101.268H416.363V101.561C417.145 102.342 417.828 102.732 418.414 102.732H418.561V102.439C417.779 101.658 417.145 101.268 416.656 101.268ZM393.219 102V102.439C393.316 102.732 393.805 102.879 394.684 102.879C395.562 102.879 396.783 102.586 398.346 102V101.414H397.76C395.611 101.414 394.098 101.609 393.219 102ZM380.035 106.688V106.98H380.182C381.061 106.98 382.379 106.053 384.137 104.197V103.758H383.99C383.014 103.758 381.695 104.734 380.035 106.688ZM400.396 105.662L399.664 106.248L400.104 106.98H402.008L402.447 106.541L401.568 105.662H400.396ZM378.863 117.527L378.424 117.82V120.018H378.57C378.961 119.92 379.156 119.578 379.156 118.992V117.82L378.863 117.527ZM432.037 129.246H431.891V129.539C432.086 130.32 432.281 130.711 432.477 130.711L432.623 129.979C432.428 129.49 432.232 129.246 432.037 129.246ZM428.668 134.373L428.229 134.666V135.105C428.619 136.57 429.01 137.303 429.4 137.303H429.693C429.693 136.033 429.4 135.057 428.814 134.373H428.668ZM385.748 135.252L384.137 135.984V136.717H384.43C385.113 136.717 385.602 136.326 385.895 135.545V135.252H385.748ZM384.137 149.168C384.82 155.027 385.65 157.957 386.627 157.957L388.092 159.861V160.008L386.773 159.861V160.301C388.629 162.84 392.438 165.184 398.199 167.332C398.883 167.723 399.859 168.016 401.129 168.211C402.887 168.211 409.625 165.33 421.344 159.568C422.125 159.08 422.516 158.543 422.516 157.957V157.225C421.637 153.221 420.904 148.533 420.318 143.162L420.025 143.016C420.025 141.941 418.951 141.062 416.803 140.379C409.576 138.328 404.645 137.303 402.008 137.303C394.586 138.963 389.508 141.453 386.773 144.773C385.016 146.531 384.137 147.996 384.137 149.168ZM428.229 139.646L427.789 139.354V139.793H428.229V139.646ZM428.814 142.43H427.936V143.016L428.375 143.455L428.814 143.016V142.43ZM424.127 146.092L423.688 146.531L424.127 147.117L424.713 146.971V146.531L424.273 146.092H424.127ZM429.4 146.531H428.961V146.678C429.156 150.389 429.547 152.244 430.133 152.244L430.426 151.951V151.658C430.426 149.607 430.084 147.898 429.4 146.531ZM423.688 151.219L423.541 151.365V152.244L423.98 152.83H424.127L424.713 152.244V151.365L424.273 151.219H423.688ZM436.139 164.988H435.699V165.867C436.09 167.137 436.529 167.771 437.018 167.771H437.457V167.332C437.066 165.77 436.627 164.988 436.139 164.988ZM382.232 165.428L381.939 165.721V165.867L382.232 166.16H382.965V165.867L382.525 165.428H382.232ZM431.598 167.332L431.158 167.771C431.451 168.455 431.842 168.895 432.33 169.09H432.477L433.062 168.504V168.211L432.33 167.332H431.598ZM410.357 169.383V169.676H410.943C412.311 169.676 414.117 169.09 416.363 167.918V167.771H415.777C412.457 168.162 410.65 168.699 410.357 169.383ZM434.82 169.822L434.527 170.408V170.701L435.113 171.287H435.699L436.139 170.994V170.701L435.406 169.822H434.82ZM398.639 170.994L398.199 171.434C398.395 171.922 398.785 172.166 399.371 172.166C400.445 171.971 400.982 171.727 400.982 171.434V171.287L400.543 170.994H398.639ZM382.672 173.045L382.232 173.631C382.623 174.51 385.064 175.633 389.557 177C391.021 177.684 392.975 178.025 395.416 178.025V177.879C395.416 177.586 393.561 177.049 389.85 176.268C387.701 175.682 385.455 174.607 383.111 173.045H382.672Z" fill="#FF1A1A"/>
<path d="M507.916 77.3906L519.195 75.6328H519.635C521.393 75.6328 525.055 76.2188 530.621 77.3906C537.945 77.3906 547.613 79.3926 559.625 83.3965C564.801 87.4004 568.756 92.1855 571.49 97.752C572.467 100.779 572.955 103.807 572.955 106.834V107.127C572.955 111.521 571.148 116.404 567.535 121.775C565.484 124.412 562.359 126.854 558.16 129.1C557.086 130.174 554.742 131.736 551.129 133.787C549.566 135.057 548.785 135.936 548.785 136.424C557.184 148.631 562.799 156.541 565.631 160.154C568.365 164.842 570.904 167.186 573.248 167.186C580.67 167.576 584.381 168.65 584.381 170.408L585.553 177.293C585.357 177.781 584.967 178.025 584.381 178.025H583.209L575.152 179.93C574.371 178.855 571.295 178.318 565.924 178.318C560.65 178.318 558.014 178.025 558.014 177.439C557.916 175.975 557.477 173.973 556.695 171.434L556.549 170.408V169.822C556.549 168.943 555.182 166.697 552.447 163.084C551.959 160.936 551.422 159.666 550.836 159.275C548.59 156.15 545.27 149.852 540.875 140.379C539.801 139.305 538.922 138.768 538.238 138.768L529.156 140.818C524.957 140.818 522.857 142.088 522.857 144.627V147.117C522.857 159.52 523.785 165.721 525.641 165.721L527.545 165.867H529.156L532.672 165.135C533.258 166.404 533.551 168.504 533.551 171.434L532.965 172.898L533.111 175.535C533.111 176.414 529.693 177.342 522.857 178.318L522.418 178.025L510.992 177.732H502.789C501.812 177.732 501.324 176.512 501.324 174.07V171.58C501.324 167.869 502.203 166.014 503.961 166.014L510.553 164.549L510.846 162.352C510.162 141.062 509.43 127.098 508.648 120.457C508.551 99.0703 508.258 88.377 507.77 88.377L507.184 88.084L497.223 89.9883L496.637 89.8418L496.93 88.5234H495.172V88.084H494.879L495.172 86.3262V85.4473C495.172 84.8613 494.781 83.8848 494 82.5176C495.367 82.3223 496.051 81.9316 496.051 81.3457L495.172 80.1738C495.172 79.4902 499.42 78.5625 507.916 77.3906ZM520.514 78.416L520.074 78.8555L520.514 79.2949H523.004V78.8555L521.1 78.416H520.514ZM523.59 82.0781C522.027 82.1758 521.246 82.4199 521.246 82.8105C521.246 83.2012 521.637 83.3965 522.418 83.3965H522.711C525.348 83.2988 526.764 83.0059 526.959 82.5176L526.52 82.0781H523.59ZM533.404 83.9824L533.99 84.2754H535.455C536.334 84.2754 536.871 84.0312 537.066 83.543C537.066 83.1523 536.48 82.957 535.309 82.957C534.332 82.957 533.697 83.2988 533.404 83.9824ZM551.422 83.9824L551.129 84.1289V84.2754C551.52 84.666 552.057 84.8613 552.74 84.8613V84.7148C552.74 84.5195 552.301 84.2754 551.422 83.9824ZM496.93 86.1797V86.7656L497.369 86.9121C498.053 86.9121 498.639 86.5215 499.127 85.7402V85.0078L498.541 84.4219H497.662C497.271 84.4219 497.027 85.0078 496.93 86.1797ZM556.109 86.0332V86.1797C557.965 87.4492 560.26 89.1094 562.994 91.1602H563.434V90.4277C563.434 88.9629 560.992 87.498 556.109 86.0332ZM521.539 87.791V88.9629L522.711 98.3379C522.125 108.494 521.637 113.963 521.246 114.744L520.514 115.77V117.527L521.539 124.998C521.539 128.514 522.027 130.271 523.004 130.271H523.297C530.719 129.295 534.43 128.416 534.43 127.635C539.41 125.779 542.926 124.266 544.977 123.094C549.273 123.094 554.449 120.066 560.504 114.012C562.164 110.691 562.994 107.615 562.994 104.783V103.172C562.994 102.195 561.627 99.6074 558.893 95.4082C553.912 89.7441 549.176 86.9121 544.684 86.9121L539.703 86.6191C531.891 87.4004 525.836 87.791 521.539 87.791ZM511.432 88.084L510.992 88.5234V91.7461L511.725 99.8027H511.871L512.75 88.377L512.457 88.084H511.432ZM558.453 90.8672L558.16 91.3066L558.893 92.0391H559.332V91.7461L558.746 90.8672H558.453ZM519.781 95.9941L519.635 96.5801V97.166C519.732 97.8496 519.879 98.1914 520.074 98.1914L520.514 97.752V96.5801L520.074 95.9941H519.781ZM515.533 100.828L514.508 110.643L514.947 111.082H515.533L515.973 110.496V102.732C515.973 101.463 515.826 100.828 515.533 100.828ZM567.096 103.904L566.656 104.197V105.223L567.096 105.516H567.242L567.682 105.076V104.49L567.242 103.904H567.096ZM511.871 107.713H511.432V108.152L511.871 108.445H512.164V108.152L511.871 107.713ZM568.121 112.107H567.682V112.84L566.656 115.037V115.623L567.535 116.648C568.219 116.648 568.609 115.623 568.707 113.572C568.609 112.596 568.414 112.107 568.121 112.107ZM564.605 119.432C564.703 119.92 565.045 120.359 565.631 120.75H565.924C566.998 119.871 567.535 118.992 567.535 118.113L567.242 117.967C565.875 117.967 564.996 118.455 564.605 119.432ZM560.65 120.896V121.336H561.236C562.018 121.043 562.408 120.652 562.408 120.164H561.969C561.285 120.164 560.846 120.408 560.65 120.896ZM551.422 123.973V124.412H552.74C553.229 123.826 554.303 123.143 555.963 122.361L556.109 122.215V121.775C554.742 121.775 553.18 122.508 551.422 123.973ZM515.094 122.361L514.654 122.947V123.094L515.094 123.533L515.533 123.094V122.947L515.094 122.361ZM544.684 127.781V128.221C547.418 127.635 549.225 126.707 550.104 125.438V125.291H549.811C546.979 126.17 545.27 127 544.684 127.781ZM556.695 125.291L556.256 125.584V125.877H556.988V125.291H556.695ZM553.912 127.635L554.059 127.781H554.205L555.23 127.195V126.756H555.084C554.4 126.951 554.01 127.244 553.912 127.635ZM538.092 130.271V130.418H539.117C540.484 130.223 541.168 130.027 541.168 129.832L540.875 129.539H540.582C538.922 129.734 538.092 129.979 538.092 130.271ZM532.672 131.443V131.59H533.111C534.674 131.59 535.455 131.346 535.455 130.857V130.564H535.016C534.527 130.564 533.746 130.857 532.672 131.443ZM542.34 132.762L542.633 132.908H542.779C545.221 132.322 546.441 131.785 546.441 131.297L546.295 131.004H546.148C544.098 131.395 542.828 131.98 542.34 132.762ZM545.416 141.551V141.697C545.416 142.479 545.807 143.162 546.588 143.748H547.174V143.455C546.49 142.186 545.904 141.551 545.416 141.551ZM515.533 160.154L514.947 160.74V162.205H515.533L515.826 160.74L515.68 160.154H515.533ZM518.756 168.65V168.797L519.342 169.383H519.635C520.025 169.383 520.318 168.699 520.514 167.332V166.746L520.221 165.867H519.781C519.391 165.867 519.049 166.795 518.756 168.65ZM515.973 166.16H515.68L515.387 168.65V168.797H515.973L516.559 168.357V167.771C516.559 166.795 516.363 166.258 515.973 166.16ZM530.328 169.676L530.182 169.822V170.408H530.328L530.768 169.822V169.676H530.328ZM564.605 170.408L564.02 171.141L564.605 171.873H564.752L565.338 171.141V170.408H564.605ZM578.814 171.141V171.873L579.693 172.02H580.426L580.865 171.58V171.141L580.426 170.701H579.84C579.156 170.799 578.814 170.945 578.814 171.141ZM529.449 173.631L529.742 173.777H530.328L530.914 173.338V173.045L530.621 172.605C529.84 172.605 529.449 172.947 529.449 173.631ZM567.682 172.312H566.07V172.459L566.656 173.045H569.146V172.898C569.049 172.508 568.561 172.312 567.682 172.312ZM579.107 175.096L579.547 175.828H581.451C582.33 175.828 582.867 175.584 583.062 175.096C583.062 174.705 582.672 174.51 581.891 174.51H580.279C579.498 174.705 579.107 174.9 579.107 175.096ZM559.625 175.096L559.332 175.389C559.332 175.779 559.576 175.975 560.064 175.975L560.797 175.682L560.65 175.096H559.625ZM609.137 73.582L614.117 72.8496C617.535 72.8496 620.221 74.6074 622.174 78.123L623.199 82.8105C623.004 84.666 621.93 87.1074 619.977 90.1348C618.707 91.4043 616.754 92.0391 614.117 92.0391C607.965 92.0391 604.156 91.1113 602.691 89.2559C601.227 87.3027 600.543 84.5684 600.641 81.0527C600.25 81.0527 600.055 80.9551 600.055 80.7598V80.4668C602.984 75.877 606.012 73.582 609.137 73.582ZM606.207 77.2441V77.3906C609.527 77 611.188 76.5605 611.188 76.0723L610.455 75.7793C607.623 76.2676 606.207 76.7559 606.207 77.2441ZM608.697 81.4922H608.844L609.723 81.6387H610.016C611.09 81.6387 611.773 81.248 612.066 80.4668L611.92 80.1738H610.162C609.381 80.1738 608.893 80.6133 608.697 81.4922ZM619.244 80.1738L618.805 80.9062V81.4922H618.951L619.391 80.9062V80.1738H619.244ZM615.729 85.0078V85.4473H616.314C616.998 85.4473 617.535 85.1055 617.926 84.4219V83.9824H617.633C616.949 83.9824 616.314 84.3242 615.729 85.0078ZM612.506 87.6445L612.066 88.084V88.377H614.703L615.143 88.084L614.703 87.6445H612.506ZM593.902 101.561H594.342C595.123 102.244 596.1 102.586 597.271 102.586L599.176 101.707C612.457 101.707 619.098 102.098 619.098 102.879L619.244 103.904V106.395C620.123 108.348 620.562 110.203 620.562 111.961V114.305C619.391 130.223 618.609 143.113 618.219 152.977C618.023 153.562 617.828 154.588 617.633 156.053C617.73 156.443 618.17 156.639 618.951 156.639H619.391C624.664 156.639 627.301 157.273 627.301 158.543L627.154 158.836V159.715C628.326 162.059 628.912 165.77 628.912 170.848L629.498 176.707L629.059 177L622.613 177.293H607.965C597.027 177.293 591.559 176.414 591.559 174.656C591.559 173.582 591.266 172.508 590.68 171.434C590.973 170.75 591.461 170.213 592.145 169.822H592.584C592.975 170.213 593.414 170.408 593.902 170.408H594.195C597.027 170.408 600.396 170.164 604.303 169.676V169.383C595.904 168.797 591.705 168.113 591.705 167.332L591.559 166.16V164.549L591.266 160.74C591.266 159.764 594.928 159.275 602.252 159.275C603.229 159.275 603.717 157.078 603.717 152.684L605.475 114.158H605.182C602.447 114.158 601.08 113.963 601.08 113.572C601.08 113.475 601.227 113.328 601.52 113.133C595.66 113.133 592.73 112.449 592.73 111.082C592.34 110.984 592.145 110.594 592.145 109.91L592.877 108.152C592.877 107.762 592.584 107.225 591.998 106.541C592.779 105.76 593.316 104.197 593.609 101.854L593.902 101.561ZM596.246 104.49V105.076H596.979C599.518 105.076 600.787 104.881 600.787 104.49L600.494 103.904H600.055C597.516 103.904 596.246 104.1 596.246 104.49ZM616.168 103.465L615.729 103.904L616.314 104.344H616.607V103.904L616.168 103.465ZM599.469 106.541H596.832V106.98C596.832 107.371 597.516 107.566 598.883 107.566H600.494H600.934H605.768C607.232 107.566 607.965 107.322 607.965 106.834V106.688C607.965 106.199 605.133 106.15 599.469 106.541ZM612.506 106.688L611.188 106.541V106.834C611.871 106.834 612.701 107.322 613.678 108.299H613.971C614.166 108.299 614.264 108.152 614.264 107.859H614.557C614.947 107.859 615.191 108.299 615.289 109.178H615.582L617.633 107.713V106.834L614.557 106.688H612.506ZM611.92 114.891L612.652 117.088L611.627 119.725C612.018 120.604 612.359 121.043 612.652 121.043H612.799L613.092 120.164V119.285C613.092 115.77 613.629 114.012 614.703 114.012L615.143 113.426V112.84L614.703 112.4H613.824C612.555 112.4 611.92 113.23 611.92 114.891ZM607.379 128.807L606.939 147.703C607.037 148.387 607.184 148.729 607.379 148.729C607.672 148.729 607.867 148.289 607.965 147.41L607.818 145.213C608.307 144.725 608.844 142.771 609.43 139.354V138.475L609.137 136.424C609.723 135.936 610.016 135.594 610.016 135.398C609.625 134.324 609.43 133.25 609.43 132.176V131.883C609.82 131.883 610.309 126.414 610.895 115.477C610.602 114.695 610.309 114.305 610.016 114.305C608.551 114.305 607.672 119.139 607.379 128.807ZM614.557 115.916L613.971 116.062V116.941C613.971 117.527 614.215 117.967 614.703 118.26H615.143L615.582 117.674V116.941C615.387 116.453 615.045 116.111 614.557 115.916ZM613.824 139.793H613.092C612.311 143.406 611.92 146.092 611.92 147.85H612.066C612.555 147.85 613.189 145.848 613.971 141.844V140.818L613.824 139.793ZM611.041 153.562V154.588H611.334C611.822 154.393 612.066 153.807 612.066 152.83V151.805H611.627C611.432 151.805 611.236 152.391 611.041 153.562ZM611.334 155.76L610.895 156.346V157.078H611.334L611.92 156.639V156.199L611.48 155.76H611.334ZM623.053 159.275L622.613 159.422C623.199 159.91 624.273 160.203 625.836 160.301V159.861C625.836 159.471 625.201 159.275 623.932 159.275H623.053ZM623.639 165.428L621.881 165.867C622.076 167.039 622.955 167.625 624.518 167.625H624.957V167.186L624.664 166.746C624.664 166.648 625.055 166.355 625.836 165.867V165.135C625.836 164.451 625.641 164.061 625.25 163.963H624.664C624.371 164.061 624.029 164.549 623.639 165.428ZM595.66 164.109L594.635 164.402V164.549C595.416 165.33 598.443 165.77 603.717 165.867H604.742C605.523 165.867 606.012 165.623 606.207 165.135V164.842C602.105 164.354 598.59 164.109 595.66 164.109ZM609.43 165.867L610.016 166.6C610.895 166.6 611.334 166.111 611.334 165.135H610.602C610.016 165.135 609.625 165.379 609.43 165.867ZM623.199 168.797L622.76 169.383V169.676H623.053L623.492 169.09V168.797H623.199ZM611.92 169.676L610.016 169.822H607.965V170.408L610.016 170.555L614.264 170.262V169.822H613.678L611.92 169.676ZM626.861 174.656L626.275 175.096V175.535H627.154L627.301 175.096L627.154 174.656H626.861ZM647.076 103.611C654.303 104.49 657.916 105.809 657.916 107.566L658.648 108.445V110.35L660.26 112.107C659.186 112.986 658.648 113.914 658.648 114.891C658.844 115.379 659.186 115.623 659.674 115.623V115.77L658.795 116.795H657.623C656.646 116.014 655.865 115.623 655.279 115.623C650.104 115.916 649.469 120.164 653.375 128.367C656.207 138.23 658.6 144.383 660.553 146.824C666.021 159.324 669.732 165.77 671.686 166.16H671.979C672.369 166.16 673.492 163.768 675.348 158.982C678.961 152.439 681.842 146.238 683.99 140.379C685.65 137.547 686.48 135.594 686.48 134.52L686.041 133.055C692.486 121.141 692.73 115.33 686.773 115.623L685.016 115.916H684.43C684.137 107.322 685.064 103.025 687.213 103.025C689.557 102.049 695.66 101.561 705.523 101.561C710.016 101.561 712.262 103.221 712.262 106.541C713.336 108.396 713.873 109.568 713.873 110.057C712.311 111.326 711.529 112.791 711.529 114.451L706.109 115.477C705.914 115.867 704.303 119.285 701.275 125.73C700.592 127.781 697.125 134.422 690.875 145.652L686.92 157.811C681.061 169.92 678.033 175.975 677.838 175.975C677.643 175.975 677.545 176.268 677.545 176.854V178.025V178.172C677.545 179.637 676.324 180.516 673.883 180.809L670.953 182.566C669.781 182.566 668.072 181.834 665.826 180.369L658.648 170.262C657.477 165.965 656.402 163.816 655.426 163.816C654.84 163.23 654.01 160.789 652.936 156.492C650.982 153.074 649.127 150.096 647.369 147.557C647.369 147.166 647.613 146.727 648.102 146.238V145.652L645.611 139.646C644.146 134.373 643.072 131.541 642.389 131.15C639.166 121.873 636.969 117.234 635.797 117.234C635.797 117.723 635.162 118.016 633.893 118.113C632.232 118.113 630.279 117.283 628.033 115.623V115.33L628.473 114.598V114.158C628.473 113.963 627.789 113.475 626.422 112.693L626.275 112.4C628.521 111.912 629.645 111.424 629.645 110.936L627.594 109.91L627.447 109.764V109.324L628.473 108.006C628.473 107.615 628.131 107.127 627.447 106.541V106.102C638.775 104.441 645.318 103.611 647.076 103.611ZM642.828 106.102C642.828 106.395 643.609 106.541 645.172 106.541H650.592V106.248C648.932 105.564 647.467 105.223 646.197 105.223H644.439C643.561 105.223 643.023 105.516 642.828 106.102ZM635.797 110.35L635.211 110.789V111.375L635.943 111.668C637.311 111.473 637.994 111.131 637.994 110.643L637.555 110.35H635.797ZM686.627 104.637V105.369L687.066 106.102H687.213C687.213 105.516 692.877 104.979 704.205 104.49L704.498 104.344H704.645V103.904C704.645 103.611 703.863 103.465 702.301 103.465C696.344 103.465 691.119 103.855 686.627 104.637ZM685.309 108.299V109.178C685.309 110.643 685.846 111.375 686.92 111.375H687.066L687.506 110.936V110.789C686.627 108.445 686.041 107.273 685.748 107.273C685.455 107.469 685.309 107.811 685.309 108.299ZM632.135 115.623L631.695 116.062L632.135 116.355H634.039V116.062L632.428 115.623H632.135ZM689.703 108.592L689.264 109.178L689.703 109.471C690.289 109.373 690.582 109.227 690.582 109.031V108.592H689.703ZM705.377 110.35V110.496L707.428 110.936C708.893 110.838 709.625 110.691 709.625 110.496C709.625 110.105 708.99 109.861 707.721 109.764H706.402C705.719 109.764 705.377 109.959 705.377 110.35ZM641.07 119.578H640.631L640.484 120.018C641.266 120.506 641.705 120.701 641.803 120.604C641.998 120.506 641.754 120.164 641.07 119.578ZM697.467 122.508V123.533H697.76C698.346 123.338 699.029 122.215 699.811 120.164C700.104 119.871 700.787 119.725 701.861 119.725L702.008 119.432V118.406L701.715 117.82V117.381L702.447 117.088C702.447 116.209 702.057 115.525 701.275 115.037C699.908 115.037 698.639 117.527 697.467 122.508ZM697.174 127.195H696.881V127.635H697.174V127.195ZM694.83 126.609V127.195H695.416C695.904 127.195 696.393 126.17 696.881 124.119V123.533H696.734V123.24C696.246 123.24 695.611 124.363 694.83 126.609ZM692.047 132.908V133.787H692.633C693.609 132.908 694.098 131.932 694.098 130.857V130.271H693.512C692.535 130.857 692.047 131.736 692.047 132.908ZM647.369 131.15H647.223C647.418 132.322 647.711 132.908 648.102 132.908V132.615C648.004 131.639 647.76 131.15 647.369 131.15ZM689.85 139.061H690.143C691.021 138.182 691.607 137.059 691.9 135.691V135.545C690.826 135.545 690.143 136.717 689.85 139.061ZM689.264 140.818L688.678 141.404L688.971 141.99L689.41 141.258V140.818H689.264ZM687.213 143.016V143.162L687.652 143.455C688.141 143.455 688.385 143.113 688.385 142.43V141.99L687.945 141.404C687.457 141.6 687.213 142.137 687.213 143.016ZM657.477 146.824H657.037V147.264C658.307 151.072 659.381 152.977 660.26 152.977V152.684C659.186 148.973 658.258 147.02 657.477 146.824ZM678.277 169.822H678.717C679.107 169.822 681.402 165.232 685.602 156.053L686.041 153.855V153.709H685.748C684.576 154.49 683.16 157.225 681.5 161.912C679.352 165.916 678.277 168.553 678.277 169.822ZM681.5 154.148H681.061C677.447 160.984 675.641 164.695 675.641 165.281L676.08 165.721C678.814 161.326 680.475 158.055 681.061 155.906C681.354 155.516 681.5 155.027 681.5 154.441V154.148ZM666.266 166.16H665.973V166.307C666.07 167.283 666.803 168.504 668.17 169.969H668.463L668.756 169.822C668.268 168.455 667.438 167.234 666.266 166.16ZM662.311 166.307H662.018V166.746C662.018 167.723 662.945 168.65 664.801 169.529H664.947L665.094 169.383V169.236C664.703 168.26 663.775 167.283 662.311 166.307ZM670.953 169.529V169.822C671.539 171.678 672.369 172.605 673.443 172.605C674.518 170.75 675.055 169.48 675.055 168.797V168.504H674.908C674.615 168.699 673.297 169.041 670.953 169.529ZM678.131 170.848H677.545L673.883 177.293V177.732C675.836 177.732 677.057 175.877 677.545 172.166C677.936 172.166 678.131 171.727 678.131 170.848ZM666.998 171.141L666.559 171.434C667.828 173.191 669.049 174.07 670.221 174.07V173.631C669.439 171.971 668.365 171.141 666.998 171.141ZM665.68 173.924H665.387V174.07L665.826 174.949H666.266V174.51L665.68 173.924ZM747.857 103.465C751.959 103.465 756.939 105.223 762.799 108.738C767.779 112.449 770.27 114.988 770.27 116.355C774.176 124.559 776.129 129.49 776.129 131.15L776.275 132.322C774.811 135.74 774.078 138.084 774.078 139.354L773.199 139.5H760.748C759.576 139.5 758.16 139.646 756.5 139.939C742.438 138.768 732.574 138.182 726.91 138.182H723.834C722.662 139.939 722.076 141.209 722.076 141.99C722.76 143.064 723.102 144.773 723.102 147.117C723.102 150.828 723.688 153.025 724.859 153.709L725.006 154.441V154.588L724.127 154.148V154.588L725.445 156.053C725.445 157.322 726.324 158.934 728.082 160.887C731.305 166.551 734.82 170.066 738.629 171.434C741.852 172.508 745.514 173.045 749.615 173.045C750.299 173.045 751.715 172.41 753.863 171.141C755.621 170.75 759.332 167.576 764.996 161.619V161.18C764.996 160.984 764.312 160.789 762.945 160.594L762.652 159.861C764.898 155.564 767.584 152.732 770.709 151.365C771.588 152.244 773.395 153.611 776.129 155.467C778.277 158.787 781.158 162.693 784.771 167.186V167.771C781.646 171.873 779.4 173.924 778.033 173.924H777.447C777.447 171.775 776.129 170.555 773.492 170.262C773.004 170.262 770.855 171.873 767.047 175.096C764.801 176.854 760.943 178.514 755.475 180.076C749.127 181.346 744.635 181.98 741.998 181.98L733.648 179.051C728.961 179.051 724.664 176.512 720.758 171.434C719.098 169.676 717.73 167.576 716.656 165.135C716.656 164.354 715.582 160.301 713.434 152.977C712.75 150.145 712.408 147.41 712.408 144.773V144.627C712.408 131.639 716.314 120.262 724.127 110.496C725.104 108.055 727.35 106.248 730.865 105.076C733.209 104.393 736.041 103.855 739.361 103.465C740.24 103.074 743.072 103.074 747.857 103.465ZM734.381 106.541V106.688H734.674C736.236 106.688 739.166 106.15 743.463 105.076C744.342 104.979 744.781 104.734 744.781 104.344L744.342 103.904H744.195C741.363 103.904 738.189 104.686 734.674 106.248L734.381 106.541ZM728.521 109.031V109.178L728.961 109.471H729.107C731.061 108.982 732.037 108.494 732.037 108.006V107.127L731.451 106.541H731.158C729.4 107.127 728.521 107.957 728.521 109.031ZM751.08 107.566H746.686V107.859C746.686 108.25 748.688 108.543 752.691 108.738H752.838V108.152C752.838 107.957 752.252 107.762 751.08 107.566ZM740.68 109.764V109.91C740.68 110.301 742.682 110.789 746.686 111.375L746.979 111.229V110.643C746.197 109.568 744.879 109.031 743.023 109.031H742.584C741.314 109.129 740.68 109.373 740.68 109.764ZM749.615 110.643V110.789C755.182 114.012 758.16 115.623 758.551 115.623H758.697L760.162 115.037L761.041 115.33L761.188 115.037V114.891C760.797 114.598 759.967 114.305 758.697 114.012L755.768 112.693C754.986 111.033 753.424 110.203 751.08 110.203H750.641C749.957 110.301 749.615 110.447 749.615 110.643ZM732.184 114.891C733.16 114.109 735.113 113.279 738.043 112.4V112.107L737.896 111.814H736.432C733.6 112.596 732.184 113.621 732.184 114.891ZM724.42 124.559V124.998C724.42 126.072 733.307 127.293 751.08 128.66L752.545 129.1L754.449 128.953C758.355 130.223 760.992 130.857 762.359 130.857C762.359 131.15 762.652 131.395 763.238 131.59C763.824 130.711 764.117 129.881 764.117 129.1V126.316C764.117 125.047 761.676 122.215 756.793 117.82C754.547 115.574 752.008 114.305 749.176 114.012L744.195 113.133C736.09 114.793 730.768 116.795 728.229 119.139C727.154 121.189 725.885 122.996 724.42 124.559ZM726.031 115.77V116.062H726.324C727.594 115.77 728.229 115.428 728.229 115.037V114.891H727.496C727.008 114.891 726.52 115.184 726.031 115.77ZM761.041 117.82C761.236 118.602 761.676 118.992 762.359 118.992H762.652L762.945 118.553V117.674L762.359 116.941C761.48 116.941 761.041 117.234 761.041 117.82ZM723.248 118.553L722.955 118.992V119.139H723.248L723.834 118.699V118.553H723.248ZM764.703 119.725H764.117C765.191 122.947 765.973 124.705 766.461 124.998H767.047L767.486 124.705C766.705 121.58 765.875 120.018 764.996 120.018L764.703 119.725ZM724.566 122.361C725.152 122.264 725.445 121.873 725.445 121.189V121.043C724.859 121.238 724.566 121.678 724.566 122.361ZM769.684 126.316L769.244 126.609V127.635L769.684 128.221C770.074 128.123 770.27 127.781 770.27 127.195V126.609L770.123 126.316H769.684ZM722.955 128.367V128.953L723.248 129.246H723.541C724.225 128.953 724.811 128.416 725.299 127.635V127.195H724.566C723.98 127.195 723.443 127.586 722.955 128.367ZM716.949 127.488C716.168 128.27 715.484 130.223 714.898 133.348H715.191C715.777 133.348 716.656 131.639 717.828 128.221C717.633 127.732 717.34 127.488 716.949 127.488ZM731.891 129.246V129.686C733.746 130.955 737.115 131.59 741.998 131.59H743.316L745.221 131.443V130.857C741.217 129.979 736.773 129.441 731.891 129.246ZM758.697 133.055H758.258V133.494H758.697V133.055ZM730.426 134.227V134.52C732.379 135.008 737.555 135.496 745.953 135.984V136.131V136.277L742.877 136.717C742.877 137.01 744.146 137.156 746.686 137.156C750.787 137.156 752.838 136.961 752.838 136.57C752.838 135.594 745.367 134.812 730.426 134.227ZM715.631 135.252H714.898V136.131C714.898 136.717 715.045 137.01 715.338 137.01C715.826 137.01 716.119 136.521 716.217 135.545L715.631 135.252ZM727.496 135.545L726.764 135.691V136.57H727.496V135.984V135.691V135.545ZM722.809 136.717V136.863H722.955L725.445 136.57V136.277L725.006 135.691H724.566C723.688 135.691 723.102 136.033 722.809 136.717ZM758.404 137.01C758.404 137.4 759.283 137.596 761.041 137.596L762.359 137.449V137.156C762.359 136.766 761.432 136.57 759.576 136.57C758.795 136.766 758.404 136.912 758.404 137.01ZM714.898 140.818V141.258V141.404C714.801 141.697 714.752 142.381 714.752 143.455V144.041C714.752 145.799 715.24 147.361 716.217 148.729H716.363C716.363 144.041 715.875 141.404 714.898 140.818ZM717.535 153.562H717.096V153.855L717.535 154.148H717.828V153.855L717.535 153.562ZM718.561 156.053L718.414 156.199V156.492C718.805 158.055 719.391 158.836 720.172 158.836V158.689V158.396C720.172 157.615 719.635 156.834 718.561 156.053ZM766.314 157.371L766.607 157.811H767.34C767.926 157.811 768.268 157.615 768.365 157.225L767.779 156.639H767.633C766.949 156.639 766.51 156.883 766.314 157.371ZM762.945 165.867L763.238 166.014H763.385C764.459 166.014 765.143 165.379 765.436 164.109V163.816C764.361 163.816 763.531 164.5 762.945 165.867ZM773.199 165.574L773.346 165.721H773.785C774.371 165.33 774.664 164.793 774.664 164.109H774.225C773.541 164.5 773.199 164.988 773.199 165.574ZM778.326 164.109H778.18V164.402C778.473 165.574 778.912 166.16 779.498 166.16H779.645L779.938 165.867V165.721C779.742 164.646 779.205 164.109 778.326 164.109ZM769.83 167.186L770.27 167.479C771.734 166.99 772.467 166.355 772.467 165.574V165.281H772.32C770.953 165.281 770.123 165.916 769.83 167.186ZM758.404 170.408H758.697C759.479 170.115 759.918 169.627 760.016 168.943L759.869 168.797C758.893 169.383 758.404 169.92 758.404 170.408ZM767.047 171.141H767.633C768.609 170.262 769.098 169.627 769.098 169.236H768.951C767.682 169.627 767.047 170.262 767.047 171.141ZM725.445 172.459H725.006V173.045C725.201 173.533 726.031 174.07 727.496 174.656L728.082 175.096C727.008 173.436 726.129 172.557 725.445 172.459ZM735.699 173.045H735.553V173.191C735.553 173.582 736.578 174.021 738.629 174.51L738.775 174.363V174.07C737.506 173.387 736.48 173.045 735.699 173.045ZM744.342 174.656H743.902V175.096H744.342V174.656ZM759.576 176.854C760.553 176.854 761.334 176.121 761.92 174.656H761.48C760.211 175.34 759.576 176.072 759.576 176.854ZM749.322 178.318L746.246 178.025H745.66C744.781 178.025 744.293 178.221 744.195 178.611V178.904L744.781 179.344H747.418C750.445 179.344 754.01 178.807 758.111 177.732C757.916 177.146 757.33 176.854 756.354 176.854H755.621C753.277 176.854 751.178 177.342 749.322 178.318ZM842.926 108.738C846.734 108.738 849.957 111.424 852.594 116.795C853.082 116.795 853.766 117.43 854.645 118.699L856.549 129.539C855.865 130.711 853.277 131.297 848.785 131.297H847.32C843.707 130.711 841.9 129.49 841.9 127.635C841.9 126.268 840.777 124.363 838.531 121.922C838.238 121.434 836.139 121.189 832.232 121.189C828.521 121.189 824.029 122.166 818.756 124.119C815.045 128.025 812.604 131.053 811.432 133.201C812.115 149.9 812.359 160.35 812.164 164.549C812.164 165.428 812.75 165.867 813.922 165.867H817.438C819 165.965 819.781 166.258 819.781 166.746V166.893L820.367 168.797L820.074 177L819.195 178.172L812.311 178.904H811.725L808.795 179.783C797.564 179.393 791.949 178.953 791.949 178.465C789.996 178.465 789.02 177.586 789.02 175.828C788.824 174.07 788.727 172.264 788.727 170.408C788.727 168.553 790.631 167.332 794.439 166.746C794.439 165.965 795.758 165.574 798.395 165.574L798.834 165.428V165.135L797.955 124.998C797.955 122.557 797.32 121.336 796.051 121.336H795.172C794 121.336 792.047 121.873 789.312 122.947L789.02 122.654V122.361C789.02 122.166 789.41 121.922 790.191 121.629V121.336C789.215 121.336 788.727 118.602 788.727 113.133C788.531 113.133 788.385 112.254 788.287 110.496C792.193 107.469 796.295 105.955 800.592 105.955H804.254C805.719 105.955 808.209 106.443 811.725 107.42V107.859C810.846 109.227 810.406 110.203 810.406 110.789V111.814C818.316 108.299 829.156 107.273 842.926 108.738ZM804.547 130.857V131.59C805.035 132.566 805.279 133.592 805.279 134.666C805.182 135.057 805.035 137.059 804.84 140.672L805.133 146.531H805.279C805.572 146.531 805.963 141.99 806.451 132.908C806.646 132.908 806.744 131.932 806.744 129.979C806.646 129.1 806.402 128.66 806.012 128.66H805.719C804.938 129.148 804.547 129.881 804.547 130.857ZM795.758 175.096L793.854 175.242V175.535C793.854 176.023 795.27 176.268 798.102 176.268H802.496L803.521 176.121C803.521 175.633 800.934 175.291 795.758 175.096ZM821.1 115.037V115.33C821.979 115.33 823.15 113.914 824.615 111.082V110.35H824.469C821.93 111.131 820.807 112.693 821.1 115.037ZM839.996 119.725H840.729C841.217 119.627 842.145 118.455 843.512 116.209V116.062C843.512 115.867 843.316 115.77 842.926 115.77C841.266 116.551 840.436 117.576 840.436 118.846C840.338 118.846 840.191 119.139 839.996 119.725ZM806.305 123.094H805.719L804.986 126.17C804.986 126.658 805.279 127.146 805.865 127.635H806.012C806.305 127.635 806.549 126.951 806.744 125.584L806.305 123.094ZM826.666 111.814L827.398 114.744H828.57V111.668L828.131 111.229H827.691C827.008 111.326 826.666 111.521 826.666 111.814ZM794.732 172.752L794.439 173.045L794.586 173.338H802.643V172.898L797.662 172.752H794.732ZM792.096 111.668C792.877 112.449 793.707 112.84 794.586 112.84L794.732 112.547V111.521L794.146 110.789C792.779 110.984 792.096 111.277 792.096 111.668ZM806.891 173.777L807.33 174.217H809.527L810.113 173.631C810.113 173.436 809.869 173.24 809.381 173.045C807.721 173.24 806.891 173.484 806.891 173.777ZM849.078 115.623H848.639V115.916C849.42 116.697 850.104 117.088 850.689 117.088H851.129V116.795C850.348 116.014 849.664 115.623 849.078 115.623ZM798.834 108.738H798.395V109.324L799.273 110.35H800.592V110.057L798.834 108.738ZM794.439 117.381V117.674H794.879C795.953 117.674 796.539 117.479 796.637 117.088L796.344 116.648H796.051C795.172 116.648 794.635 116.893 794.439 117.381ZM831.939 110.496L830.182 110.643V110.789L830.475 111.229H831.939C832.623 111.229 833.014 111.033 833.111 110.643L832.818 110.496H831.939ZM808.795 157.664L808.209 158.104V159.275H808.795L809.381 158.836V157.957L809.088 157.664H808.795ZM791.217 173.631L790.631 173.045L790.338 173.631V174.217L790.631 174.656H791.217V173.631ZM811.725 118.26L811.139 118.406V118.846L811.725 119.285H812.164L812.604 118.846V118.406L811.725 118.26ZM834.869 110.35V110.643H835.895L836.48 110.203L836.041 109.764C835.26 109.959 834.869 110.154 834.869 110.35ZM844.537 110.35L844.244 110.643V110.789L844.537 111.229H845.123L845.416 110.789V110.643L845.123 110.35H844.537ZM808.941 108.885L808.209 109.178V109.764H808.941L809.381 109.178L808.941 108.885ZM808.502 111.521L807.916 111.961V112.254L808.209 112.547L808.941 111.961V111.521H808.502ZM844.098 123.68V123.973H844.391L844.977 123.533V123.094H844.83C844.342 123.387 844.098 123.582 844.098 123.68ZM839.117 110.789L838.531 111.229V111.375H839.264L839.557 111.082V110.789H839.117ZM808.795 160.887H808.502V161.473H808.795V160.887Z" fill="white"/>
<path d="M175.04 264.47V261.59H181.28C183.84 261.59 186.08 261.046 188 259.958C189.952 258.87 191.472 257.318 192.56 255.302C193.648 253.254 194.192 250.854 194.192 248.102C194.192 245.318 193.648 242.918 192.56 240.902C191.472 238.886 189.952 237.318 188 236.198C186.08 235.078 183.84 234.518 181.28 234.518H175.04V231.734H181.712C185.296 231.734 188.416 232.374 191.072 233.654C193.76 234.934 195.84 236.79 197.312 239.222C198.816 241.654 199.568 244.614 199.568 248.102C199.568 251.558 198.816 254.518 197.312 256.982C195.84 259.414 193.76 261.27 191.072 262.55C188.416 263.83 185.296 264.47 181.712 264.47H175.04ZM165.392 264.47V261.974H170V234.23H165.488V231.734H175.04V264.47H165.392ZM217.802 265.046C215.242 265.046 212.97 264.55 210.986 263.558C209.002 262.534 207.434 261.062 206.282 259.142C205.162 257.222 204.602 254.902 204.602 252.182C204.602 249.43 205.162 247.094 206.282 245.174C207.434 243.254 209.002 241.798 210.986 240.806C212.97 239.782 215.242 239.27 217.802 239.27C220.362 239.27 222.618 239.782 224.57 240.806C226.554 241.798 228.106 243.254 229.226 245.174C230.378 247.094 230.954 249.43 230.954 252.182C230.954 254.902 230.378 257.222 229.226 259.142C228.106 261.062 226.554 262.534 224.57 263.558C222.618 264.55 220.362 265.046 217.802 265.046ZM217.802 262.214C219.402 262.214 220.778 261.814 221.93 261.014C223.114 260.182 224.026 259.014 224.666 257.51C225.306 255.974 225.626 254.134 225.626 251.99C225.626 249.942 225.306 248.182 224.666 246.71C224.026 245.238 223.114 244.102 221.93 243.302C220.778 242.502 219.402 242.102 217.802 242.102C216.234 242.102 214.858 242.502 213.674 243.302C212.49 244.102 211.562 245.254 210.89 246.758C210.25 248.262 209.93 250.07 209.93 252.182C209.93 254.294 210.25 256.102 210.89 257.606C211.562 259.078 212.49 260.214 213.674 261.014C214.858 261.814 216.234 262.214 217.802 262.214ZM244.475 273.398C241.979 273.398 240.059 272.95 238.715 272.054C237.371 271.19 236.699 269.91 236.699 268.214C236.699 267.19 236.987 266.326 237.563 265.622C238.171 264.95 238.923 264.438 239.819 264.086C240.715 263.702 241.643 263.494 242.603 263.462L242.747 263.846C242.427 264.038 242.075 264.294 241.691 264.614C241.307 264.934 240.987 265.302 240.731 265.718C240.475 266.166 240.347 266.678 240.347 267.254C240.347 268.406 240.747 269.302 241.547 269.942C242.347 270.614 243.563 270.95 245.195 270.95H251.531C252.747 270.95 253.723 270.758 254.459 270.374C255.195 270.022 255.723 269.542 256.043 268.934C256.363 268.358 256.523 267.734 256.523 267.062C256.523 266.038 256.251 265.27 255.707 264.758C255.163 264.278 254.315 264.038 253.163 264.038H241.931C239.883 264.038 238.219 263.542 236.939 262.55C235.691 261.526 235.067 260.182 235.067 258.518C235.067 257.302 235.355 256.278 235.931 255.446C236.539 254.614 237.339 253.99 238.331 253.574C239.355 253.126 240.475 252.902 241.691 252.902L241.835 254.15C240.907 254.214 240.139 254.502 239.531 255.014C238.923 255.526 238.619 256.246 238.619 257.174C238.619 258.038 238.923 258.726 239.531 259.238C240.171 259.75 241.035 260.006 242.123 260.006H253.931C256.171 260.006 257.883 260.518 259.067 261.542C260.251 262.534 260.843 263.91 260.843 265.67C260.843 267.142 260.491 268.454 259.787 269.606C259.115 270.758 258.059 271.67 256.619 272.342C255.211 273.046 253.403 273.398 251.195 273.398H244.475ZM247.691 255.83C245.611 255.83 243.787 255.51 242.219 254.87C240.683 254.198 239.483 253.254 238.619 252.038C237.755 250.822 237.323 249.382 237.323 247.718C237.323 245.222 238.267 243.254 240.155 241.814C242.075 240.342 244.635 239.606 247.835 239.606L253.595 242.342C254.715 242.694 255.691 243.366 256.523 244.358C257.355 245.318 257.771 246.598 257.771 248.198C257.771 250.502 256.875 252.358 255.083 253.766C253.291 255.142 250.827 255.83 247.691 255.83ZM247.691 253.382C249.387 253.382 250.715 252.87 251.675 251.846C252.667 250.822 253.163 249.446 253.163 247.718C253.163 246.022 252.667 244.662 251.675 243.638C250.715 242.582 249.387 242.054 247.691 242.054C246.059 242.054 244.747 242.582 243.755 243.638C242.763 244.662 242.267 246.022 242.267 247.718C242.267 249.446 242.747 250.822 243.707 251.846C244.699 252.87 246.027 253.382 247.691 253.382ZM253.595 242.342L247.835 239.606H260.747V242.342H253.595ZM285.976 264.47V261.974H292.024V231.734H297.064V261.974H303.064V264.47H285.976ZM278.104 242.918V234.518H284.776C283.368 234.518 282.392 234.822 281.848 235.43C281.304 236.038 281.032 237.078 281.032 238.55V242.918H278.104ZM278.104 234.518V231.734H310.936V234.518H278.104ZM308.008 238.55C308.008 237.078 307.736 236.038 307.192 235.43C306.68 234.822 305.72 234.518 304.312 234.518H310.936V242.918H308.008V238.55ZM314.93 264.47V261.974H319.202V242.39H315.314V239.894H323.522V248.15L324.05 248.054V261.974H330.146V264.47H314.93ZM322.466 249.542C322.498 247.142 322.898 245.19 323.666 243.686C324.466 242.15 325.538 241.03 326.882 240.326C328.226 239.59 329.762 239.222 331.49 239.222C333.346 239.19 334.834 239.638 335.954 240.566C337.074 241.462 337.634 242.71 337.634 244.31C337.634 245.302 337.346 246.118 336.77 246.758C336.194 247.398 335.426 247.718 334.466 247.718C333.634 247.718 332.962 247.494 332.45 247.046C331.97 246.566 331.73 245.974 331.73 245.27C331.73 244.406 332.034 243.75 332.642 243.302C333.282 242.854 334.194 242.662 335.378 242.726L334.994 244.358C334.93 243.43 334.53 242.726 333.794 242.246C333.058 241.734 332.082 241.478 330.866 241.478C329.618 241.478 328.466 241.782 327.41 242.39C326.386 242.998 325.57 243.91 324.962 245.126C324.354 246.31 324.05 247.782 324.05 249.542H322.466ZM345.818 248.342C344.986 248.342 344.234 248.102 343.562 247.622C342.89 247.11 342.554 246.31 342.554 245.222C342.554 243.942 343.05 242.87 344.042 242.006C345.034 241.142 346.314 240.502 347.882 240.086C349.482 239.638 351.178 239.414 352.97 239.414C355.882 239.414 358.122 240.006 359.69 241.19C361.29 242.374 362.09 244.166 362.09 246.566L357.53 245.894C357.53 244.582 357.05 243.574 356.09 242.87C355.162 242.166 353.786 241.814 351.962 241.814C350.842 241.814 349.786 241.958 348.794 242.246C347.802 242.502 346.97 242.918 346.298 243.494C345.658 244.07 345.306 244.822 345.242 245.75L345.194 243.686C346.218 243.718 347.034 243.926 347.642 244.31C348.25 244.662 348.538 245.238 348.506 246.038C348.506 246.742 348.266 247.302 347.786 247.718C347.306 248.134 346.65 248.342 345.818 248.342ZM364.058 264.95C362.106 264.95 360.602 264.406 359.546 263.318C358.522 262.198 358.01 260.63 358.01 258.614V256.742H357.482V249.83H357.242L357.53 247.766V245.894L362.09 246.566V258.95C362.09 259.782 362.282 260.47 362.666 261.014C363.082 261.526 363.706 261.782 364.538 261.782C365.338 261.782 365.946 261.526 366.362 261.014C366.778 260.47 366.986 259.782 366.986 258.95V251.174H370.01V258.662C370.01 260.614 369.498 262.15 368.474 263.27C367.482 264.39 366.01 264.95 364.058 264.95ZM348.89 264.95C346.49 264.95 344.538 264.374 343.034 263.222C341.53 262.038 340.778 260.422 340.778 258.374C340.778 256.902 341.098 255.702 341.738 254.774C342.378 253.846 343.258 253.094 344.378 252.518C345.53 251.942 346.842 251.51 348.314 251.222L352.346 250.358C353.338 250.134 354.218 249.862 354.986 249.542C355.786 249.19 356.41 248.726 356.858 248.15C357.306 247.574 357.53 246.822 357.53 245.894L357.674 249.83H357.482C357.194 250.502 356.666 251.062 355.898 251.51C355.162 251.926 354.202 252.278 353.018 252.566L350.858 253.046C349.898 253.27 349.018 253.558 348.218 253.91C347.45 254.262 346.842 254.726 346.394 255.302C345.946 255.846 345.722 256.566 345.722 257.462C345.722 258.742 346.17 259.734 347.066 260.438C347.994 261.11 349.21 261.446 350.714 261.446C351.93 261.446 353.05 261.19 354.074 260.678C355.098 260.166 355.914 259.334 356.522 258.182C357.162 256.998 357.482 255.446 357.482 253.526L358.778 253.67C358.778 256.358 358.346 258.534 357.482 260.198C356.618 261.862 355.434 263.078 353.93 263.846C352.458 264.582 350.778 264.95 348.89 264.95ZM372.868 264.47V261.974H377.14V242.39H373.252V239.894H381.988V261.974H385.828V264.47H372.868ZM379.3 236.534C378.372 236.534 377.604 236.262 376.996 235.718C376.388 235.142 376.084 234.39 376.084 233.462C376.084 232.534 376.372 231.814 376.948 231.302C377.556 230.758 378.34 230.486 379.3 230.486C380.26 230.486 381.028 230.758 381.604 231.302C382.212 231.814 382.516 232.55 382.516 233.51C382.516 234.406 382.212 235.142 381.604 235.718C381.028 236.262 380.26 236.534 379.3 236.534ZM406.131 264.47V261.974H409.875V247.814C409.875 246.086 409.395 244.822 408.435 244.022C407.507 243.222 406.259 242.822 404.691 242.822C403.539 242.822 402.451 243.094 401.427 243.638C400.435 244.182 399.619 245.03 398.979 246.182C398.371 247.302 398.067 248.79 398.067 250.646H396.963C396.963 248.118 397.315 246.038 398.019 244.406C398.723 242.742 399.779 241.51 401.187 240.71C402.595 239.91 404.355 239.51 406.467 239.51C408.867 239.51 410.835 240.15 412.371 241.43C413.907 242.71 414.675 244.79 414.675 247.67V261.974H418.275V264.47H406.131ZM388.899 264.47V261.974H393.171V242.39H389.283V239.894H397.539V248.342L398.067 248.246V261.974H401.811V264.47H388.899ZM421.196 264.47V261.974H425.468V242.39H421.58V239.894H430.316V261.974H434.156V264.47H421.196ZM427.628 236.534C426.7 236.534 425.932 236.262 425.324 235.718C424.716 235.142 424.412 234.39 424.412 233.462C424.412 232.534 424.7 231.814 425.276 231.302C425.884 230.758 426.668 230.486 427.628 230.486C428.588 230.486 429.356 230.758 429.932 231.302C430.54 231.814 430.844 232.55 430.844 233.51C430.844 234.406 430.54 235.142 429.932 235.718C429.356 236.262 428.588 236.534 427.628 236.534ZM454.459 264.47V261.974H458.203V247.814C458.203 246.086 457.723 244.822 456.763 244.022C455.835 243.222 454.587 242.822 453.019 242.822C451.867 242.822 450.779 243.094 449.755 243.638C448.763 244.182 447.947 245.03 447.307 246.182C446.699 247.302 446.395 248.79 446.395 250.646H445.291C445.291 248.118 445.643 246.038 446.347 244.406C447.051 242.742 448.107 241.51 449.515 240.71C450.923 239.91 452.683 239.51 454.795 239.51C457.195 239.51 459.163 240.15 460.699 241.43C462.235 242.71 463.003 244.79 463.003 247.67V261.974H466.603V264.47H454.459ZM437.227 264.47V261.974H441.499V242.39H437.611V239.894H445.867V248.342L446.395 248.246V261.974H450.139V264.47H437.227ZM479.507 273.398C477.011 273.398 475.091 272.95 473.747 272.054C472.403 271.19 471.731 269.91 471.731 268.214C471.731 267.19 472.019 266.326 472.595 265.622C473.203 264.95 473.955 264.438 474.851 264.086C475.747 263.702 476.675 263.494 477.635 263.462L477.779 263.846C477.459 264.038 477.107 264.294 476.723 264.614C476.339 264.934 476.019 265.302 475.763 265.718C475.507 266.166 475.379 266.678 475.379 267.254C475.379 268.406 475.779 269.302 476.579 269.942C477.379 270.614 478.595 270.95 480.227 270.95H486.563C487.779 270.95 488.755 270.758 489.491 270.374C490.227 270.022 490.755 269.542 491.075 268.934C491.395 268.358 491.555 267.734 491.555 267.062C491.555 266.038 491.283 265.27 490.739 264.758C490.195 264.278 489.347 264.038 488.195 264.038H476.963C474.915 264.038 473.251 263.542 471.971 262.55C470.723 261.526 470.099 260.182 470.099 258.518C470.099 257.302 470.387 256.278 470.963 255.446C471.571 254.614 472.371 253.99 473.363 253.574C474.387 253.126 475.507 252.902 476.723 252.902L476.867 254.15C475.939 254.214 475.171 254.502 474.563 255.014C473.955 255.526 473.651 256.246 473.651 257.174C473.651 258.038 473.955 258.726 474.563 259.238C475.203 259.75 476.067 260.006 477.155 260.006H488.963C491.203 260.006 492.915 260.518 494.099 261.542C495.283 262.534 495.875 263.91 495.875 265.67C495.875 267.142 495.523 268.454 494.819 269.606C494.147 270.758 493.091 271.67 491.651 272.342C490.243 273.046 488.435 273.398 486.227 273.398H479.507ZM482.723 255.83C480.643 255.83 478.819 255.51 477.251 254.87C475.715 254.198 474.515 253.254 473.651 252.038C472.787 250.822 472.355 249.382 472.355 247.718C472.355 245.222 473.299 243.254 475.187 241.814C477.107 240.342 479.667 239.606 482.867 239.606L488.627 242.342C489.747 242.694 490.723 243.366 491.555 244.358C492.387 245.318 492.803 246.598 492.803 248.198C492.803 250.502 491.907 252.358 490.115 253.766C488.323 255.142 485.859 255.83 482.723 255.83ZM482.723 253.382C484.419 253.382 485.747 252.87 486.707 251.846C487.699 250.822 488.195 249.446 488.195 247.718C488.195 246.022 487.699 244.662 486.707 243.638C485.747 242.582 484.419 242.054 482.723 242.054C481.091 242.054 479.779 242.582 478.787 243.638C477.795 244.662 477.299 246.022 477.299 247.718C477.299 249.446 477.779 250.822 478.739 251.846C479.731 252.87 481.059 253.382 482.723 253.382ZM488.627 242.342L482.867 239.606H495.779V242.342H488.627ZM530.608 265.046C528.272 265.046 526.064 264.662 523.984 263.894C521.904 263.094 520.128 261.878 518.656 260.246C517.216 258.614 516.24 256.534 515.728 254.006H517.216C517.984 255.798 518.992 257.302 520.24 258.518C521.52 259.734 522.992 260.646 524.656 261.254C526.32 261.83 528.112 262.118 530.032 262.118C532.432 262.118 534.272 261.622 535.552 260.63C536.864 259.638 537.52 258.214 537.52 256.358C537.52 255.078 537.168 254.054 536.464 253.286C535.792 252.518 534.864 251.942 533.68 251.558C532.528 251.142 531.264 250.838 529.888 250.646L526 250.022C523.728 249.702 521.68 249.174 519.856 248.438C518.032 247.67 516.592 246.63 515.536 245.318C514.48 243.974 513.952 242.278 513.952 240.23C513.952 238.15 514.432 236.438 515.392 235.094C516.384 233.75 517.744 232.758 519.472 232.118C521.2 231.478 523.168 231.158 525.376 231.158C527.584 231.158 529.632 231.51 531.52 232.214C533.44 232.918 535.072 234.054 536.416 235.622C537.792 237.19 538.72 239.238 539.2 241.766H537.856C536.864 239.142 535.296 237.206 533.152 235.958C531.04 234.678 528.672 234.038 526.048 234.038C523.68 234.038 521.84 234.486 520.528 235.382C519.248 236.278 518.608 237.638 518.608 239.462C518.608 240.678 518.928 241.67 519.568 242.438C520.208 243.174 521.072 243.75 522.16 244.166C523.28 244.55 524.512 244.838 525.856 245.03L529.744 245.654C532.144 245.974 534.272 246.502 536.128 247.238C538.016 247.974 539.504 248.998 540.592 250.31C541.712 251.59 542.272 253.302 542.272 255.446C542.272 257.558 541.792 259.334 540.832 260.774C539.872 262.182 538.512 263.254 536.752 263.99C535.024 264.694 532.976 265.046 530.608 265.046ZM514.096 264.47V254.006H515.728L517.168 256.886V264.47H514.096ZM539.2 241.766L537.904 239.03V231.734H540.928V241.766H539.2ZM559.405 264.998C556.973 264.998 554.829 264.502 552.973 263.51C551.149 262.518 549.725 261.062 548.701 259.142C547.677 257.222 547.165 254.902 547.165 252.182C547.165 249.43 547.677 247.094 548.701 245.174C549.725 243.254 551.149 241.798 552.973 240.806C554.797 239.814 556.909 239.318 559.309 239.318L559.453 242.006C557.917 242.006 556.589 242.374 555.469 243.11C554.349 243.814 553.485 244.902 552.877 246.374C552.269 247.814 551.965 249.638 551.965 251.846C551.965 254.79 552.701 257.126 554.173 258.854C555.677 260.55 557.693 261.398 560.221 261.398C561.821 261.398 563.117 261.126 564.109 260.582C565.133 260.006 565.917 259.318 566.461 258.518C567.037 257.686 567.437 256.87 567.661 256.07H570.637C570.541 257.094 570.237 258.15 569.725 259.238C569.245 260.294 568.541 261.254 567.613 262.118C566.717 262.982 565.597 263.686 564.253 264.23C562.909 264.742 561.293 264.998 559.405 264.998ZM549.517 251.942V249.35H566.221L570.973 250.694V251.942H549.517ZM566.221 249.35C566.189 248.006 565.901 246.774 565.357 245.654C564.845 244.502 564.093 243.606 563.101 242.966C562.141 242.326 560.925 242.006 559.453 242.006L559.309 239.318C561.837 239.318 563.965 239.798 565.693 240.758C567.453 241.718 568.765 243.062 569.629 244.79C570.525 246.486 570.973 248.454 570.973 250.694L566.221 249.35ZM575.227 264.47V261.974H579.499V242.39H575.611V239.894H583.819V248.15L584.347 248.054V261.974H590.443V264.47H575.227ZM582.763 249.542C582.795 247.142 583.195 245.19 583.963 243.686C584.763 242.15 585.835 241.03 587.179 240.326C588.523 239.59 590.059 239.222 591.787 239.222C593.643 239.19 595.131 239.638 596.251 240.566C597.371 241.462 597.931 242.71 597.931 244.31C597.931 245.302 597.643 246.118 597.067 246.758C596.491 247.398 595.723 247.718 594.763 247.718C593.931 247.718 593.259 247.494 592.747 247.046C592.267 246.566 592.027 245.974 592.027 245.27C592.027 244.406 592.331 243.75 592.939 243.302C593.579 242.854 594.491 242.662 595.675 242.726L595.291 244.358C595.227 243.43 594.827 242.726 594.091 242.246C593.355 241.734 592.379 241.478 591.163 241.478C589.915 241.478 588.763 241.782 587.707 242.39C586.683 242.998 585.867 243.91 585.259 245.126C584.651 246.31 584.347 247.782 584.347 249.542H582.763ZM612.609 264.614L603.25 242.39H600.706V239.894H613.042V242.39H608.434L616.066 261.398H614.674L622.594 242.39H617.986V239.894H628.498V242.39H625.954L616.594 264.614H612.609ZM630.914 264.47V261.974H635.186V242.39H631.298V239.894H640.034V261.974H643.874V264.47H630.914ZM637.346 236.534C636.418 236.534 635.65 236.262 635.042 235.718C634.434 235.142 634.13 234.39 634.13 233.462C634.13 232.534 634.418 231.814 634.994 231.302C635.602 230.758 636.386 230.486 637.346 230.486C638.306 230.486 639.074 230.758 639.65 231.302C640.258 231.814 640.562 232.55 640.562 233.51C640.562 234.406 640.258 235.142 639.65 235.718C639.074 236.262 638.306 236.534 637.346 236.534ZM660.003 265.046C657.603 265.046 655.459 264.55 653.571 263.558C651.683 262.566 650.211 261.11 649.155 259.19C648.099 257.27 647.571 254.918 647.571 252.134C647.571 249.382 648.115 247.062 649.203 245.174C650.291 243.286 651.795 241.846 653.715 240.854C655.667 239.862 657.891 239.366 660.387 239.366L661.059 241.91C659.299 241.91 657.763 242.31 656.451 243.11C655.171 243.878 654.179 244.982 653.475 246.422C652.771 247.83 652.419 249.542 652.419 251.558C652.419 253.51 652.771 255.222 653.475 256.694C654.179 258.134 655.155 259.254 656.403 260.054C657.683 260.854 659.187 261.254 660.915 261.254C662.099 261.254 663.123 261.078 663.987 260.726C664.883 260.342 665.619 259.862 666.195 259.286C666.803 258.71 667.267 258.086 667.587 257.414C667.907 256.71 668.099 256.038 668.163 255.398H671.043C671.011 256.582 670.755 257.75 670.275 258.902C669.795 260.054 669.091 261.094 668.163 262.022C667.267 262.95 666.131 263.686 664.755 264.23C663.379 264.774 661.795 265.046 660.003 265.046ZM667.443 249.638C666.579 249.638 665.875 249.414 665.331 248.966C664.819 248.486 664.563 247.894 664.563 247.19C664.563 246.358 664.899 245.734 665.571 245.318C666.275 244.902 667.139 244.694 668.163 244.694L668.019 246.422C667.795 245.654 667.395 244.934 666.819 244.262C666.275 243.558 665.539 242.998 664.611 242.582C663.683 242.134 662.499 241.91 661.059 241.91L660.387 239.366C662.595 239.366 664.451 239.702 665.955 240.374C667.491 241.046 668.675 241.91 669.507 242.966C670.339 243.99 670.755 245.11 670.755 246.326C670.755 247.35 670.451 248.166 669.843 248.774C669.235 249.35 668.435 249.638 667.443 249.638ZM688.03 264.998C685.598 264.998 683.454 264.502 681.598 263.51C679.774 262.518 678.35 261.062 677.326 259.142C676.302 257.222 675.79 254.902 675.79 252.182C675.79 249.43 676.302 247.094 677.326 245.174C678.35 243.254 679.774 241.798 681.598 240.806C683.422 239.814 685.534 239.318 687.934 239.318L688.078 242.006C686.542 242.006 685.214 242.374 684.094 243.11C682.974 243.814 682.11 244.902 681.502 246.374C680.894 247.814 680.59 249.638 680.59 251.846C680.59 254.79 681.326 257.126 682.798 258.854C684.302 260.55 686.318 261.398 688.846 261.398C690.446 261.398 691.742 261.126 692.734 260.582C693.758 260.006 694.542 259.318 695.086 258.518C695.662 257.686 696.062 256.87 696.286 256.07H699.262C699.166 257.094 698.862 258.15 698.35 259.238C697.87 260.294 697.166 261.254 696.238 262.118C695.342 262.982 694.222 263.686 692.878 264.23C691.534 264.742 689.918 264.998 688.03 264.998ZM678.142 251.942V249.35H694.846L699.598 250.694V251.942H678.142ZM694.846 249.35C694.814 248.006 694.526 246.774 693.982 245.654C693.47 244.502 692.718 243.606 691.726 242.966C690.766 242.326 689.55 242.006 688.078 242.006L687.934 239.318C690.462 239.318 692.59 239.798 694.318 240.758C696.078 241.718 697.39 243.062 698.254 244.79C699.15 246.486 699.598 248.454 699.598 250.694L694.846 249.35ZM718.109 264.902C716.381 264.902 714.781 264.614 713.309 264.038C711.869 263.43 710.653 262.502 709.661 261.254C708.701 260.006 708.077 258.374 707.789 256.358H708.797C709.437 257.83 710.205 258.982 711.101 259.814C712.029 260.646 713.021 261.238 714.077 261.59C715.133 261.942 716.173 262.118 717.197 262.118C718.797 262.118 720.045 261.782 720.941 261.11C721.837 260.438 722.285 259.51 722.285 258.326C722.285 257.494 722.045 256.822 721.565 256.31C721.117 255.798 720.509 255.398 719.741 255.11C718.973 254.79 718.125 254.55 717.197 254.39L713.885 253.766C712.189 253.446 710.701 252.998 709.421 252.422C708.141 251.814 707.149 251.014 706.445 250.022C705.741 249.03 705.389 247.766 705.389 246.23C705.389 243.99 706.157 242.294 707.693 241.142C709.229 239.99 711.181 239.414 713.549 239.414C715.181 239.414 716.685 239.702 718.061 240.278C719.469 240.822 720.637 241.702 721.565 242.918C722.525 244.102 723.133 245.67 723.389 247.622H722.381C721.837 246.214 721.117 245.11 720.221 244.31C719.325 243.51 718.365 242.95 717.341 242.63C716.317 242.31 715.357 242.15 714.461 242.15C713.021 242.15 711.869 242.454 711.005 243.062C710.141 243.67 709.709 244.55 709.709 245.702C709.709 246.534 709.901 247.206 710.285 247.718C710.701 248.198 711.293 248.582 712.061 248.87C712.829 249.126 713.725 249.35 714.749 249.542L718.013 250.166C719.549 250.454 720.973 250.886 722.285 251.462C723.597 252.006 724.653 252.774 725.453 253.766C726.253 254.758 726.653 256.054 726.653 257.654C726.653 259.99 725.869 261.782 724.301 263.03C722.765 264.278 720.701 264.902 718.109 264.902ZM705.725 264.47V256.358H707.789L708.797 257.99V264.47H705.725ZM723.389 247.622L722.429 246.038V239.846H725.453V247.622H723.389Z" fill="white"/>
</svg>
