<svg width="926" height="474" viewBox="0 0 926 474" fill="none" xmlns="http://www.w3.org/2000/svg">
<path d="M69.9277 74.2584H71.9785L72.7109 73.9654L73.4434 74.2584H74.9082C80.7676 74.2584 87.6523 75.6256 95.5625 78.36C103.375 82.1685 108.014 84.9029 109.479 86.5631L116.51 91.3971C117.389 92.276 117.926 92.8619 118.121 93.1549V93.4478H117.975C114.947 91.2994 113.092 90.2252 112.408 90.2252H112.262L111.822 90.5182V90.6646C111.822 91.9342 113.287 93.4967 116.217 95.3521L122.223 102.676C123.395 105.118 125.055 109.073 127.203 114.542C128.18 116.69 129.01 117.764 129.693 117.764L130.279 117.178V116.885C130.279 116.397 130.035 115.909 129.547 115.421L130.279 114.542H130.719C133.258 123.624 134.527 130.069 134.527 133.878L135.113 143.253L134.967 144.131H134.234H133.941C132.574 145.987 131.5 148.672 130.719 152.188C126.031 158.731 123.688 162.588 123.688 163.76H123.834C125.299 163.76 126.91 161.905 128.668 158.194L129.4 158.047L129.547 158.194C127.691 162.393 126.178 164.493 125.006 164.493C119.439 169.473 113.58 173.77 107.428 177.383C104.596 179.825 100.934 181.583 96.4414 182.657C90.9727 183.145 87.457 183.829 85.8945 184.708L84.7227 185.001C82.5742 184.512 76.666 183.878 66.998 183.096C65.1426 182.51 62.457 182.217 58.9414 182.217C57.7695 182.217 56.9395 182.413 56.4512 182.803C56.0605 182.803 55.1816 182.12 53.8145 180.753H53.2285C52.9355 180.753 52.5938 181.534 52.2031 183.096H51.9102V183.243C51.1289 183.047 50.7383 182.12 50.7383 180.46L51.1777 169.913H51.0312V169.62C51.2266 169.131 51.5684 168.887 52.0566 168.887L57.7695 169.473H58.3555C58.9414 169.473 59.625 169.376 60.4062 169.18L66.8516 170.792L67.4375 170.206V169.473L66.998 167.422C67.291 165.958 67.4375 163.126 67.4375 158.926C67.4375 153.458 66.9492 150.723 65.9727 150.723L65.8262 149.991C66.3145 131.436 67.1445 115.128 68.3164 101.065C68.9023 97.94 69.1953 95.7428 69.1953 94.4732V93.1549C69.1953 91.2994 68.3652 90.3717 66.7051 90.3717H61.7246C61.627 90.3717 61.5781 90.6646 61.5781 91.2506L60.8457 91.3971L50.5918 90.9576L46.9297 91.3971L46.4902 90.8111V83.9264C46.4902 79.7271 46.9785 77.6275 47.9551 77.6275C49.3223 76.5533 51.4707 76.0162 54.4004 76.0162C58.9902 74.8443 64.166 74.2584 69.9277 74.2584ZM73.1504 75.4303L66.2656 76.0162L66.7051 76.4557H69.9277C72.2715 76.4557 73.4434 76.2115 73.4434 75.7232L73.1504 75.4303ZM58.9414 76.8951C59.1367 77.3834 60.9922 77.8228 64.5078 78.2135H65.6797L65.9727 77.6275C64.6055 76.5533 63.6777 76.0162 63.1895 76.0162C60.3574 76.2115 58.9414 76.5045 58.9414 76.8951ZM81.5 78.5064L81.207 78.7994C82.9648 79.6783 83.9902 80.1178 84.2832 80.1178H84.7227L85.1621 79.8248C84.2832 78.9459 83.3066 78.5064 82.2324 78.5064H81.5ZM51.1777 79.9713L50.7383 80.5572V80.8502C50.9336 81.6314 51.0801 82.0221 51.1777 82.0221H51.6172C52.2031 81.4361 52.7891 81.1432 53.375 81.1432L55.2793 81.2896V80.8502L52.6426 79.9713H51.1777ZM88.0918 80.2643H87.5059V80.7037H88.0918V80.2643ZM94.3906 80.5572H93.5117V80.7037C94.1953 81.192 98.0039 82.901 104.938 85.8307L106.549 87.149H106.988C106.988 85.7818 103.424 83.6334 96.2949 80.7037L94.3906 80.5572ZM69.6348 82.901V83.0475C69.6348 84.024 72.125 84.5123 77.1055 84.5123C78.082 83.5357 78.8145 83.0475 79.3027 83.0475C81.2559 83.0475 82.2324 82.901 82.2324 82.608V82.1685L81.207 82.0221H80.7676L75.9336 82.608C74.957 82.1197 74.1758 81.8756 73.5898 81.8756H73.1504C70.8066 81.9732 69.6348 82.315 69.6348 82.901ZM92.4863 83.3404H92.0469V83.4869C92.4375 83.8775 94.6348 84.9029 98.6387 86.5631H99.0781L99.6641 85.8307C99.6641 85.1471 97.2715 84.317 92.4863 83.3404ZM54.2539 83.9264L53.8145 84.3658L54.2539 84.8053H54.6934L54.9863 84.3658L54.6934 83.9264H54.2539ZM102.301 86.2701H101.275C101.275 86.9537 100.738 87.2955 99.6641 87.2955V87.8814C99.7617 88.0768 101.422 88.9557 104.645 90.5182L104.352 90.9576C104.547 91.5435 105.133 92.0318 106.109 92.4225H106.988L108.307 91.8365L109.771 92.1295V91.8365C109.771 91.7389 108.697 91.3482 106.549 90.6646V90.5182C106.549 90.3228 106.695 90.2252 106.988 90.2252L107.281 89.9322V89.7857C105.328 87.8326 103.668 86.6607 102.301 86.2701ZM52.4961 87.149L52.0566 87.5885L54.1074 88.0279H54.2539V87.8814C53.9609 87.3932 53.5215 87.149 52.9355 87.149H52.4961ZM55.7188 88.1744L56.1582 88.7603H57.0371C57.5254 88.7603 57.8672 88.5162 58.0625 88.0279V87.735H57.1836C56.4023 87.735 55.9141 87.8814 55.7188 88.1744ZM79.0098 93.0084L79.5957 101.358C79.5957 107.315 79.2539 110.294 78.5703 110.294C78.1797 108.536 77.8867 107.657 77.6914 107.657C77.3008 107.754 77.1055 108.145 77.1055 108.829V112.491C77.1055 113.858 77.3496 114.542 77.8379 114.542L78.8633 114.249L79.0098 114.542C78.7168 115.909 78.5703 118.546 78.5703 122.452L79.1562 143.546C79.1562 155.85 78.082 164.932 75.9336 170.792V171.671C75.9336 172.452 79.9863 173.282 88.0918 174.161C93.2676 174.161 99.4199 172.208 106.549 168.301C112.408 163.126 115.631 159.463 116.217 157.315C117.486 155.264 118.854 149.796 120.318 140.909V139.59C120.318 130.118 119.732 124.307 118.561 122.159L112.408 107.51C108.795 101.944 105.426 98.526 102.301 97.2564C89.9961 92.3736 83.502 89.9322 82.8184 89.9322C80.2793 91.1041 79.0098 92.1295 79.0098 93.0084ZM71.0996 90.8111C71.0996 91.3971 71.4902 91.69 72.2715 91.69H72.5645L73.2969 90.8111V90.3717H71.3926C71.1973 90.3717 71.0996 90.5182 71.0996 90.8111ZM96.7344 90.9576V91.2506C97.9062 92.5201 98.9805 93.1549 99.957 93.1549V92.4225C98.3945 91.4459 97.3203 90.9576 96.7344 90.9576ZM109.625 93.8873V94.1803C109.82 94.5709 110.455 95.108 111.529 95.7916H111.969V95.6451C111.969 94.8639 111.188 94.2779 109.625 93.8873ZM119.732 96.0846H119.879C120.953 96.2799 122.662 98.7701 125.006 103.555C126.373 104.922 127.057 105.899 127.057 106.485V106.924H126.764C125.787 106.924 124.566 105.411 123.102 102.383C123.102 101.504 121.979 99.4049 119.732 96.0846ZM110.65 97.5494V98.2818C111.139 99.0631 112.506 100.284 114.752 101.944H115.191L115.484 101.504V101.065C113.727 98.233 112.75 96.817 112.555 96.817H111.969C111.383 96.817 110.943 97.0611 110.65 97.5494ZM70.3672 102.09L70.6602 103.702V105.167L71.0996 105.753H71.3926C71.7832 105.753 71.9785 104.629 71.9785 102.383C71.9785 100.137 71.7832 98.4283 71.3926 97.2564H71.0996C70.8066 97.2564 70.5625 98.8678 70.3672 102.09ZM126.764 107.95V107.657H127.057C128.814 109.903 129.693 111.807 129.693 113.37V113.809H129.4C128.619 113.809 127.74 111.856 126.764 107.95ZM119.146 108.389H118.414V110.147C119.391 114.639 121.051 118.204 123.395 120.84H123.688C122.125 114.883 120.611 110.733 119.146 108.389ZM69.9277 109.415H69.6348L69.1953 111.172V111.612H69.6348L69.9277 110.147V109.415ZM78.5703 111.612L79.0098 111.465H79.3027V111.905L79.0098 112.344H78.5703V111.612ZM68.4629 132.999V134.756C68.4629 137.393 68.6094 139.444 68.9023 140.909H69.4883L70.6602 127.286C70.6602 123.672 70.3184 119.18 69.6348 113.809C68.8535 113.809 68.4629 120.206 68.4629 132.999ZM128.521 120.254L128.082 120.547V120.84L128.229 121.133C127.838 121.915 127.643 122.598 127.643 123.184L128.961 127.579H129.547C130.133 126.309 130.426 125.333 130.426 124.649V123.624C129.938 121.378 129.352 120.254 128.668 120.254H128.521ZM123.688 130.948H123.102L122.809 131.827V134.61C122.809 138.126 122.32 141.495 121.344 144.717V145.157L121.637 145.303H122.223C123.004 145.303 123.736 143.936 124.42 141.202C124.811 140.811 125.006 140.176 125.006 139.297V136.514C125.006 132.803 124.566 130.948 123.688 130.948ZM134.527 147.208V146.622H134.674L134.967 147.794C134.967 148.672 133.746 151.553 131.305 156.436L130.719 156.876H130.426C130.914 155.118 132.281 151.895 134.527 147.208ZM122.516 153.946V154.092H122.809C123.492 154.092 124.469 153.458 125.738 152.188V152.042C125.738 151.163 125.494 150.626 125.006 150.43H124.859C123.297 151.993 122.516 153.165 122.516 153.946ZM76.959 154.092H76.373L76.2266 155.997V156.29L76.373 157.169H76.5195L76.959 156.729V154.092ZM116.07 164.493V165.225H116.656C121.637 161.124 124.371 157.852 124.859 155.411V155.118C121.148 156.876 118.219 160.001 116.07 164.493ZM70.5137 166.251L70.6602 167.276H70.9531C71.7344 167.276 72.1738 166.934 72.2715 166.251C71.8809 161.465 71.4902 159.073 71.0996 159.073C70.709 159.073 70.5137 161.465 70.5137 166.251ZM110.504 166.837L110.65 167.276H111.236C111.627 167.178 112.018 166.837 112.408 166.251V165.665C112.408 165.567 112.213 165.518 111.822 165.518C111.334 165.518 110.895 165.958 110.504 166.837ZM109.479 166.983L108.893 167.422L109.186 167.862H109.625L110.064 167.422V166.983H109.479ZM96.1484 177.09V177.383H96.4414C100.641 177.383 107.232 174.503 116.217 168.741L116.51 168.448V168.301C110.26 170.254 105.865 172.11 103.326 173.868C99.3223 175.137 96.9297 176.212 96.1484 177.09ZM54.1074 170.792L53.5215 171.378L53.8145 172.403C53.2285 174.063 52.9355 175.333 52.9355 176.212V176.651L53.5215 177.383H53.8145L54.4004 176.651V174.747C54.4004 173.672 54.791 173.135 55.5723 173.135H57.1836L57.623 172.842V172.256C57.623 171.28 56.6953 170.792 54.8398 170.792H54.1074ZM61.7246 172.842L61.2852 173.135V173.428L61.7246 173.868H62.6035L63.043 173.575C62.8477 173.087 62.4082 172.842 61.7246 172.842ZM63.4824 176.212V176.504C63.4824 177.09 66.0215 178.116 71.0996 179.581L75.3477 180.02C76.7148 179.825 77.3984 179.581 77.3984 179.288V178.848C69.3906 177.09 64.752 176.212 63.4824 176.212ZM56.1582 176.212L55.7188 176.651L56.1582 177.09L56.5977 176.504V176.212H56.1582ZM81.207 177.823L80.7676 178.116C80.7676 178.604 82.5742 178.897 86.1875 178.995H88.0918L88.3848 178.848V178.555C88.3848 178.067 87.3105 177.823 85.1621 177.823H81.207ZM97.0273 178.555H98.9316L99.5176 177.969V177.823H98.9316C97.6621 177.921 97.0273 178.165 97.0273 178.555ZM79.7422 179.288H79.1562V179.581H79.7422V179.288ZM86.1875 181.631L81.207 182.217V182.657C82.9648 183.243 84.2832 183.536 85.1621 183.536H85.8945C87.2617 183.536 87.9941 183.096 88.0918 182.217C87.7012 181.827 87.0664 181.631 86.1875 181.631ZM157.232 98.7213L175.396 98.2818C176.959 98.2818 180.23 98.9654 185.211 100.333C190.875 105.704 194.244 109.903 195.318 112.93C197.467 115.176 199.176 119.62 200.445 126.26C202.008 127.823 202.789 131.29 202.789 136.661L202.936 140.323L202.35 154.825C202.35 157.754 204.156 161.368 207.77 165.665C211.09 168.887 213.238 170.499 214.215 170.499V170.792C214.215 171.963 212.506 173.819 209.088 176.358C206.549 178.897 204.938 180.167 204.254 180.167H204.107C202.545 179.971 198.59 177.09 192.242 171.524C180.719 176.016 174.908 178.311 174.811 178.409C171.002 179.581 166.754 180.167 162.066 180.167H161.334C156.061 179.288 151.568 177.237 147.857 174.014C147.174 173.428 145.758 170.987 143.609 166.69C141.852 164.542 140.973 161.905 140.973 158.78V154.532C140.973 151.797 141.705 149.258 143.17 146.915C144.439 142.911 146.637 139.102 149.762 135.489C151.324 133.633 152.887 132.462 154.449 131.973C159.527 129.239 164.557 127.872 169.537 127.872L176.129 127.725H177.008C180.719 127.725 183.355 128.262 184.918 129.337H185.797C186.285 129.337 186.529 129.141 186.529 128.751C185.455 124.161 183.697 119.766 181.256 115.567C179.107 111.954 175.104 110.147 169.244 110.147L163.238 109.268C158.062 110.342 155.475 111.417 155.475 112.491C153.424 115.128 152.203 118.399 151.812 122.305C151.617 122.794 149.859 123.038 146.539 123.038L145.66 123.331C145.27 123.331 144.781 124.161 144.195 125.821C141.461 125.43 140.094 124.844 140.094 124.063C140.289 123.477 140.631 119.962 141.119 113.516C142.682 109.024 146.393 104.874 152.252 101.065C154.986 99.5025 156.646 98.7213 157.232 98.7213ZM173.639 101.212L173.346 101.651L173.785 102.237H174.664L174.811 101.944L174.371 101.212H173.639ZM184.771 102.383H184.479V102.676C185.26 103.458 185.943 103.848 186.529 103.848H186.676V103.555C185.895 102.774 185.26 102.383 184.771 102.383ZM161.334 103.116V103.555C161.432 103.848 161.92 103.995 162.799 103.995C163.678 103.995 164.898 103.702 166.461 103.116V102.53H165.875C163.727 102.53 162.213 102.725 161.334 103.116ZM148.15 107.803V108.096H148.297C149.176 108.096 150.494 107.169 152.252 105.313V104.874H152.105C151.129 104.874 149.811 105.85 148.15 107.803ZM168.512 106.778L167.779 107.364L168.219 108.096H170.123L170.562 107.657L169.684 106.778H168.512ZM146.979 118.643L146.539 118.936V121.133H146.686C147.076 121.036 147.271 120.694 147.271 120.108V118.936L146.979 118.643ZM200.152 130.362H200.006V130.655C200.201 131.436 200.396 131.827 200.592 131.827L200.738 131.094C200.543 130.606 200.348 130.362 200.152 130.362ZM196.783 135.489L196.344 135.782V136.221C196.734 137.686 197.125 138.419 197.516 138.419H197.809C197.809 137.149 197.516 136.172 196.93 135.489H196.783ZM153.863 136.368L152.252 137.1V137.833H152.545C153.229 137.833 153.717 137.442 154.01 136.661V136.368H153.863ZM152.252 150.284C152.936 156.143 153.766 159.073 154.742 159.073L156.207 160.977V161.124L154.889 160.977V161.417C156.744 163.956 160.553 166.299 166.314 168.448C166.998 168.838 167.975 169.131 169.244 169.327C171.002 169.327 177.74 166.446 189.459 160.684C190.24 160.196 190.631 159.659 190.631 159.073V158.34C189.752 154.337 189.02 149.649 188.434 144.278L188.141 144.131C188.141 143.057 187.066 142.178 184.918 141.495C177.691 139.444 172.76 138.419 170.123 138.419C162.701 140.079 157.623 142.569 154.889 145.889C153.131 147.647 152.252 149.112 152.252 150.284ZM196.344 140.762L195.904 140.469V140.909H196.344V140.762ZM196.93 143.546H196.051V144.131L196.49 144.571L196.93 144.131V143.546ZM192.242 147.208L191.803 147.647L192.242 148.233L192.828 148.087V147.647L192.389 147.208H192.242ZM197.516 147.647H197.076V147.794C197.271 151.504 197.662 153.36 198.248 153.36L198.541 153.067V152.774C198.541 150.723 198.199 149.014 197.516 147.647ZM191.803 152.335L191.656 152.481V153.36L192.096 153.946H192.242L192.828 153.36V152.481L192.389 152.335H191.803ZM204.254 166.104H203.814V166.983C204.205 168.253 204.645 168.887 205.133 168.887H205.572V168.448C205.182 166.885 204.742 166.104 204.254 166.104ZM150.348 166.544L150.055 166.837V166.983L150.348 167.276H151.08V166.983L150.641 166.544H150.348ZM199.713 168.448L199.273 168.887C199.566 169.571 199.957 170.01 200.445 170.206H200.592L201.178 169.62V169.327L200.445 168.448H199.713ZM178.473 170.499V170.792H179.059C180.426 170.792 182.232 170.206 184.479 169.034V168.887H183.893C180.572 169.278 178.766 169.815 178.473 170.499ZM202.936 170.938L202.643 171.524V171.817L203.229 172.403H203.814L204.254 172.11V171.817L203.521 170.938H202.936ZM166.754 172.11L166.314 172.549C166.51 173.038 166.9 173.282 167.486 173.282C168.561 173.087 169.098 172.842 169.098 172.549V172.403L168.658 172.11H166.754ZM150.787 174.161L150.348 174.747C150.738 175.626 153.18 176.749 157.672 178.116C159.137 178.799 161.09 179.141 163.531 179.141V178.995C163.531 178.702 161.676 178.165 157.965 177.383C155.816 176.797 153.57 175.723 151.227 174.161H150.787ZM272.369 109.854C276.178 109.854 279.4 112.54 282.037 117.911C282.525 117.911 283.209 118.546 284.088 119.815L285.992 130.655C285.309 131.827 282.721 132.413 278.229 132.413H276.764C273.15 131.827 271.344 130.606 271.344 128.751C271.344 127.383 270.221 125.479 267.975 123.038C267.682 122.549 265.582 122.305 261.676 122.305C257.965 122.305 253.473 123.282 248.199 125.235C244.488 129.141 242.047 132.169 240.875 134.317C241.559 151.016 241.803 161.465 241.607 165.665C241.607 166.544 242.193 166.983 243.365 166.983H246.881C248.443 167.081 249.225 167.374 249.225 167.862V168.008L249.811 169.913L249.518 178.116L248.639 179.288L241.754 180.02H241.168L238.238 180.899C227.008 180.508 221.393 180.069 221.393 179.581C219.439 179.581 218.463 178.702 218.463 176.944C218.268 175.186 218.17 173.379 218.17 171.524C218.17 169.669 220.074 168.448 223.883 167.862C223.883 167.081 225.201 166.69 227.838 166.69L228.277 166.544V166.251L227.398 126.114C227.398 123.672 226.764 122.452 225.494 122.452H224.615C223.443 122.452 221.49 122.989 218.756 124.063L218.463 123.77V123.477C218.463 123.282 218.854 123.038 219.635 122.745V122.452C218.658 122.452 218.17 119.717 218.17 114.249C217.975 114.249 217.828 113.37 217.73 111.612C221.637 108.585 225.738 107.071 230.035 107.071H233.697C235.162 107.071 237.652 107.559 241.168 108.536V108.975C240.289 110.342 239.85 111.319 239.85 111.905V112.93C247.76 109.415 258.6 108.389 272.369 109.854ZM233.99 131.973V132.706C234.479 133.682 234.723 134.708 234.723 135.782C234.625 136.172 234.479 138.174 234.283 141.788L234.576 147.647H234.723C235.016 147.647 235.406 143.106 235.895 134.024C236.09 134.024 236.188 133.047 236.188 131.094C236.09 130.215 235.846 129.776 235.455 129.776H235.162C234.381 130.264 233.99 130.997 233.99 131.973ZM225.201 176.212L223.297 176.358V176.651C223.297 177.139 224.713 177.383 227.545 177.383H231.939L232.965 177.237C232.965 176.749 230.377 176.407 225.201 176.212ZM250.543 116.153V116.446C251.422 116.446 252.594 115.03 254.059 112.198V111.465H253.912C251.373 112.247 250.25 113.809 250.543 116.153ZM269.439 120.84H270.172C270.66 120.743 271.588 119.571 272.955 117.325V117.178C272.955 116.983 272.76 116.885 272.369 116.885C270.709 117.667 269.879 118.692 269.879 119.962C269.781 119.962 269.635 120.254 269.439 120.84ZM235.748 124.21H235.162L234.43 127.286C234.43 127.774 234.723 128.262 235.309 128.751H235.455C235.748 128.751 235.992 128.067 236.188 126.7L235.748 124.21ZM256.109 112.93L256.842 115.86H258.014V112.784L257.574 112.344H257.135C256.451 112.442 256.109 112.637 256.109 112.93ZM224.176 173.868L223.883 174.161L224.029 174.454H232.086V174.014L227.105 173.868H224.176ZM221.539 112.784C222.32 113.565 223.15 113.956 224.029 113.956L224.176 113.663V112.637L223.59 111.905C222.223 112.1 221.539 112.393 221.539 112.784ZM236.334 174.893L236.773 175.333H238.971L239.557 174.747C239.557 174.551 239.312 174.356 238.824 174.161C237.164 174.356 236.334 174.6 236.334 174.893ZM278.521 116.739H278.082V117.032C278.863 117.813 279.547 118.204 280.133 118.204H280.572V117.911C279.791 117.129 279.107 116.739 278.521 116.739ZM228.277 109.854H227.838V110.44L228.717 111.465H230.035V111.172L228.277 109.854ZM223.883 118.497V118.79H224.322C225.396 118.79 225.982 118.594 226.08 118.204L225.787 117.764H225.494C224.615 117.764 224.078 118.008 223.883 118.497ZM261.383 111.612L259.625 111.758V111.905L259.918 112.344H261.383C262.066 112.344 262.457 112.149 262.555 111.758L262.262 111.612H261.383ZM238.238 158.78L237.652 159.219V160.391H238.238L238.824 159.952V159.073L238.531 158.78H238.238ZM220.66 174.747L220.074 174.161L219.781 174.747V175.333L220.074 175.772H220.66V174.747ZM241.168 119.376L240.582 119.522V119.962L241.168 120.401H241.607L242.047 119.962V119.522L241.168 119.376ZM264.312 111.465V111.758H265.338L265.924 111.319L265.484 110.879C264.703 111.075 264.312 111.27 264.312 111.465ZM273.98 111.465L273.688 111.758V111.905L273.98 112.344H274.566L274.859 111.905V111.758L274.566 111.465H273.98ZM238.385 110.001L237.652 110.294V110.879H238.385L238.824 110.294L238.385 110.001ZM237.945 112.637L237.359 113.077V113.37L237.652 113.663L238.385 113.077V112.637H237.945ZM273.541 124.796V125.088H273.834L274.42 124.649V124.21H274.273C273.785 124.503 273.541 124.698 273.541 124.796ZM268.561 111.905L267.975 112.344V112.491H268.707L269 112.198V111.905H268.561ZM238.238 162.003H237.945V162.588H238.238V162.003ZM311.627 110.587L315.729 110.294C316.998 116.446 316.949 119.62 315.582 119.815C314.312 119.815 316.07 125.43 320.855 136.661C323.004 142.032 324.713 145.938 325.982 148.379C328.814 155.313 330.67 158.78 331.549 158.78C331.842 158.78 332.33 159.366 333.014 160.538L333.16 160.831H334.771C335.846 160.831 337.652 156.583 340.191 148.087C349.664 130.313 352.35 121.378 348.248 121.28C348.053 121.28 347.809 121.329 347.516 121.426C348.102 117.52 348.248 114.2 347.955 111.465L348.688 110.879C361.383 111.172 367.73 111.661 367.73 112.344C368.219 112.344 368.463 114.835 368.463 119.815C367.779 122.745 366.9 124.21 365.826 124.21C364.752 124.112 364.166 124.112 364.068 124.21C363.971 124.307 364.215 124.454 364.801 124.649H363.775C359.967 131.094 358.062 135.294 358.062 137.247C356.891 142.032 355.377 145.352 353.521 147.208C350.494 155.997 348.15 162.051 346.49 165.372C345.807 166.153 345.123 168.692 344.439 172.989L338.141 183.243C335.113 190.079 330.963 196.622 325.689 202.872L318.512 207.706C315.582 208.487 313.287 208.878 311.627 208.878C304.4 208.878 300.787 208.145 300.787 206.68C300.006 206.192 299.371 204.825 298.883 202.579C297.418 201.114 295.611 195.987 293.463 187.198V186.905C293.463 185.928 294.439 185.44 296.393 185.44C298.053 185.44 300.982 184.561 305.182 182.803C306.451 182.803 308.209 187.296 310.455 196.28C311.139 198.331 311.676 199.356 312.066 199.356H313.238C314.02 199.063 314.801 197.891 315.582 195.84C316.168 195.84 318.121 193.301 321.441 188.223C322.906 185.098 324.469 182.217 326.129 179.581L326.568 177.823V174.893C326.471 173.428 325.445 171.231 323.492 168.301C321.539 164.981 319.977 161.856 318.805 158.926C314.215 146.622 308.99 135.196 303.131 124.649C302.74 124.258 302.301 124.063 301.812 124.063L292.877 124.503L292.438 124.063L292.145 119.229L291.852 112.93L294.488 111.758L308.99 110.294L311.627 110.587ZM352.936 114.542L351.178 114.102L354.547 115.567L356.598 115.128H356.891L359.381 115.421V115.128C359.381 114.737 358.404 114.444 356.451 114.249H354.254C353.375 114.249 352.936 114.346 352.936 114.542ZM363.189 114.102L362.896 114.395V114.542C363.092 114.932 363.385 115.176 363.775 115.274L366.412 114.981V114.542C366.314 114.249 365.973 114.102 365.387 114.102H363.189ZM293.902 119.815L293.609 119.962V121.133L294.342 121.719H296.246C298.297 121.622 299.322 121.329 299.322 120.84C299.322 120.45 297.516 120.108 293.902 119.815ZM307.379 121.426L306.939 121.719C306.939 122.891 307.623 124.405 308.99 126.26H309.137V124.649C309.137 122.989 308.697 121.915 307.818 121.426H307.379ZM361.139 119.229V119.522L361.725 120.108C365.143 119.327 366.852 118.692 366.852 118.204L366.412 117.764H365.826C362.994 118.057 361.432 118.546 361.139 119.229ZM359.088 118.497L358.648 118.79V119.522C358.941 120.108 359.527 120.401 360.406 120.401L360.553 120.254V119.522L359.527 118.497H359.088ZM358.502 123.477H357.77V124.21H358.502V123.477ZM357.916 127.725H357.477C353.668 135.147 351.568 139.004 351.178 139.297V140.323C351.178 140.713 351.617 141.397 352.496 142.374L351.471 145.303H351.764C353.131 143.253 355.084 138.174 357.623 130.069L357.916 127.725ZM336.529 169.034V169.766H337.262C338.824 169.766 340.826 165.079 343.268 155.704C343.268 155.508 343.756 154.971 344.732 154.092C344.732 153.311 345.025 152.774 345.611 152.481V152.335L345.172 151.163C345.66 150.186 345.66 150.137 345.172 151.016C344.977 151.407 344.586 152.139 344 153.213C342.535 155.85 341.217 158.243 340.045 160.391C339.654 161.758 338.482 164.639 336.529 169.034ZM320.709 146.915H320.562V147.208C322.613 152.872 323.834 155.704 324.225 155.704H324.371V155.411C322.516 149.747 321.295 146.915 320.709 146.915ZM346.344 159.952H346.49C348.053 159.952 349.322 156.241 350.299 148.819H350.152C349.762 148.819 349.273 150.04 348.688 152.481C347.32 155.801 346.539 158.292 346.344 159.952ZM319.977 152.774L319.537 153.213V153.653L319.977 153.946L320.562 153.653V153.506L319.977 152.774ZM324.371 156.436L323.932 156.876V157.169L324.811 157.901C325.104 157.901 325.25 157.754 325.25 157.462C325.055 157.071 324.811 156.729 324.518 156.436H324.371ZM335.064 179.288V179.581H335.797C336.48 179.581 337.848 177.139 339.898 172.256V172.11C338.531 172.11 336.92 174.503 335.064 179.288ZM329.498 174.747V174.893H329.645C330.426 174.893 330.816 174.551 330.816 173.868V172.989H330.23C329.742 173.184 329.498 173.77 329.498 174.747ZM333.746 184.561L332.574 186.319L332.721 186.758C333.6 186.075 334.039 185.342 334.039 184.561H333.746ZM300.348 187.491L299.908 187.93C300.689 189.004 301.129 189.981 301.227 190.86L302.398 192.032L302.984 191.885V191.153C302.984 189.688 302.35 188.467 301.08 187.491H300.348ZM319.537 196.866V197.012C320.514 197.012 321.49 195.792 322.467 193.35H322.174C321.002 193.936 320.123 195.108 319.537 196.866ZM303.277 194.669H302.984V195.108C302.984 196.182 303.375 196.963 304.156 197.452L304.596 197.159V196.866C304.596 196.085 304.156 195.352 303.277 194.669ZM323.053 199.942L321.734 201.7L322.027 201.993H322.174C324.811 200.626 326.373 199.258 326.861 197.891C326.471 197.501 326.08 197.305 325.689 197.305H325.104C324.225 197.305 323.541 198.184 323.053 199.942ZM307.232 200.235H306.354V200.674L306.939 201.407H308.258L308.697 201.114C308.697 200.626 308.209 200.333 307.232 200.235ZM314.264 203.018L316.9 204.922H317.486C317.877 204.825 318.072 204.434 318.072 203.751V203.018C317.975 202.725 317.584 202.579 316.9 202.579H315.582C314.703 202.579 314.264 202.725 314.264 203.018ZM309.137 204.337L308.99 204.776C309.283 205.46 309.918 205.801 310.895 205.801H312.945L313.238 205.362V205.215C313.238 204.727 312.652 204.434 311.48 204.337H309.137ZM389.117 98.7213L407.281 98.2818C408.844 98.2818 412.115 98.9654 417.096 100.333C422.76 105.704 426.129 109.903 427.203 112.93C429.352 115.176 431.061 119.62 432.33 126.26C433.893 127.823 434.674 131.29 434.674 136.661L434.82 140.323L434.234 154.825C434.234 157.754 436.041 161.368 439.654 165.665C442.975 168.887 445.123 170.499 446.1 170.499V170.792C446.1 171.963 444.391 173.819 440.973 176.358C438.434 178.897 436.822 180.167 436.139 180.167H435.992C434.43 179.971 430.475 177.09 424.127 171.524C412.604 176.016 406.793 178.311 406.695 178.409C402.887 179.581 398.639 180.167 393.951 180.167H393.219C387.945 179.288 383.453 177.237 379.742 174.014C379.059 173.428 377.643 170.987 375.494 166.69C373.736 164.542 372.857 161.905 372.857 158.78V154.532C372.857 151.797 373.59 149.258 375.055 146.915C376.324 142.911 378.521 139.102 381.646 135.489C383.209 133.633 384.771 132.462 386.334 131.973C391.412 129.239 396.441 127.872 401.422 127.872L408.014 127.725H408.893C412.604 127.725 415.24 128.262 416.803 129.337H417.682C418.17 129.337 418.414 129.141 418.414 128.751C417.34 124.161 415.582 119.766 413.141 115.567C410.992 111.954 406.988 110.147 401.129 110.147L395.123 109.268C389.947 110.342 387.359 111.417 387.359 112.491C385.309 115.128 384.088 118.399 383.697 122.305C383.502 122.794 381.744 123.038 378.424 123.038L377.545 123.331C377.154 123.331 376.666 124.161 376.08 125.821C373.346 125.43 371.979 124.844 371.979 124.063C372.174 123.477 372.516 119.962 373.004 113.516C374.566 109.024 378.277 104.874 384.137 101.065C386.871 99.5025 388.531 98.7213 389.117 98.7213ZM405.523 101.212L405.23 101.651L405.67 102.237H406.549L406.695 101.944L406.256 101.212H405.523ZM416.656 102.383H416.363V102.676C417.145 103.458 417.828 103.848 418.414 103.848H418.561V103.555C417.779 102.774 417.145 102.383 416.656 102.383ZM393.219 103.116V103.555C393.316 103.848 393.805 103.995 394.684 103.995C395.562 103.995 396.783 103.702 398.346 103.116V102.53H397.76C395.611 102.53 394.098 102.725 393.219 103.116ZM380.035 107.803V108.096H380.182C381.061 108.096 382.379 107.169 384.137 105.313V104.874H383.99C383.014 104.874 381.695 105.85 380.035 107.803ZM400.396 106.778L399.664 107.364L400.104 108.096H402.008L402.447 107.657L401.568 106.778H400.396ZM378.863 118.643L378.424 118.936V121.133H378.57C378.961 121.036 379.156 120.694 379.156 120.108V118.936L378.863 118.643ZM432.037 130.362H431.891V130.655C432.086 131.436 432.281 131.827 432.477 131.827L432.623 131.094C432.428 130.606 432.232 130.362 432.037 130.362ZM428.668 135.489L428.229 135.782V136.221C428.619 137.686 429.01 138.419 429.4 138.419H429.693C429.693 137.149 429.4 136.172 428.814 135.489H428.668ZM385.748 136.368L384.137 137.1V137.833H384.43C385.113 137.833 385.602 137.442 385.895 136.661V136.368H385.748ZM384.137 150.284C384.82 156.143 385.65 159.073 386.627 159.073L388.092 160.977V161.124L386.773 160.977V161.417C388.629 163.956 392.438 166.299 398.199 168.448C398.883 168.838 399.859 169.131 401.129 169.327C402.887 169.327 409.625 166.446 421.344 160.684C422.125 160.196 422.516 159.659 422.516 159.073V158.34C421.637 154.337 420.904 149.649 420.318 144.278L420.025 144.131C420.025 143.057 418.951 142.178 416.803 141.495C409.576 139.444 404.645 138.419 402.008 138.419C394.586 140.079 389.508 142.569 386.773 145.889C385.016 147.647 384.137 149.112 384.137 150.284ZM428.229 140.762L427.789 140.469V140.909H428.229V140.762ZM428.814 143.546H427.936V144.131L428.375 144.571L428.814 144.131V143.546ZM424.127 147.208L423.688 147.647L424.127 148.233L424.713 148.087V147.647L424.273 147.208H424.127ZM429.4 147.647H428.961V147.794C429.156 151.504 429.547 153.36 430.133 153.36L430.426 153.067V152.774C430.426 150.723 430.084 149.014 429.4 147.647ZM423.688 152.335L423.541 152.481V153.36L423.98 153.946H424.127L424.713 153.36V152.481L424.273 152.335H423.688ZM436.139 166.104H435.699V166.983C436.09 168.253 436.529 168.887 437.018 168.887H437.457V168.448C437.066 166.885 436.627 166.104 436.139 166.104ZM382.232 166.544L381.939 166.837V166.983L382.232 167.276H382.965V166.983L382.525 166.544H382.232ZM431.598 168.448L431.158 168.887C431.451 169.571 431.842 170.01 432.33 170.206H432.477L433.062 169.62V169.327L432.33 168.448H431.598ZM410.357 170.499V170.792H410.943C412.311 170.792 414.117 170.206 416.363 169.034V168.887H415.777C412.457 169.278 410.65 169.815 410.357 170.499ZM434.82 170.938L434.527 171.524V171.817L435.113 172.403H435.699L436.139 172.11V171.817L435.406 170.938H434.82ZM398.639 172.11L398.199 172.549C398.395 173.038 398.785 173.282 399.371 173.282C400.445 173.087 400.982 172.842 400.982 172.549V172.403L400.543 172.11H398.639ZM382.672 174.161L382.232 174.747C382.623 175.626 385.064 176.749 389.557 178.116C391.021 178.799 392.975 179.141 395.416 179.141V178.995C395.416 178.702 393.561 178.165 389.85 177.383C387.701 176.797 385.455 175.723 383.111 174.161H382.672Z" fill="#FF1A1A"/>
<path d="M507.916 78.5064L519.195 76.7486H519.635C521.393 76.7486 525.055 77.3346 530.621 78.5064C537.945 78.5064 547.613 80.5084 559.625 84.5123C564.801 88.5162 568.756 93.3014 571.49 98.8678C572.467 101.895 572.955 104.922 572.955 107.95V108.243C572.955 112.637 571.148 117.52 567.535 122.891C565.484 125.528 562.359 127.969 558.16 130.215C557.086 131.29 554.742 132.852 551.129 134.903C549.566 136.172 548.785 137.051 548.785 137.54C557.184 149.747 562.799 157.657 565.631 161.27C568.365 165.958 570.904 168.301 573.248 168.301C580.67 168.692 584.381 169.766 584.381 171.524L585.553 178.409C585.357 178.897 584.967 179.141 584.381 179.141H583.209L575.152 181.046C574.371 179.971 571.295 179.434 565.924 179.434C560.65 179.434 558.014 179.141 558.014 178.555C557.916 177.09 557.477 175.088 556.695 172.549L556.549 171.524V170.938C556.549 170.059 555.182 167.813 552.447 164.2C551.959 162.051 551.422 160.782 550.836 160.391C548.59 157.266 545.27 150.967 540.875 141.495C539.801 140.421 538.922 139.883 538.238 139.883L529.156 141.934C524.957 141.934 522.857 143.204 522.857 145.743V148.233C522.857 160.635 523.785 166.837 525.641 166.837L527.545 166.983H529.156L532.672 166.251C533.258 167.52 533.551 169.62 533.551 172.549L532.965 174.014L533.111 176.651C533.111 177.53 529.693 178.458 522.857 179.434L522.418 179.141L510.992 178.848H502.789C501.812 178.848 501.324 177.628 501.324 175.186V172.696C501.324 168.985 502.203 167.129 503.961 167.129L510.553 165.665L510.846 163.467C510.162 142.178 509.43 128.213 508.648 121.573C508.551 100.186 508.258 89.4928 507.77 89.4928L507.184 89.1998L497.223 91.1041L496.637 90.9576L496.93 89.6393H495.172V89.1998H494.879L495.172 87.442V86.5631C495.172 85.9771 494.781 85.0006 494 83.6334C495.367 83.4381 496.051 83.0475 496.051 82.4615L495.172 81.2896C495.172 80.606 499.42 79.6783 507.916 78.5064ZM520.514 79.5318L520.074 79.9713L520.514 80.4107H523.004V79.9713L521.1 79.5318H520.514ZM523.59 83.1939C522.027 83.2916 521.246 83.5357 521.246 83.9264C521.246 84.317 521.637 84.5123 522.418 84.5123H522.711C525.348 84.4146 526.764 84.1217 526.959 83.6334L526.52 83.1939H523.59ZM533.404 85.0982L533.99 85.3912H535.455C536.334 85.3912 536.871 85.1471 537.066 84.6588C537.066 84.2682 536.48 84.0728 535.309 84.0728C534.332 84.0728 533.697 84.4146 533.404 85.0982ZM551.422 85.0982L551.129 85.2447V85.3912C551.52 85.7818 552.057 85.9771 552.74 85.9771V85.8307C552.74 85.6353 552.301 85.3912 551.422 85.0982ZM496.93 87.2955V87.8814L497.369 88.0279C498.053 88.0279 498.639 87.6373 499.127 86.856V86.1236L498.541 85.5377H497.662C497.271 85.5377 497.027 86.1236 496.93 87.2955ZM556.109 87.149V87.2955C557.965 88.565 560.26 90.2252 562.994 92.276H563.434V91.5435C563.434 90.0787 560.992 88.6139 556.109 87.149ZM521.539 88.9068V90.0787L522.711 99.4537C522.125 109.61 521.637 115.079 521.246 115.86L520.514 116.885V118.643L521.539 126.114C521.539 129.629 522.027 131.387 523.004 131.387H523.297C530.719 130.411 534.43 129.532 534.43 128.751C539.41 126.895 542.926 125.381 544.977 124.21C549.273 124.21 554.449 121.182 560.504 115.128C562.164 111.807 562.994 108.731 562.994 105.899V104.288C562.994 103.311 561.627 100.723 558.893 96.524C553.912 90.86 549.176 88.0279 544.684 88.0279L539.703 87.735C531.891 88.5162 525.836 88.9068 521.539 88.9068ZM511.432 89.1998L510.992 89.6393V92.8619L511.725 100.919H511.871L512.75 89.4928L512.457 89.1998H511.432ZM558.453 91.983L558.16 92.4225L558.893 93.1549H559.332V92.8619L558.746 91.983H558.453ZM519.781 97.11L519.635 97.6959V98.2818C519.732 98.9654 519.879 99.3072 520.074 99.3072L520.514 98.8678V97.6959L520.074 97.11H519.781ZM515.533 101.944L514.508 111.758L514.947 112.198H515.533L515.973 111.612V103.848C515.973 102.579 515.826 101.944 515.533 101.944ZM567.096 105.02L566.656 105.313V106.338L567.096 106.631H567.242L567.682 106.192V105.606L567.242 105.02H567.096ZM511.871 108.829H511.432V109.268L511.871 109.561H512.164V109.268L511.871 108.829ZM568.121 113.223H567.682V113.956L566.656 116.153V116.739L567.535 117.764C568.219 117.764 568.609 116.739 568.707 114.688C568.609 113.712 568.414 113.223 568.121 113.223ZM564.605 120.547C564.703 121.036 565.045 121.475 565.631 121.866H565.924C566.998 120.987 567.535 120.108 567.535 119.229L567.242 119.083C565.875 119.083 564.996 119.571 564.605 120.547ZM560.65 122.012V122.452H561.236C562.018 122.159 562.408 121.768 562.408 121.28H561.969C561.285 121.28 560.846 121.524 560.65 122.012ZM551.422 125.088V125.528H552.74C553.229 124.942 554.303 124.258 555.963 123.477L556.109 123.331V122.891C554.742 122.891 553.18 123.624 551.422 125.088ZM515.094 123.477L514.654 124.063V124.21L515.094 124.649L515.533 124.21V124.063L515.094 123.477ZM544.684 128.897V129.337C547.418 128.751 549.225 127.823 550.104 126.553V126.407H549.811C546.979 127.286 545.27 128.116 544.684 128.897ZM556.695 126.407L556.256 126.7V126.993H556.988V126.407H556.695ZM553.912 128.751L554.059 128.897H554.205L555.23 128.311V127.872H555.084C554.4 128.067 554.01 128.36 553.912 128.751ZM538.092 131.387V131.534H539.117C540.484 131.338 541.168 131.143 541.168 130.948L540.875 130.655H540.582C538.922 130.85 538.092 131.094 538.092 131.387ZM532.672 132.559V132.706H533.111C534.674 132.706 535.455 132.462 535.455 131.973V131.68H535.016C534.527 131.68 533.746 131.973 532.672 132.559ZM542.34 133.878L542.633 134.024H542.779C545.221 133.438 546.441 132.901 546.441 132.413L546.295 132.12H546.148C544.098 132.51 542.828 133.096 542.34 133.878ZM545.416 142.667V142.813C545.416 143.594 545.807 144.278 546.588 144.864H547.174V144.571C546.49 143.301 545.904 142.667 545.416 142.667ZM515.533 161.27L514.947 161.856V163.321H515.533L515.826 161.856L515.68 161.27H515.533ZM518.756 169.766V169.913L519.342 170.499H519.635C520.025 170.499 520.318 169.815 520.514 168.448V167.862L520.221 166.983H519.781C519.391 166.983 519.049 167.911 518.756 169.766ZM515.973 167.276H515.68L515.387 169.766V169.913H515.973L516.559 169.473V168.887C516.559 167.911 516.363 167.374 515.973 167.276ZM530.328 170.792L530.182 170.938V171.524H530.328L530.768 170.938V170.792H530.328ZM564.605 171.524L564.02 172.256L564.605 172.989H564.752L565.338 172.256V171.524H564.605ZM578.814 172.256V172.989L579.693 173.135H580.426L580.865 172.696V172.256L580.426 171.817H579.84C579.156 171.915 578.814 172.061 578.814 172.256ZM529.449 174.747L529.742 174.893H530.328L530.914 174.454V174.161L530.621 173.721C529.84 173.721 529.449 174.063 529.449 174.747ZM567.682 173.428H566.07V173.575L566.656 174.161H569.146V174.014C569.049 173.624 568.561 173.428 567.682 173.428ZM579.107 176.212L579.547 176.944H581.451C582.33 176.944 582.867 176.7 583.062 176.212C583.062 175.821 582.672 175.626 581.891 175.626H580.279C579.498 175.821 579.107 176.016 579.107 176.212ZM559.625 176.212L559.332 176.504C559.332 176.895 559.576 177.09 560.064 177.09L560.797 176.797L560.65 176.212H559.625ZM609.137 74.6978L614.117 73.9654C617.535 73.9654 620.221 75.7232 622.174 79.2389L623.199 83.9264C623.004 85.7818 621.93 88.2232 619.977 91.2506C618.707 92.5201 616.754 93.1549 614.117 93.1549C607.965 93.1549 604.156 92.2271 602.691 90.3717C601.227 88.4185 600.543 85.6842 600.641 82.1685C600.25 82.1685 600.055 82.0709 600.055 81.8756V81.5826C602.984 76.9928 606.012 74.6978 609.137 74.6978ZM606.207 78.36V78.5064C609.527 78.1158 611.188 77.6764 611.188 77.1881L610.455 76.8951C607.623 77.3834 606.207 77.8717 606.207 78.36ZM608.697 82.608H608.844L609.723 82.7545H610.016C611.09 82.7545 611.773 82.3639 612.066 81.5826L611.92 81.2896H610.162C609.381 81.2896 608.893 81.7291 608.697 82.608ZM619.244 81.2896L618.805 82.0221V82.608H618.951L619.391 82.0221V81.2896H619.244ZM615.729 86.1236V86.5631H616.314C616.998 86.5631 617.535 86.2213 617.926 85.5377V85.0982H617.633C616.949 85.0982 616.314 85.44 615.729 86.1236ZM612.506 88.7603L612.066 89.1998V89.4928H614.703L615.143 89.1998L614.703 88.7603H612.506ZM593.902 102.676H594.342C595.123 103.36 596.1 103.702 597.271 103.702L599.176 102.823C612.457 102.823 619.098 103.213 619.098 103.995L619.244 105.02V107.51C620.123 109.463 620.562 111.319 620.562 113.077V115.421C619.391 131.338 618.609 144.229 618.219 154.092C618.023 154.678 617.828 155.704 617.633 157.169C617.73 157.559 618.17 157.754 618.951 157.754H619.391C624.664 157.754 627.301 158.389 627.301 159.659L627.154 159.952V160.831C628.326 163.174 628.912 166.885 628.912 171.963L629.498 177.823L629.059 178.116L622.613 178.409H607.965C597.027 178.409 591.559 177.53 591.559 175.772C591.559 174.698 591.266 173.624 590.68 172.549C590.973 171.866 591.461 171.329 592.145 170.938H592.584C592.975 171.329 593.414 171.524 593.902 171.524H594.195C597.027 171.524 600.396 171.28 604.303 170.792V170.499C595.904 169.913 591.705 169.229 591.705 168.448L591.559 167.276V165.665L591.266 161.856C591.266 160.879 594.928 160.391 602.252 160.391C603.229 160.391 603.717 158.194 603.717 153.799L605.475 115.274H605.182C602.447 115.274 601.08 115.079 601.08 114.688C601.08 114.59 601.227 114.444 601.52 114.249C595.66 114.249 592.73 113.565 592.73 112.198C592.34 112.1 592.145 111.71 592.145 111.026L592.877 109.268C592.877 108.878 592.584 108.34 591.998 107.657C592.779 106.876 593.316 105.313 593.609 102.969L593.902 102.676ZM596.246 105.606V106.192H596.979C599.518 106.192 600.787 105.997 600.787 105.606L600.494 105.02H600.055C597.516 105.02 596.246 105.215 596.246 105.606ZM616.168 104.581L615.729 105.02L616.314 105.46H616.607V105.02L616.168 104.581ZM599.469 107.657H596.832V108.096C596.832 108.487 597.516 108.682 598.883 108.682H600.494H600.934H605.768C607.232 108.682 607.965 108.438 607.965 107.95V107.803C607.965 107.315 605.133 107.266 599.469 107.657ZM612.506 107.803L611.188 107.657V107.95C611.871 107.95 612.701 108.438 613.678 109.415H613.971C614.166 109.415 614.264 109.268 614.264 108.975H614.557C614.947 108.975 615.191 109.415 615.289 110.294H615.582L617.633 108.829V107.95L614.557 107.803H612.506ZM611.92 116.006L612.652 118.204L611.627 120.84C612.018 121.719 612.359 122.159 612.652 122.159H612.799L613.092 121.28V120.401C613.092 116.885 613.629 115.128 614.703 115.128L615.143 114.542V113.956L614.703 113.516H613.824C612.555 113.516 611.92 114.346 611.92 116.006ZM607.379 129.922L606.939 148.819C607.037 149.503 607.184 149.844 607.379 149.844C607.672 149.844 607.867 149.405 607.965 148.526L607.818 146.329C608.307 145.84 608.844 143.887 609.43 140.469V139.59L609.137 137.54C609.723 137.051 610.016 136.71 610.016 136.514C609.625 135.44 609.43 134.366 609.43 133.292V132.999C609.82 132.999 610.309 127.53 610.895 116.592C610.602 115.811 610.309 115.421 610.016 115.421C608.551 115.421 607.672 120.254 607.379 129.922ZM614.557 117.032L613.971 117.178V118.057C613.971 118.643 614.215 119.083 614.703 119.376H615.143L615.582 118.79V118.057C615.387 117.569 615.045 117.227 614.557 117.032ZM613.824 140.909H613.092C612.311 144.522 611.92 147.208 611.92 148.965H612.066C612.555 148.965 613.189 146.963 613.971 142.96V141.934L613.824 140.909ZM611.041 154.678V155.704H611.334C611.822 155.508 612.066 154.922 612.066 153.946V152.921H611.627C611.432 152.921 611.236 153.506 611.041 154.678ZM611.334 156.876L610.895 157.462V158.194H611.334L611.92 157.754V157.315L611.48 156.876H611.334ZM623.053 160.391L622.613 160.538C623.199 161.026 624.273 161.319 625.836 161.417V160.977C625.836 160.587 625.201 160.391 623.932 160.391H623.053ZM623.639 166.544L621.881 166.983C622.076 168.155 622.955 168.741 624.518 168.741H624.957V168.301L624.664 167.862C624.664 167.764 625.055 167.471 625.836 166.983V166.251C625.836 165.567 625.641 165.176 625.25 165.079H624.664C624.371 165.176 624.029 165.665 623.639 166.544ZM595.66 165.225L594.635 165.518V165.665C595.416 166.446 598.443 166.885 603.717 166.983H604.742C605.523 166.983 606.012 166.739 606.207 166.251V165.958C602.105 165.469 598.59 165.225 595.66 165.225ZM609.43 166.983L610.016 167.715C610.895 167.715 611.334 167.227 611.334 166.251H610.602C610.016 166.251 609.625 166.495 609.43 166.983ZM623.199 169.913L622.76 170.499V170.792H623.053L623.492 170.206V169.913H623.199ZM611.92 170.792L610.016 170.938H607.965V171.524L610.016 171.671L614.264 171.378V170.938H613.678L611.92 170.792ZM626.861 175.772L626.275 176.212V176.651H627.154L627.301 176.212L627.154 175.772H626.861ZM647.076 104.727C654.303 105.606 657.916 106.924 657.916 108.682L658.648 109.561V111.465L660.26 113.223C659.186 114.102 658.648 115.03 658.648 116.006C658.844 116.495 659.186 116.739 659.674 116.739V116.885L658.795 117.911H657.623C656.646 117.129 655.865 116.739 655.279 116.739C650.104 117.032 649.469 121.28 653.375 129.483C656.207 139.346 658.6 145.499 660.553 147.94C666.021 160.44 669.732 166.885 671.686 167.276H671.979C672.369 167.276 673.492 164.883 675.348 160.098C678.961 153.555 681.842 147.354 683.99 141.495C685.65 138.663 686.48 136.71 686.48 135.635L686.041 134.171C692.486 122.256 692.73 116.446 686.773 116.739L685.016 117.032H684.43C684.137 108.438 685.064 104.141 687.213 104.141C689.557 103.165 695.66 102.676 705.523 102.676C710.016 102.676 712.262 104.337 712.262 107.657C713.336 109.512 713.873 110.684 713.873 111.172C712.311 112.442 711.529 113.907 711.529 115.567L706.109 116.592C705.914 116.983 704.303 120.401 701.275 126.846C700.592 128.897 697.125 135.538 690.875 146.768L686.92 158.926C681.061 171.036 678.033 177.09 677.838 177.09C677.643 177.09 677.545 177.383 677.545 177.969V179.141V179.288C677.545 180.753 676.324 181.631 673.883 181.924L670.953 183.682C669.781 183.682 668.072 182.95 665.826 181.485L658.648 171.378C657.477 167.081 656.402 164.932 655.426 164.932C654.84 164.346 654.01 161.905 652.936 157.608C650.982 154.19 649.127 151.212 647.369 148.672C647.369 148.282 647.613 147.842 648.102 147.354V146.768L645.611 140.762C644.146 135.489 643.072 132.657 642.389 132.266C639.166 122.989 636.969 118.35 635.797 118.35C635.797 118.838 635.162 119.131 633.893 119.229C632.232 119.229 630.279 118.399 628.033 116.739V116.446L628.473 115.713V115.274C628.473 115.079 627.789 114.59 626.422 113.809L626.275 113.516C628.521 113.028 629.645 112.54 629.645 112.051L627.594 111.026L627.447 110.879V110.44L628.473 109.122C628.473 108.731 628.131 108.243 627.447 107.657V107.217C638.775 105.557 645.318 104.727 647.076 104.727ZM642.828 107.217C642.828 107.51 643.609 107.657 645.172 107.657H650.592V107.364C648.932 106.68 647.467 106.338 646.197 106.338H644.439C643.561 106.338 643.023 106.631 642.828 107.217ZM635.797 111.465L635.211 111.905V112.491L635.943 112.784C637.311 112.588 637.994 112.247 637.994 111.758L637.555 111.465H635.797ZM686.627 105.753V106.485L687.066 107.217H687.213C687.213 106.631 692.877 106.094 704.205 105.606L704.498 105.46H704.645V105.02C704.645 104.727 703.863 104.581 702.301 104.581C696.344 104.581 691.119 104.971 686.627 105.753ZM685.309 109.415V110.294C685.309 111.758 685.846 112.491 686.92 112.491H687.066L687.506 112.051V111.905C686.627 109.561 686.041 108.389 685.748 108.389C685.455 108.585 685.309 108.926 685.309 109.415ZM632.135 116.739L631.695 117.178L632.135 117.471H634.039V117.178L632.428 116.739H632.135ZM689.703 109.708L689.264 110.294L689.703 110.587C690.289 110.489 690.582 110.342 690.582 110.147V109.708H689.703ZM705.377 111.465V111.612L707.428 112.051C708.893 111.954 709.625 111.807 709.625 111.612C709.625 111.221 708.99 110.977 707.721 110.879H706.402C705.719 110.879 705.377 111.075 705.377 111.465ZM641.07 120.694H640.631L640.484 121.133C641.266 121.622 641.705 121.817 641.803 121.719C641.998 121.622 641.754 121.28 641.07 120.694ZM697.467 123.624V124.649H697.76C698.346 124.454 699.029 123.331 699.811 121.28C700.104 120.987 700.787 120.84 701.861 120.84L702.008 120.547V119.522L701.715 118.936V118.497L702.447 118.204C702.447 117.325 702.057 116.641 701.275 116.153C699.908 116.153 698.639 118.643 697.467 123.624ZM697.174 128.311H696.881V128.751H697.174V128.311ZM694.83 127.725V128.311H695.416C695.904 128.311 696.393 127.286 696.881 125.235V124.649H696.734V124.356C696.246 124.356 695.611 125.479 694.83 127.725ZM692.047 134.024V134.903H692.633C693.609 134.024 694.098 133.047 694.098 131.973V131.387H693.512C692.535 131.973 692.047 132.852 692.047 134.024ZM647.369 132.266H647.223C647.418 133.438 647.711 134.024 648.102 134.024V133.731C648.004 132.754 647.76 132.266 647.369 132.266ZM689.85 140.176H690.143C691.021 139.297 691.607 138.174 691.9 136.807V136.661C690.826 136.661 690.143 137.833 689.85 140.176ZM689.264 141.934L688.678 142.52L688.971 143.106L689.41 142.374V141.934H689.264ZM687.213 144.131V144.278L687.652 144.571C688.141 144.571 688.385 144.229 688.385 143.546V143.106L687.945 142.52C687.457 142.715 687.213 143.253 687.213 144.131ZM657.477 147.94H657.037V148.379C658.307 152.188 659.381 154.092 660.26 154.092V153.799C659.186 150.088 658.258 148.135 657.477 147.94ZM678.277 170.938H678.717C679.107 170.938 681.402 166.348 685.602 157.169L686.041 154.971V154.825H685.748C684.576 155.606 683.16 158.34 681.5 163.028C679.352 167.032 678.277 169.669 678.277 170.938ZM681.5 155.264H681.061C677.447 162.1 675.641 165.811 675.641 166.397L676.08 166.837C678.814 162.442 680.475 159.171 681.061 157.022C681.354 156.631 681.5 156.143 681.5 155.557V155.264ZM666.266 167.276H665.973V167.422C666.07 168.399 666.803 169.62 668.17 171.085H668.463L668.756 170.938C668.268 169.571 667.438 168.35 666.266 167.276ZM662.311 167.422H662.018V167.862C662.018 168.838 662.945 169.766 664.801 170.645H664.947L665.094 170.499V170.352C664.703 169.376 663.775 168.399 662.311 167.422ZM670.953 170.645V170.938C671.539 172.794 672.369 173.721 673.443 173.721C674.518 171.866 675.055 170.596 675.055 169.913V169.62H674.908C674.615 169.815 673.297 170.157 670.953 170.645ZM678.131 171.963H677.545L673.883 178.409V178.848C675.836 178.848 677.057 176.993 677.545 173.282C677.936 173.282 678.131 172.842 678.131 171.963ZM666.998 172.256L666.559 172.549C667.828 174.307 669.049 175.186 670.221 175.186V174.747C669.439 173.087 668.365 172.256 666.998 172.256ZM665.68 175.04H665.387V175.186L665.826 176.065H666.266V175.626L665.68 175.04ZM747.857 104.581C751.959 104.581 756.939 106.338 762.799 109.854C767.779 113.565 770.27 116.104 770.27 117.471C774.176 125.674 776.129 130.606 776.129 132.266L776.275 133.438C774.811 136.856 774.078 139.2 774.078 140.469L773.199 140.616H760.748C759.576 140.616 758.16 140.762 756.5 141.055C742.438 139.883 732.574 139.297 726.91 139.297H723.834C722.662 141.055 722.076 142.325 722.076 143.106C722.76 144.18 723.102 145.889 723.102 148.233C723.102 151.944 723.688 154.141 724.859 154.825L725.006 155.557V155.704L724.127 155.264V155.704L725.445 157.169C725.445 158.438 726.324 160.049 728.082 162.003C731.305 167.667 734.82 171.182 738.629 172.549C741.852 173.624 745.514 174.161 749.615 174.161C750.299 174.161 751.715 173.526 753.863 172.256C755.621 171.866 759.332 168.692 764.996 162.735V162.296C764.996 162.1 764.312 161.905 762.945 161.71L762.652 160.977C764.898 156.68 767.584 153.848 770.709 152.481C771.588 153.36 773.395 154.727 776.129 156.583C778.277 159.903 781.158 163.809 784.771 168.301V168.887C781.646 172.989 779.4 175.04 778.033 175.04H777.447C777.447 172.891 776.129 171.671 773.492 171.378C773.004 171.378 770.855 172.989 767.047 176.212C764.801 177.969 760.943 179.629 755.475 181.192C749.127 182.462 744.635 183.096 741.998 183.096L733.648 180.167C728.961 180.167 724.664 177.628 720.758 172.549C719.098 170.792 717.73 168.692 716.656 166.251C716.656 165.469 715.582 161.417 713.434 154.092C712.75 151.26 712.408 148.526 712.408 145.889V145.743C712.408 132.754 716.314 121.378 724.127 111.612C725.104 109.171 727.35 107.364 730.865 106.192C733.209 105.508 736.041 104.971 739.361 104.581C740.24 104.19 743.072 104.19 747.857 104.581ZM734.381 107.657V107.803H734.674C736.236 107.803 739.166 107.266 743.463 106.192C744.342 106.094 744.781 105.85 744.781 105.46L744.342 105.02H744.195C741.363 105.02 738.189 105.801 734.674 107.364L734.381 107.657ZM728.521 110.147V110.294L728.961 110.587H729.107C731.061 110.098 732.037 109.61 732.037 109.122V108.243L731.451 107.657H731.158C729.4 108.243 728.521 109.073 728.521 110.147ZM751.08 108.682H746.686V108.975C746.686 109.366 748.688 109.659 752.691 109.854H752.838V109.268C752.838 109.073 752.252 108.878 751.08 108.682ZM740.68 110.879V111.026C740.68 111.417 742.682 111.905 746.686 112.491L746.979 112.344V111.758C746.197 110.684 744.879 110.147 743.023 110.147H742.584C741.314 110.245 740.68 110.489 740.68 110.879ZM749.615 111.758V111.905C755.182 115.128 758.16 116.739 758.551 116.739H758.697L760.162 116.153L761.041 116.446L761.188 116.153V116.006C760.797 115.713 759.967 115.421 758.697 115.128L755.768 113.809C754.986 112.149 753.424 111.319 751.08 111.319H750.641C749.957 111.417 749.615 111.563 749.615 111.758ZM732.184 116.006C733.16 115.225 735.113 114.395 738.043 113.516V113.223L737.896 112.93H736.432C733.6 113.712 732.184 114.737 732.184 116.006ZM724.42 125.674V126.114C724.42 127.188 733.307 128.409 751.08 129.776L752.545 130.215L754.449 130.069C758.355 131.338 760.992 131.973 762.359 131.973C762.359 132.266 762.652 132.51 763.238 132.706C763.824 131.827 764.117 130.997 764.117 130.215V127.432C764.117 126.163 761.676 123.331 756.793 118.936C754.547 116.69 752.008 115.421 749.176 115.128L744.195 114.249C736.09 115.909 730.768 117.911 728.229 120.254C727.154 122.305 725.885 124.112 724.42 125.674ZM726.031 116.885V117.178H726.324C727.594 116.885 728.229 116.544 728.229 116.153V116.006H727.496C727.008 116.006 726.52 116.299 726.031 116.885ZM761.041 118.936C761.236 119.717 761.676 120.108 762.359 120.108H762.652L762.945 119.669V118.79L762.359 118.057C761.48 118.057 761.041 118.35 761.041 118.936ZM723.248 119.669L722.955 120.108V120.254H723.248L723.834 119.815V119.669H723.248ZM764.703 120.84H764.117C765.191 124.063 765.973 125.821 766.461 126.114H767.047L767.486 125.821C766.705 122.696 765.875 121.133 764.996 121.133L764.703 120.84ZM724.566 123.477C725.152 123.379 725.445 122.989 725.445 122.305V122.159C724.859 122.354 724.566 122.794 724.566 123.477ZM769.684 127.432L769.244 127.725V128.751L769.684 129.337C770.074 129.239 770.27 128.897 770.27 128.311V127.725L770.123 127.432H769.684ZM722.955 129.483V130.069L723.248 130.362H723.541C724.225 130.069 724.811 129.532 725.299 128.751V128.311H724.566C723.98 128.311 723.443 128.702 722.955 129.483ZM716.949 128.604C716.168 129.385 715.484 131.338 714.898 134.463H715.191C715.777 134.463 716.656 132.754 717.828 129.337C717.633 128.848 717.34 128.604 716.949 128.604ZM731.891 130.362V130.801C733.746 132.071 737.115 132.706 741.998 132.706H743.316L745.221 132.559V131.973C741.217 131.094 736.773 130.557 731.891 130.362ZM758.697 134.171H758.258V134.61H758.697V134.171ZM730.426 135.342V135.635C732.379 136.124 737.555 136.612 745.953 137.1V137.247V137.393L742.877 137.833C742.877 138.126 744.146 138.272 746.686 138.272C750.787 138.272 752.838 138.077 752.838 137.686C752.838 136.71 745.367 135.928 730.426 135.342ZM715.631 136.368H714.898V137.247C714.898 137.833 715.045 138.126 715.338 138.126C715.826 138.126 716.119 137.637 716.217 136.661L715.631 136.368ZM727.496 136.661L726.764 136.807V137.686H727.496V137.1V136.807V136.661ZM722.809 137.833V137.979H722.955L725.445 137.686V137.393L725.006 136.807H724.566C723.688 136.807 723.102 137.149 722.809 137.833ZM758.404 138.126C758.404 138.516 759.283 138.712 761.041 138.712L762.359 138.565V138.272C762.359 137.881 761.432 137.686 759.576 137.686C758.795 137.881 758.404 138.028 758.404 138.126ZM714.898 141.934V142.374V142.52C714.801 142.813 714.752 143.497 714.752 144.571V145.157C714.752 146.915 715.24 148.477 716.217 149.844H716.363C716.363 145.157 715.875 142.52 714.898 141.934ZM717.535 154.678H717.096V154.971L717.535 155.264H717.828V154.971L717.535 154.678ZM718.561 157.169L718.414 157.315V157.608C718.805 159.171 719.391 159.952 720.172 159.952V159.805V159.512C720.172 158.731 719.635 157.95 718.561 157.169ZM766.314 158.487L766.607 158.926H767.34C767.926 158.926 768.268 158.731 768.365 158.34L767.779 157.754H767.633C766.949 157.754 766.51 157.999 766.314 158.487ZM762.945 166.983L763.238 167.129H763.385C764.459 167.129 765.143 166.495 765.436 165.225V164.932C764.361 164.932 763.531 165.616 762.945 166.983ZM773.199 166.69L773.346 166.837H773.785C774.371 166.446 774.664 165.909 774.664 165.225H774.225C773.541 165.616 773.199 166.104 773.199 166.69ZM778.326 165.225H778.18V165.518C778.473 166.69 778.912 167.276 779.498 167.276H779.645L779.938 166.983V166.837C779.742 165.762 779.205 165.225 778.326 165.225ZM769.83 168.301L770.27 168.594C771.734 168.106 772.467 167.471 772.467 166.69V166.397H772.32C770.953 166.397 770.123 167.032 769.83 168.301ZM758.404 171.524H758.697C759.479 171.231 759.918 170.743 760.016 170.059L759.869 169.913C758.893 170.499 758.404 171.036 758.404 171.524ZM767.047 172.256H767.633C768.609 171.378 769.098 170.743 769.098 170.352H768.951C767.682 170.743 767.047 171.378 767.047 172.256ZM725.445 173.575H725.006V174.161C725.201 174.649 726.031 175.186 727.496 175.772L728.082 176.212C727.008 174.551 726.129 173.672 725.445 173.575ZM735.699 174.161H735.553V174.307C735.553 174.698 736.578 175.137 738.629 175.626L738.775 175.479V175.186C737.506 174.503 736.48 174.161 735.699 174.161ZM744.342 175.772H743.902V176.212H744.342V175.772ZM759.576 177.969C760.553 177.969 761.334 177.237 761.92 175.772H761.48C760.211 176.456 759.576 177.188 759.576 177.969ZM749.322 179.434L746.246 179.141H745.66C744.781 179.141 744.293 179.337 744.195 179.727V180.02L744.781 180.46H747.418C750.445 180.46 754.01 179.922 758.111 178.848C757.916 178.262 757.33 177.969 756.354 177.969H755.621C753.277 177.969 751.178 178.458 749.322 179.434ZM842.926 109.854C846.734 109.854 849.957 112.54 852.594 117.911C853.082 117.911 853.766 118.546 854.645 119.815L856.549 130.655C855.865 131.827 853.277 132.413 848.785 132.413H847.32C843.707 131.827 841.9 130.606 841.9 128.751C841.9 127.383 840.777 125.479 838.531 123.038C838.238 122.549 836.139 122.305 832.232 122.305C828.521 122.305 824.029 123.282 818.756 125.235C815.045 129.141 812.604 132.169 811.432 134.317C812.115 151.016 812.359 161.465 812.164 165.665C812.164 166.544 812.75 166.983 813.922 166.983H817.438C819 167.081 819.781 167.374 819.781 167.862V168.008L820.367 169.913L820.074 178.116L819.195 179.288L812.311 180.02H811.725L808.795 180.899C797.564 180.508 791.949 180.069 791.949 179.581C789.996 179.581 789.02 178.702 789.02 176.944C788.824 175.186 788.727 173.379 788.727 171.524C788.727 169.669 790.631 168.448 794.439 167.862C794.439 167.081 795.758 166.69 798.395 166.69L798.834 166.544V166.251L797.955 126.114C797.955 123.672 797.32 122.452 796.051 122.452H795.172C794 122.452 792.047 122.989 789.312 124.063L789.02 123.77V123.477C789.02 123.282 789.41 123.038 790.191 122.745V122.452C789.215 122.452 788.727 119.717 788.727 114.249C788.531 114.249 788.385 113.37 788.287 111.612C792.193 108.585 796.295 107.071 800.592 107.071H804.254C805.719 107.071 808.209 107.559 811.725 108.536V108.975C810.846 110.342 810.406 111.319 810.406 111.905V112.93C818.316 109.415 829.156 108.389 842.926 109.854ZM804.547 131.973V132.706C805.035 133.682 805.279 134.708 805.279 135.782C805.182 136.172 805.035 138.174 804.84 141.788L805.133 147.647H805.279C805.572 147.647 805.963 143.106 806.451 134.024C806.646 134.024 806.744 133.047 806.744 131.094C806.646 130.215 806.402 129.776 806.012 129.776H805.719C804.938 130.264 804.547 130.997 804.547 131.973ZM795.758 176.212L793.854 176.358V176.651C793.854 177.139 795.27 177.383 798.102 177.383H802.496L803.521 177.237C803.521 176.749 800.934 176.407 795.758 176.212ZM821.1 116.153V116.446C821.979 116.446 823.15 115.03 824.615 112.198V111.465H824.469C821.93 112.247 820.807 113.809 821.1 116.153ZM839.996 120.84H840.729C841.217 120.743 842.145 119.571 843.512 117.325V117.178C843.512 116.983 843.316 116.885 842.926 116.885C841.266 117.667 840.436 118.692 840.436 119.962C840.338 119.962 840.191 120.254 839.996 120.84ZM806.305 124.21H805.719L804.986 127.286C804.986 127.774 805.279 128.262 805.865 128.751H806.012C806.305 128.751 806.549 128.067 806.744 126.7L806.305 124.21ZM826.666 112.93L827.398 115.86H828.57V112.784L828.131 112.344H827.691C827.008 112.442 826.666 112.637 826.666 112.93ZM794.732 173.868L794.439 174.161L794.586 174.454H802.643V174.014L797.662 173.868H794.732ZM792.096 112.784C792.877 113.565 793.707 113.956 794.586 113.956L794.732 113.663V112.637L794.146 111.905C792.779 112.1 792.096 112.393 792.096 112.784ZM806.891 174.893L807.33 175.333H809.527L810.113 174.747C810.113 174.551 809.869 174.356 809.381 174.161C807.721 174.356 806.891 174.6 806.891 174.893ZM849.078 116.739H848.639V117.032C849.42 117.813 850.104 118.204 850.689 118.204H851.129V117.911C850.348 117.129 849.664 116.739 849.078 116.739ZM798.834 109.854H798.395V110.44L799.273 111.465H800.592V111.172L798.834 109.854ZM794.439 118.497V118.79H794.879C795.953 118.79 796.539 118.594 796.637 118.204L796.344 117.764H796.051C795.172 117.764 794.635 118.008 794.439 118.497ZM831.939 111.612L830.182 111.758V111.905L830.475 112.344H831.939C832.623 112.344 833.014 112.149 833.111 111.758L832.818 111.612H831.939ZM808.795 158.78L808.209 159.219V160.391H808.795L809.381 159.952V159.073L809.088 158.78H808.795ZM791.217 174.747L790.631 174.161L790.338 174.747V175.333L790.631 175.772H791.217V174.747ZM811.725 119.376L811.139 119.522V119.962L811.725 120.401H812.164L812.604 119.962V119.522L811.725 119.376ZM834.869 111.465V111.758H835.895L836.48 111.319L836.041 110.879C835.26 111.075 834.869 111.27 834.869 111.465ZM844.537 111.465L844.244 111.758V111.905L844.537 112.344H845.123L845.416 111.905V111.758L845.123 111.465H844.537ZM808.941 110.001L808.209 110.294V110.879H808.941L809.381 110.294L808.941 110.001ZM808.502 112.637L807.916 113.077V113.37L808.209 113.663L808.941 113.077V112.637H808.502ZM844.098 124.796V125.088H844.391L844.977 124.649V124.21H844.83C844.342 124.503 844.098 124.698 844.098 124.796ZM839.117 111.905L838.531 112.344V112.491H839.264L839.557 112.198V111.905H839.117ZM808.795 162.003H808.502V162.588H808.795V162.003Z" fill="white"/>
<path d="M175.04 264.47V261.59H181.28C183.84 261.59 186.08 261.046 188 259.958C189.952 258.87 191.472 257.318 192.56 255.302C193.648 253.254 194.192 250.854 194.192 248.102C194.192 245.318 193.648 242.918 192.56 240.902C191.472 238.886 189.952 237.318 188 236.198C186.08 235.078 183.84 234.518 181.28 234.518H175.04V231.734H181.712C185.296 231.734 188.416 232.374 191.072 233.654C193.76 234.934 195.84 236.79 197.312 239.222C198.816 241.654 199.568 244.614 199.568 248.102C199.568 251.558 198.816 254.518 197.312 256.982C195.84 259.414 193.76 261.27 191.072 262.55C188.416 263.83 185.296 264.47 181.712 264.47H175.04ZM165.392 264.47V261.974H170V234.23H165.488V231.734H175.04V264.47H165.392ZM217.802 265.046C215.242 265.046 212.97 264.55 210.986 263.558C209.002 262.534 207.434 261.062 206.282 259.142C205.162 257.222 204.602 254.902 204.602 252.182C204.602 249.43 205.162 247.094 206.282 245.174C207.434 243.254 209.002 241.798 210.986 240.806C212.97 239.782 215.242 239.27 217.802 239.27C220.362 239.27 222.618 239.782 224.57 240.806C226.554 241.798 228.106 243.254 229.226 245.174C230.378 247.094 230.954 249.43 230.954 252.182C230.954 254.902 230.378 257.222 229.226 259.142C228.106 261.062 226.554 262.534 224.57 263.558C222.618 264.55 220.362 265.046 217.802 265.046ZM217.802 262.214C219.402 262.214 220.778 261.814 221.93 261.014C223.114 260.182 224.026 259.014 224.666 257.51C225.306 255.974 225.626 254.134 225.626 251.99C225.626 249.942 225.306 248.182 224.666 246.71C224.026 245.238 223.114 244.102 221.93 243.302C220.778 242.502 219.402 242.102 217.802 242.102C216.234 242.102 214.858 242.502 213.674 243.302C212.49 244.102 211.562 245.254 210.89 246.758C210.25 248.262 209.93 250.07 209.93 252.182C209.93 254.294 210.25 256.102 210.89 257.606C211.562 259.078 212.49 260.214 213.674 261.014C214.858 261.814 216.234 262.214 217.802 262.214ZM244.475 273.398C241.979 273.398 240.059 272.95 238.715 272.054C237.371 271.19 236.699 269.91 236.699 268.214C236.699 267.19 236.987 266.326 237.563 265.622C238.171 264.95 238.923 264.438 239.819 264.086C240.715 263.702 241.643 263.494 242.603 263.462L242.747 263.846C242.427 264.038 242.075 264.294 241.691 264.614C241.307 264.934 240.987 265.302 240.731 265.718C240.475 266.166 240.347 266.678 240.347 267.254C240.347 268.406 240.747 269.302 241.547 269.942C242.347 270.614 243.563 270.95 245.195 270.95H251.531C252.747 270.95 253.723 270.758 254.459 270.374C255.195 270.022 255.723 269.542 256.043 268.934C256.363 268.358 256.523 267.734 256.523 267.062C256.523 266.038 256.251 265.27 255.707 264.758C255.163 264.278 254.315 264.038 253.163 264.038H241.931C239.883 264.038 238.219 263.542 236.939 262.55C235.691 261.526 235.067 260.182 235.067 258.518C235.067 257.302 235.355 256.278 235.931 255.446C236.539 254.614 237.339 253.99 238.331 253.574C239.355 253.126 240.475 252.902 241.691 252.902L241.835 254.15C240.907 254.214 240.139 254.502 239.531 255.014C238.923 255.526 238.619 256.246 238.619 257.174C238.619 258.038 238.923 258.726 239.531 259.238C240.171 259.75 241.035 260.006 242.123 260.006H253.931C256.171 260.006 257.883 260.518 259.067 261.542C260.251 262.534 260.843 263.91 260.843 265.67C260.843 267.142 260.491 268.454 259.787 269.606C259.115 270.758 258.059 271.67 256.619 272.342C255.211 273.046 253.403 273.398 251.195 273.398H244.475ZM247.691 255.83C245.611 255.83 243.787 255.51 242.219 254.87C240.683 254.198 239.483 253.254 238.619 252.038C237.755 250.822 237.323 249.382 237.323 247.718C237.323 245.222 238.267 243.254 240.155 241.814C242.075 240.342 244.635 239.606 247.835 239.606L253.595 242.342C254.715 242.694 255.691 243.366 256.523 244.358C257.355 245.318 257.771 246.598 257.771 248.198C257.771 250.502 256.875 252.358 255.083 253.766C253.291 255.142 250.827 255.83 247.691 255.83ZM247.691 253.382C249.387 253.382 250.715 252.87 251.675 251.846C252.667 250.822 253.163 249.446 253.163 247.718C253.163 246.022 252.667 244.662 251.675 243.638C250.715 242.582 249.387 242.054 247.691 242.054C246.059 242.054 244.747 242.582 243.755 243.638C242.763 244.662 242.267 246.022 242.267 247.718C242.267 249.446 242.747 250.822 243.707 251.846C244.699 252.87 246.027 253.382 247.691 253.382ZM253.595 242.342L247.835 239.606H260.747V242.342H253.595ZM285.976 264.47V261.974H292.024V231.734H297.064V261.974H303.064V264.47H285.976ZM278.104 242.918V234.518H284.776C283.368 234.518 282.392 234.822 281.848 235.43C281.304 236.038 281.032 237.078 281.032 238.55V242.918H278.104ZM278.104 234.518V231.734H310.936V234.518H278.104ZM308.008 238.55C308.008 237.078 307.736 236.038 307.192 235.43C306.68 234.822 305.72 234.518 304.312 234.518H310.936V242.918H308.008V238.55ZM314.93 264.47V261.974H319.202V242.39H315.314V239.894H323.522V248.15L324.05 248.054V261.974H330.146V264.47H314.93ZM322.466 249.542C322.498 247.142 322.898 245.19 323.666 243.686C324.466 242.15 325.538 241.03 326.882 240.326C328.226 239.59 329.762 239.222 331.49 239.222C333.346 239.19 334.834 239.638 335.954 240.566C337.074 241.462 337.634 242.71 337.634 244.31C337.634 245.302 337.346 246.118 336.77 246.758C336.194 247.398 335.426 247.718 334.466 247.718C333.634 247.718 332.962 247.494 332.45 247.046C331.97 246.566 331.73 245.974 331.73 245.27C331.73 244.406 332.034 243.75 332.642 243.302C333.282 242.854 334.194 242.662 335.378 242.726L334.994 244.358C334.93 243.43 334.53 242.726 333.794 242.246C333.058 241.734 332.082 241.478 330.866 241.478C329.618 241.478 328.466 241.782 327.41 242.39C326.386 242.998 325.57 243.91 324.962 245.126C324.354 246.31 324.05 247.782 324.05 249.542H322.466ZM345.818 248.342C344.986 248.342 344.234 248.102 343.562 247.622C342.89 247.11 342.554 246.31 342.554 245.222C342.554 243.942 343.05 242.87 344.042 242.006C345.034 241.142 346.314 240.502 347.882 240.086C349.482 239.638 351.178 239.414 352.97 239.414C355.882 239.414 358.122 240.006 359.69 241.19C361.29 242.374 362.09 244.166 362.09 246.566L357.53 245.894C357.53 244.582 357.05 243.574 356.09 242.87C355.162 242.166 353.786 241.814 351.962 241.814C350.842 241.814 349.786 241.958 348.794 242.246C347.802 242.502 346.97 242.918 346.298 243.494C345.658 244.07 345.306 244.822 345.242 245.75L345.194 243.686C346.218 243.718 347.034 243.926 347.642 244.31C348.25 244.662 348.538 245.238 348.506 246.038C348.506 246.742 348.266 247.302 347.786 247.718C347.306 248.134 346.65 248.342 345.818 248.342ZM364.058 264.95C362.106 264.95 360.602 264.406 359.546 263.318C358.522 262.198 358.01 260.63 358.01 258.614V256.742H357.482V249.83H357.242L357.53 247.766V245.894L362.09 246.566V258.95C362.09 259.782 362.282 260.47 362.666 261.014C363.082 261.526 363.706 261.782 364.538 261.782C365.338 261.782 365.946 261.526 366.362 261.014C366.778 260.47 366.986 259.782 366.986 258.95V251.174H370.01V258.662C370.01 260.614 369.498 262.15 368.474 263.27C367.482 264.39 366.01 264.95 364.058 264.95ZM348.89 264.95C346.49 264.95 344.538 264.374 343.034 263.222C341.53 262.038 340.778 260.422 340.778 258.374C340.778 256.902 341.098 255.702 341.738 254.774C342.378 253.846 343.258 253.094 344.378 252.518C345.53 251.942 346.842 251.51 348.314 251.222L352.346 250.358C353.338 250.134 354.218 249.862 354.986 249.542C355.786 249.19 356.41 248.726 356.858 248.15C357.306 247.574 357.53 246.822 357.53 245.894L357.674 249.83H357.482C357.194 250.502 356.666 251.062 355.898 251.51C355.162 251.926 354.202 252.278 353.018 252.566L350.858 253.046C349.898 253.27 349.018 253.558 348.218 253.91C347.45 254.262 346.842 254.726 346.394 255.302C345.946 255.846 345.722 256.566 345.722 257.462C345.722 258.742 346.17 259.734 347.066 260.438C347.994 261.11 349.21 261.446 350.714 261.446C351.93 261.446 353.05 261.19 354.074 260.678C355.098 260.166 355.914 259.334 356.522 258.182C357.162 256.998 357.482 255.446 357.482 253.526L358.778 253.67C358.778 256.358 358.346 258.534 357.482 260.198C356.618 261.862 355.434 263.078 353.93 263.846C352.458 264.582 350.778 264.95 348.89 264.95ZM372.868 264.47V261.974H377.14V242.39H373.252V239.894H381.988V261.974H385.828V264.47H372.868ZM379.3 236.534C378.372 236.534 377.604 236.262 376.996 235.718C376.388 235.142 376.084 234.39 376.084 233.462C376.084 232.534 376.372 231.814 376.948 231.302C377.556 230.758 378.34 230.486 379.3 230.486C380.26 230.486 381.028 230.758 381.604 231.302C382.212 231.814 382.516 232.55 382.516 233.51C382.516 234.406 382.212 235.142 381.604 235.718C381.028 236.262 380.26 236.534 379.3 236.534ZM406.131 264.47V261.974H409.875V247.814C409.875 246.086 409.395 244.822 408.435 244.022C407.507 243.222 406.259 242.822 404.691 242.822C403.539 242.822 402.451 243.094 401.427 243.638C400.435 244.182 399.619 245.03 398.979 246.182C398.371 247.302 398.067 248.79 398.067 250.646H396.963C396.963 248.118 397.315 246.038 398.019 244.406C398.723 242.742 399.779 241.51 401.187 240.71C402.595 239.91 404.355 239.51 406.467 239.51C408.867 239.51 410.835 240.15 412.371 241.43C413.907 242.71 414.675 244.79 414.675 247.67V261.974H418.275V264.47H406.131ZM388.899 264.47V261.974H393.171V242.39H389.283V239.894H397.539V248.342L398.067 248.246V261.974H401.811V264.47H388.899ZM421.196 264.47V261.974H425.468V242.39H421.58V239.894H430.316V261.974H434.156V264.47H421.196ZM427.628 236.534C426.7 236.534 425.932 236.262 425.324 235.718C424.716 235.142 424.412 234.39 424.412 233.462C424.412 232.534 424.7 231.814 425.276 231.302C425.884 230.758 426.668 230.486 427.628 230.486C428.588 230.486 429.356 230.758 429.932 231.302C430.54 231.814 430.844 232.55 430.844 233.51C430.844 234.406 430.54 235.142 429.932 235.718C429.356 236.262 428.588 236.534 427.628 236.534ZM454.459 264.47V261.974H458.203V247.814C458.203 246.086 457.723 244.822 456.763 244.022C455.835 243.222 454.587 242.822 453.019 242.822C451.867 242.822 450.779 243.094 449.755 243.638C448.763 244.182 447.947 245.03 447.307 246.182C446.699 247.302 446.395 248.79 446.395 250.646H445.291C445.291 248.118 445.643 246.038 446.347 244.406C447.051 242.742 448.107 241.51 449.515 240.71C450.923 239.91 452.683 239.51 454.795 239.51C457.195 239.51 459.163 240.15 460.699 241.43C462.235 242.71 463.003 244.79 463.003 247.67V261.974H466.603V264.47H454.459ZM437.227 264.47V261.974H441.499V242.39H437.611V239.894H445.867V248.342L446.395 248.246V261.974H450.139V264.47H437.227ZM479.507 273.398C477.011 273.398 475.091 272.95 473.747 272.054C472.403 271.19 471.731 269.91 471.731 268.214C471.731 267.19 472.019 266.326 472.595 265.622C473.203 264.95 473.955 264.438 474.851 264.086C475.747 263.702 476.675 263.494 477.635 263.462L477.779 263.846C477.459 264.038 477.107 264.294 476.723 264.614C476.339 264.934 476.019 265.302 475.763 265.718C475.507 266.166 475.379 266.678 475.379 267.254C475.379 268.406 475.779 269.302 476.579 269.942C477.379 270.614 478.595 270.95 480.227 270.95H486.563C487.779 270.95 488.755 270.758 489.491 270.374C490.227 270.022 490.755 269.542 491.075 268.934C491.395 268.358 491.555 267.734 491.555 267.062C491.555 266.038 491.283 265.27 490.739 264.758C490.195 264.278 489.347 264.038 488.195 264.038H476.963C474.915 264.038 473.251 263.542 471.971 262.55C470.723 261.526 470.099 260.182 470.099 258.518C470.099 257.302 470.387 256.278 470.963 255.446C471.571 254.614 472.371 253.99 473.363 253.574C474.387 253.126 475.507 252.902 476.723 252.902L476.867 254.15C475.939 254.214 475.171 254.502 474.563 255.014C473.955 255.526 473.651 256.246 473.651 257.174C473.651 258.038 473.955 258.726 474.563 259.238C475.203 259.75 476.067 260.006 477.155 260.006H488.963C491.203 260.006 492.915 260.518 494.099 261.542C495.283 262.534 495.875 263.91 495.875 265.67C495.875 267.142 495.523 268.454 494.819 269.606C494.147 270.758 493.091 271.67 491.651 272.342C490.243 273.046 488.435 273.398 486.227 273.398H479.507ZM482.723 255.83C480.643 255.83 478.819 255.51 477.251 254.87C475.715 254.198 474.515 253.254 473.651 252.038C472.787 250.822 472.355 249.382 472.355 247.718C472.355 245.222 473.299 243.254 475.187 241.814C477.107 240.342 479.667 239.606 482.867 239.606L488.627 242.342C489.747 242.694 490.723 243.366 491.555 244.358C492.387 245.318 492.803 246.598 492.803 248.198C492.803 250.502 491.907 252.358 490.115 253.766C488.323 255.142 485.859 255.83 482.723 255.83ZM482.723 253.382C484.419 253.382 485.747 252.87 486.707 251.846C487.699 250.822 488.195 249.446 488.195 247.718C488.195 246.022 487.699 244.662 486.707 243.638C485.747 242.582 484.419 242.054 482.723 242.054C481.091 242.054 479.779 242.582 478.787 243.638C477.795 244.662 477.299 246.022 477.299 247.718C477.299 249.446 477.779 250.822 478.739 251.846C479.731 252.87 481.059 253.382 482.723 253.382ZM488.627 242.342L482.867 239.606H495.779V242.342H488.627ZM530.08 265.142C526.784 265.142 523.856 264.486 521.296 263.174C518.736 261.83 516.72 259.894 515.248 257.366C513.808 254.806 513.088 251.718 513.088 248.102C513.088 244.518 513.792 241.462 515.2 238.934C516.608 236.374 518.56 234.422 521.056 233.078C523.552 231.702 526.384 231.014 529.552 231.014C532.464 231.014 534.944 231.542 536.992 232.598C539.04 233.622 540.608 235.046 541.696 236.87C542.784 238.662 543.344 240.774 543.376 243.206H542.032C541.872 241.67 541.376 240.198 540.544 238.79C539.712 237.382 538.512 236.246 536.944 235.382C535.376 234.486 533.376 234.038 530.944 234.038C528.512 234.038 526.352 234.598 524.464 235.718C522.608 236.806 521.152 238.39 520.096 240.47C519.04 242.518 518.512 244.934 518.512 247.718C518.512 250.534 519.056 252.966 520.144 255.014C521.232 257.03 522.72 258.598 524.608 259.718C526.528 260.806 528.704 261.35 531.136 261.35C533.504 261.35 535.488 260.918 537.088 260.054C538.72 259.19 539.968 258.038 540.832 256.598C541.696 255.158 542.192 253.558 542.32 251.798H545.392C545.296 254.23 544.672 256.47 543.52 258.518C542.4 260.534 540.736 262.15 538.528 263.366C536.32 264.55 533.504 265.142 530.08 265.142ZM543.376 243.206L542.032 240.23V231.734H545.056V243.206H543.376ZM562.639 264.998C560.207 264.998 558.063 264.502 556.207 263.51C554.383 262.518 552.959 261.062 551.935 259.142C550.911 257.222 550.399 254.902 550.399 252.182C550.399 249.43 550.911 247.094 551.935 245.174C552.959 243.254 554.383 241.798 556.207 240.806C558.031 239.814 560.143 239.318 562.543 239.318L562.687 242.006C561.151 242.006 559.823 242.374 558.703 243.11C557.583 243.814 556.719 244.902 556.111 246.374C555.503 247.814 555.199 249.638 555.199 251.846C555.199 254.79 555.935 257.126 557.407 258.854C558.911 260.55 560.927 261.398 563.455 261.398C565.055 261.398 566.351 261.126 567.343 260.582C568.367 260.006 569.151 259.318 569.695 258.518C570.271 257.686 570.671 256.87 570.895 256.07H573.871C573.775 257.094 573.471 258.15 572.959 259.238C572.479 260.294 571.775 261.254 570.847 262.118C569.951 262.982 568.831 263.686 567.487 264.23C566.143 264.742 564.527 264.998 562.639 264.998ZM552.751 251.942V249.35H569.455L574.207 250.694V251.942H552.751ZM569.455 249.35C569.423 248.006 569.135 246.774 568.591 245.654C568.079 244.502 567.327 243.606 566.335 242.966C565.375 242.326 564.159 242.006 562.687 242.006L562.543 239.318C565.071 239.318 567.199 239.798 568.927 240.758C570.687 241.718 571.999 243.062 572.863 244.79C573.759 246.486 574.207 248.454 574.207 250.694L569.455 249.35ZM595.693 264.47V261.974H599.437V247.814C599.437 246.086 598.957 244.822 597.997 244.022C597.069 243.222 595.821 242.822 594.253 242.822C593.101 242.822 592.013 243.094 590.989 243.638C589.997 244.182 589.181 245.03 588.541 246.182C587.933 247.302 587.629 248.79 587.629 250.646H586.525C586.525 248.118 586.877 246.038 587.581 244.406C588.285 242.742 589.341 241.51 590.749 240.71C592.157 239.91 593.917 239.51 596.029 239.51C598.429 239.51 600.397 240.15 601.933 241.43C603.469 242.71 604.237 244.79 604.237 247.67V261.974H607.837V264.47H595.693ZM578.461 264.47V261.974H582.733V242.39H578.845V239.894H587.101V248.342L587.629 248.246V261.974H591.373V264.47H578.461ZM622.972 264.998C620.188 264.998 618.14 264.15 616.828 262.454C615.516 260.758 614.924 258.422 615.052 255.446L615.388 242.726H608.764V240.086H610.972C612.412 240.086 613.548 239.91 614.38 239.558C615.212 239.206 615.804 238.646 616.156 237.878C616.508 237.11 616.684 236.134 616.684 234.95V233.27H619.852V256.406C619.852 257.942 620.188 259.142 620.859 260.006C621.532 260.838 622.54 261.254 623.884 261.254C625.228 261.254 626.22 260.838 626.86 260.006C627.5 259.174 627.82 257.974 627.82 256.406V250.838H630.892V256.454C630.892 259.11 630.236 261.206 628.924 262.742C627.612 264.246 625.628 264.998 622.972 264.998ZM619.852 242.726V239.894H631.804V242.726H619.852ZM648.28 264.998C645.848 264.998 643.704 264.502 641.848 263.51C640.024 262.518 638.6 261.062 637.576 259.142C636.552 257.222 636.04 254.902 636.04 252.182C636.04 249.43 636.552 247.094 637.576 245.174C638.6 243.254 640.024 241.798 641.848 240.806C643.672 239.814 645.784 239.318 648.184 239.318L648.328 242.006C646.792 242.006 645.464 242.374 644.344 243.11C643.224 243.814 642.36 244.902 641.752 246.374C641.144 247.814 640.84 249.638 640.84 251.846C640.84 254.79 641.576 257.126 643.048 258.854C644.552 260.55 646.568 261.398 649.096 261.398C650.696 261.398 651.992 261.126 652.984 260.582C654.008 260.006 654.792 259.318 655.336 258.518C655.912 257.686 656.312 256.87 656.536 256.07H659.512C659.416 257.094 659.112 258.15 658.6 259.238C658.12 260.294 657.416 261.254 656.488 262.118C655.592 262.982 654.472 263.686 653.128 264.23C651.784 264.742 650.168 264.998 648.28 264.998ZM638.392 251.942V249.35H655.096L659.848 250.694V251.942H638.392ZM655.096 249.35C655.064 248.006 654.776 246.774 654.232 245.654C653.72 244.502 652.968 243.606 651.976 242.966C651.016 242.326 649.8 242.006 648.328 242.006L648.184 239.318C650.712 239.318 652.84 239.798 654.568 240.758C656.328 241.718 657.64 243.062 658.504 244.79C659.4 246.486 659.848 248.454 659.848 250.694L655.096 249.35ZM664.102 264.47V261.974H668.374V242.39H664.486V239.894H672.694V248.15L673.222 248.054V261.974H679.318V264.47H664.102ZM671.638 249.542C671.67 247.142 672.07 245.19 672.838 243.686C673.638 242.15 674.71 241.03 676.054 240.326C677.398 239.59 678.934 239.222 680.662 239.222C682.518 239.19 684.006 239.638 685.126 240.566C686.246 241.462 686.806 242.71 686.806 244.31C686.806 245.302 686.518 246.118 685.942 246.758C685.366 247.398 684.598 247.718 683.638 247.718C682.806 247.718 682.134 247.494 681.622 247.046C681.142 246.566 680.902 245.974 680.902 245.27C680.902 244.406 681.206 243.75 681.814 243.302C682.454 242.854 683.366 242.662 684.55 242.726L684.166 244.358C684.102 243.43 683.702 242.726 682.966 242.246C682.23 241.734 681.254 241.478 680.038 241.478C678.79 241.478 677.638 241.782 676.582 242.39C675.558 242.998 674.742 243.91 674.134 245.126C673.526 246.31 673.222 247.782 673.222 249.542H671.638Z" fill="white"/>
</svg>
