<svg xmlns="http://www.w3.org/2000/svg" width="224" height="9" fill="none">
    <g fill="#ff001c">
        <path d="M193 8V7v1Z"/>
        <path d="m192 6-1 2 1-1h1-1V6Z"/>
        <path d="M162 3h1-1Z"/>
        <path d="M144 2Z"/>
        <path d="M141 2s0-1 0 0Z"/>
        <path d="M162 3Z"/>
        <path d="M188 7Z"/>
        <path d="M170 3h1-1Z"/>
        <path d="m177 3-1 1 1-1Z"/>
        <path d="M186 5h1-1Z"/>
        <path d="M166 3V2v1Z"/>
        <path d="M135 1c1 0 0 0 0 0Z"/>
        <path d="M83 1v1-1Z"/>
        <path d="M187 7Z"/>
        <path d="M83 2Z"/>
        <path d="M122 1Z"/>
        <path d="M132 2Z"/>
        <path d="M117 2Z"/>
        <path d="M112 2Z"/>
        <path d="M10 8V7v1Z"/>
        <path d="M188 7h-1 1Z"/>
        <path d="M117 7h-1 1Z"/>
        <path d="M48 6h-1 1Z"/>
        <path d="m114 7-1-1 1 1Z"/>
        <path d="M20 9V7l1 1 2-1v1l3-1V6s0-1 0 0v1l2-1v1h-1v1h2l1-1h2l2-1-1 1h2s-1 0 0 0l1-1v1l4-1v1h6s1 0 0 0l1-1v1l5-1-1 1 2-1h9l2 1 1-1v1l1-1 1 1V6l2 1 2-1-1 1h1V6h3l-1 1h5V5v1-1l1 1v1h6V6h4V5l1 1h4l-1-1 1 1h8s-1 0 0 0h4l6 1-1-1 1 1V6l10 1c2 0 1-2 3-1l-1 1 8-1h-1 4v1c0-1 2 0 1-1h3l2-1 2 1v1l1-1h4l5-1-2 1 5-1-1 1h5l1-2c0 1 2 0 1 2V5v1l2-1v1l2-1-1 1c2-1 3-2 4-1l1 1h1V5h2-1 1V4l2 1 1-1v1h2s1 0 0 0h5l-1 1 5-1h1v1l4-1 2 1V5c3 2 4-1 6 1h1V5l1-1v2-1h3-1 2-1l1 1h1l3-1v2l2-1v1-1h4l3-1-1 1h2v1l1-1v1l1-1v1l2-1h-1v1l-1-1h1-3l1-1-1 1V5h-2l1-1h-3 1c-2 0-1 1-2 2V4l-1 1V4v1l-2-1-1 1-1-1s1 0 0 0l-2-1-2 1-3-1h1l-2 1V3h-4v2-2 1l-1-1h1l-1-1-1 1V2l-1 1-1-1c0 1-2 0-1 1h-9l1-1h-3 1-2 1-5l1 1-2-2-2 1-1 1V2s1 0 0 0l-1-1v1l-2-1v1h-3V1h-2l1-1h-1v1l-1 1h-1l1-1h-3c1 0 0 0 0 0v1h-4V1h-2l-1 1 2-1-1 1h1v1l-2-1V1h-4l1 1h-1l-1-1-1 1-1-1c-1 0-1 2-2 1V1l-1 1h-2v1l-4-1h-3l-2 1 1-1-3-1h1l-3 1-3 1V2v1l-1-1h-1V1l-3 1-1 1V2l-3 1 2-2-1 1-2 1c0-2-3-1-3-2h-6v1h-2V1l-1-1-1 1h1-3l1-1-4 1h-7l-4 1-2-1c-2-1-3 0-5 1l-6-1v1l-1-1h-2v1c-2-2-5 1-6-1l-1 1V1h-4 1l-2 2V2h-5V1l-2 1h-2l-2 1h-4c-1 0 0 0 0 0h-3 2l-1-2c0 1-1 2-2 1h-3v1h2-1l-1 1-2-2-3 2-1-1h1l-3 1V3c-3-1-4 2-7 1h1-10l-1 1V4l-1 1C9 6 8 3 7 5H4L2 4C1 4 0 5 1 6c0 1-1 2 1 3l1-1v1H2h2V8l1 1V8h1v1l1-1 2 1 1-1c-1 1 1 0 1 1l3-1 1 1 2-2-1 2c0-1 2-1 1-2l1 1 1-1 1 1v1Zm20-3Zm2 0h-1 1Zm-4-4Z"/>
        <path d="M20 3h1-1Z"/>
        <path d="M163 3Z"/>
        <path d="M46 7Z"/>
        <path d="M171 6Z"/>
        <path d="M175 6Z"/>
        <path d="M178 6Z"/>
        <path d="M132 6Z"/>
        <path d="M146 5h-1 1Z"/>
        <path d="M117 7Z"/>
        <path d="M145 5Z"/>
        <path d="M190 8Z"/>
        <path d="M190 8Z"/>
        <path d="m191 7-1 1 1-1Z"/>
        <path d="M186 7Z"/>
        <path d="M185 7h1-1Z"/>
        <path d="M181 4h1-1Z"/>
        <path d="M178 3c-1 0-1 0 0 0Z"/>
        <path d="M156 3V2v1Z"/>
        <path d="M152 5v1-1Z"/>
        <path d="M149 1v1-1Z"/>
        <path d="M113 1v1-1Z"/>
        <path d="M97 2h-1 1Z"/>
        <path d="M50 1Z"/>
    </g>
</svg>